<svg width="403" height="73" viewBox="0 0 403 73" fill="none" xmlns="http://www.w3.org/2000/svg">
<path d="M7.26088 54.7104C5.48996 54.2561 4.07802 53.2119 2.98516 51.7531C1.94016 50.3024 1.21424 48.4371 0.799432 46.253C0.480348 44.6189 0.296875 42.8015 0.296875 40.8884C0.296875 37.7955 0.703707 34.4795 1.42962 31.0758C3.65523 20.6734 9.61412 10.9007 15.7086 5.26506C18.0698 3.08095 20.439 1.49468 22.6646 0.7693C23.6219 0.450452 24.5313 0.314941 25.4407 0.314941C26.6692 0.314941 27.8498 0.633788 28.8549 1.35917C30.3067 2.4034 31.4953 4.26866 32.1733 6.99482L32.2611 7.31366C32.5802 8.58905 32.8035 9.9043 32.8993 11.2674C32.987 12.1761 33.0349 13.1326 33.0349 14.0414C33.0349 14.6791 33.0349 15.3566 32.987 15.9943C32.987 16.4008 32.8993 16.6719 32.7557 16.8153C32.6121 16.9588 32.5243 16.9987 32.3887 16.9987C32.2053 16.9987 32.0218 16.8632 31.8862 16.7277C31.7506 16.5921 31.6548 16.361 31.5671 16.1378L31.5192 15.7711C31.5192 15.4044 31.6548 15.0457 32.0218 14.7747L32.1095 14.7269C32.1095 13.587 32.0617 12.4551 31.9739 11.363C31.8383 10.0876 31.6548 8.82022 31.3836 7.59266C30.6976 5.0897 29.6526 3.41574 28.3842 2.50702C27.4748 1.86933 26.4777 1.55048 25.3848 1.55048C24.6111 1.55048 23.8373 1.68599 23.0236 1.95701C20.9336 2.63456 18.6601 4.14112 16.3867 6.18175C10.5235 11.6341 4.78798 21.0879 2.65012 31.1715C1.9242 34.5832 1.51737 37.8513 1.51737 40.8485C1.51737 42.666 1.65298 44.3957 1.97207 45.9342C2.3789 47.9349 3.06493 49.7045 4.02218 51.0198C4.97943 52.335 6.2079 53.2437 7.74748 53.6582C8.33779 53.8416 8.97596 53.8894 9.70187 53.8894C10.5235 53.8894 11.4329 53.8017 12.3822 53.5706C16.3388 52.5263 20.5188 49.3458 24.4356 45.5754C28.48 41.6217 32.301 36.9905 35.3482 33.2121C35.436 33.0766 35.5716 33.0288 35.6673 33.0288C35.8029 33.0288 35.8987 33.0766 35.9864 33.1643C36.122 33.252 36.1699 33.3954 36.1699 33.531C36.1699 33.6665 36.122 33.802 36.0343 33.8976C32.9391 37.7158 29.1181 42.3471 25.0338 46.3008C21.0293 50.2067 16.7536 53.435 12.6614 54.5271L12.2944 54.6148C11.2973 54.8858 10.34 55.0213 9.47851 55.0213C8.65687 55.0213 7.93096 54.8858 7.2529 54.7025L7.26088 54.7104Z" fill="#836923" stroke="#836923" stroke-width="0.25" stroke-miterlimit="10"/>
<path d="M36.9912 42.6262L36.9433 41.9486C36.9433 40.6334 37.2624 38.7203 37.9883 35.9941C36.3929 38.6725 33.9439 40.3145 33.9439 40.3145C33.577 40.5457 33.2579 40.6334 32.9867 40.6334C32.4841 40.6334 32.2608 40.179 32.2129 39.4536L32.3006 38.7283C32.4841 37.6362 33.0744 36.1376 33.8961 34.8224C34.8932 33.1883 36.2573 31.8252 37.6692 31.8252C37.9883 31.8252 38.2595 31.873 38.5786 32.0085C38.8099 32.144 38.9456 32.4151 38.9456 32.6861L38.8578 33.0528C38.8099 33.1883 38.6265 33.2839 38.451 33.2839C38.3632 33.2839 38.3154 33.2839 38.2196 33.2361C38.084 33.1484 37.9484 33.1006 37.7649 33.1006C36.6721 33.1006 35.1724 35.1412 34.3109 36.9666C33.9918 37.6043 33.8083 38.1942 33.6248 38.6486C33.5371 38.9196 33.4892 39.1029 33.4892 39.2384C33.4892 39.3261 33.4892 39.3739 33.5371 39.4218H33.6248L33.8562 39.2384C34.8134 38.513 36.4009 36.7355 38.7701 33.2441C38.9057 33.0129 39.137 32.8375 39.3125 32.7897L39.496 32.7419L39.6795 32.7897C39.8151 32.8375 39.9507 32.9731 39.9985 33.1564L40.0464 33.4752L39.9985 33.7941C39.137 36.8869 38.4031 39.9319 38.3632 41.7892V41.9725C38.3632 42.6979 38.5467 43.1124 38.9535 43.1124C39.1849 43.1124 39.5438 42.9769 39.9985 42.5704C40.3176 42.2994 40.5888 42.0682 40.9079 41.7494C42.7746 39.9319 45.0959 36.8391 47.4571 33.252C47.5449 33.1165 47.6885 33.0209 47.8241 33.0209L48.0953 33.1086C48.183 33.1962 48.2788 33.3796 48.2788 33.5151C48.2788 33.6506 48.2309 33.7383 48.191 33.8339C45.2315 38.3297 42.3278 42.108 40.2777 43.6066L39.5518 44.1088L39.4641 44.1567C39.0572 44.3878 38.6424 44.4277 38.3712 44.4277H38.1877C37.5496 44.2922 37.0949 43.7422 37.0071 42.6581L36.9912 42.6262Z" fill="#836923" stroke="#836923" stroke-width="0.25" stroke-miterlimit="10"/>
<path d="M46.0456 46.261C45.7744 46.1733 45.6388 45.8545 45.6388 45.4001V45.2168C45.6866 44.8501 45.7744 44.3559 45.9578 43.8059C46.5003 41.9406 47.641 39.2145 48.2792 37.7637C48.686 36.8072 48.8695 36.1695 48.8695 35.6752C48.8695 34.8144 48.3669 34.4477 47.9122 34.081C47.4097 33.6745 46.9151 33.3078 46.9151 32.6302C46.9151 32.2636 47.0986 31.7694 47.4575 31.1317L47.5054 31.044L47.7766 30.6374C47.9122 30.5498 48.0957 30.4541 48.2792 30.4541C48.3669 30.4541 48.5504 30.5418 48.5504 30.5418C48.686 30.5896 48.7339 30.6773 48.7817 30.765L48.8296 31.036C48.8296 31.2193 48.7817 31.3548 48.694 31.5382C48.4228 31.9447 48.327 32.2636 48.327 32.5346C48.327 32.9411 48.6461 33.1723 48.9173 33.4433C49.5077 33.8977 50.1458 34.4397 50.1458 35.6274C50.1458 36.2651 49.9145 37.126 49.4199 38.2659C48.9174 39.4456 48.008 41.3986 47.4177 42.9928C47.0108 44.1327 46.7795 44.8102 46.7396 45.0414C47.649 44.2682 49.3322 41.7254 51.2865 38.7681C52.5629 36.7274 53.927 34.631 55.1076 33.0846C55.1953 32.9969 55.2911 32.9013 55.4267 32.9013L55.658 32.9889C55.7457 33.0766 55.7936 33.1723 55.7936 33.3078C55.7936 33.4433 55.7457 33.539 55.7059 33.6266C54.5252 35.1731 53.209 37.2137 51.8848 39.2623C51.1111 40.4899 47.657 46.1255 46.3328 46.3088C46.245 46.3088 46.1493 46.3088 46.0616 46.261H46.0456Z" fill="#836923" stroke="#836923" stroke-width="0.25" stroke-miterlimit="10"/>
<path d="M52.6346 58.6245V57.947C52.6346 54.5831 53.8152 42.4988 55.634 31.4985C56.1365 28.3658 56.7667 25.3607 57.365 22.5947L45.9498 22.5469C45.9019 22.6345 45.862 22.6824 45.7663 22.6824C45.4472 22.8179 45.1281 22.8657 44.9048 22.8657C44.7213 22.8657 44.5378 22.8179 44.4501 22.7302C44.2666 22.6425 44.131 22.4592 44.0831 22.2758C44.0831 22.0925 44.0831 21.8693 44.1709 21.7338V21.686C44.3065 21.5505 44.49 21.4149 44.7133 21.4149H44.8011C45.1202 21.3671 45.6626 21.3671 46.4364 21.3671L51.4859 21.4548L57.5804 21.5903C58.3542 18.2265 59.2635 15.3648 60.1729 13.4995C60.3085 13.1329 60.7154 12.6785 61.1302 12.5908C61.3137 12.5908 61.4493 12.5908 61.6327 12.6785C61.7684 12.7662 61.8561 12.9495 61.904 13.1329L61.9518 13.3561C61.9518 13.5872 61.8641 13.8582 61.7205 14.1771C61.6726 14.2648 61.5849 14.3126 61.4892 14.3604C60.6675 16.0902 59.8937 18.5852 59.1279 21.6302H59.6305C64.1296 21.678 68.8201 21.7178 72.5454 21.7178C75.8639 21.7178 78.4086 21.67 79.2781 21.5345H79.3658C79.5972 21.5345 79.8205 21.7179 79.8684 21.941V22.0287C79.8684 22.2599 79.6849 22.4831 79.4615 22.5309C78.5522 22.6664 76.0075 22.7142 72.6411 22.7142C68.2777 22.7142 63.9062 22.6266 58.9046 22.6266C58.2185 25.4882 57.5883 28.6687 56.998 31.9848C54.9958 43.2082 53.7274 55.436 53.7274 58.1144V58.2499L53.7753 58.5687C53.7753 58.9753 53.5041 59.2064 53.2329 59.2064C52.9616 59.2064 52.7303 59.0231 52.6426 58.6166L52.6346 58.6245Z" fill="#836923" stroke="#836923" stroke-width="0.25" stroke-miterlimit="10"/>
<path d="M64.5927 42.6262L64.5449 41.9486C64.5449 40.6334 64.864 38.7203 65.5899 35.9941C63.9944 38.6725 61.5455 40.3145 61.5455 40.3145C61.1785 40.5457 60.8594 40.6334 60.5882 40.6334C60.0857 40.6334 59.8623 40.179 59.8145 39.4536L59.9022 38.7283C60.0857 37.6362 60.676 36.1376 61.4976 34.8224C62.4948 33.1883 63.8588 31.8252 65.2708 31.8252C65.5899 31.8252 65.8611 31.873 66.1802 32.0085C66.4115 32.144 66.5471 32.4151 66.5471 32.6861L66.4594 33.0528C66.4115 33.1883 66.228 33.2839 66.0525 33.2839C65.9648 33.2839 65.9169 33.2839 65.8212 33.2361C65.6856 33.1484 65.55 33.1006 65.3665 33.1006C64.2736 33.1006 62.774 35.1412 61.9124 36.9666C61.5933 37.6043 61.4099 38.1942 61.2264 38.6486C61.1386 38.9196 61.0908 39.1029 61.0908 39.2384C61.0908 39.3261 61.0908 39.3739 61.1386 39.4218H61.2264L61.4577 39.2384C62.415 38.513 64.0024 36.7355 66.3716 33.2441C66.5072 33.0129 66.7386 32.8375 66.9141 32.7897L67.0975 32.7419L67.281 32.7897C67.4166 32.8375 67.5522 32.9731 67.6001 33.1564L67.648 33.4752L67.6001 33.7941C66.7386 36.8869 66.0047 39.9319 65.9648 41.7892V41.9725C65.9648 42.6979 66.1483 43.1124 66.5551 43.1124C66.7864 43.1124 67.1454 42.9769 67.6001 42.5704C67.9192 42.2994 68.1904 42.0682 68.5095 41.7494C70.3761 39.9319 72.6975 36.8391 75.0587 33.252C75.1464 33.1165 75.29 33.0209 75.4256 33.0209L75.6968 33.1086C75.7846 33.1962 75.8803 33.3796 75.8803 33.5151C75.8803 33.6506 75.8325 33.7383 75.7926 33.8339C72.8331 38.3297 69.9294 42.108 67.8793 43.6066L67.1534 44.1088L67.0656 44.1567C66.6588 44.3878 66.244 44.4277 65.9728 44.4277H65.7893C65.1511 44.2922 64.6964 43.7422 64.6087 42.6581L64.5927 42.6262Z" fill="#836923" stroke="#836923" stroke-width="0.25" stroke-miterlimit="10"/>
<path d="M78.0972 35.8505C78.0494 35.8984 78.0095 35.9861 77.9616 36.0339C77.826 36.2172 77.6904 36.4006 77.5548 36.5759C77.3235 36.8469 77.148 37.0781 76.9645 37.3013C75.1936 39.6209 73.9172 40.8485 73.1435 40.984C72.9121 41.0318 72.7366 41.0717 72.601 41.0717C72.0586 41.0717 71.7794 40.705 71.7794 39.9796V39.8441C71.7794 39.5731 71.8272 39.2543 71.8671 38.8876C72.0985 37.66 72.6409 36.3448 73.5024 34.886C74.0927 33.9773 74.7309 33.2041 75.409 32.5664C76.087 31.9287 76.8209 31.6099 77.5947 31.6099C77.9138 31.6099 78.2328 31.6976 78.5519 31.8331C78.9588 32.0164 79.1422 32.2874 79.1422 32.6541C79.1422 32.7896 79.0944 32.8853 79.0545 33.0208L79.7325 32.1997H79.7804V32.1519H79.8283C79.8761 32.0642 79.916 32.0164 79.9639 31.9686C80.7855 31.1077 81.4636 30.6533 82.0539 30.6533H82.1895C82.5564 30.7011 82.8675 30.9243 83.0989 31.3787C83.3302 31.8331 83.418 32.5584 83.418 33.5628C83.418 34.1527 83.3701 34.7904 83.2824 35.5636L83.0989 36.9267L82.9154 38.3774C84.5986 36.6078 86.4173 34.8302 88.4196 33.0606C88.5073 32.9729 88.6031 32.9251 88.6908 32.9251C88.8264 32.9251 88.9222 32.9729 89.0578 33.1085C89.1056 33.1961 89.1455 33.2918 89.1455 33.4273C89.1455 33.5628 89.0976 33.6983 88.962 33.8338C86.6886 35.9223 84.5986 37.9709 82.7319 40.0115C81.5513 48.2378 80.1394 54.7822 78.4562 59.5968C76.773 64.4114 75.1377 67.7752 73.4546 69.6405C72.1383 71.2347 70.9099 72 69.8649 72C69.3623 72 68.9555 71.8645 68.5487 71.5456C67.6393 70.8202 67.1846 69.4093 67.1846 67.3687C67.1846 66.6911 67.2324 65.8701 67.368 65.0092C67.735 62.0519 69.0033 58.4649 71.2369 54.1524C73.4625 49.832 76.8767 45.1131 81.4715 39.9717C81.6949 38.5209 81.8784 37.0143 82.0619 35.4281C82.1496 34.5672 82.1975 33.8338 82.1975 33.3396C82.1975 32.4787 82.1097 32.0244 81.8784 31.9287C81.8465 31.8968 81.8172 31.8809 81.7906 31.8809C81.5194 31.8809 81.0647 32.1997 80.4265 32.8773V32.9251H80.3787C79.6049 33.786 78.879 34.7904 78.1052 35.8346L78.0972 35.8505ZM74.8665 65.073C77.1878 60.7526 79.1901 53.6662 80.8733 43.8058C81.0089 43.1203 81.1445 42.3949 81.2402 41.6695C77.0123 46.532 73.9172 50.9879 71.8751 55.0293C69.833 59.0707 68.6045 62.4345 68.2854 65.1607C68.1498 66.0216 68.1019 66.7948 68.1019 67.4803C68.1019 69.1144 68.421 70.2064 69.0991 70.7485C69.2825 70.884 69.466 70.9796 69.6415 70.9796C69.6894 70.9796 69.7771 70.9796 69.8728 70.9318C71.2369 70.7963 72.9201 68.8434 74.8745 65.073H74.8665ZM77.7303 32.949C77.14 32.949 76.454 33.4034 75.7759 34.2643C75.05 35.1252 74.4118 36.0817 73.9093 37.1259C73.5902 37.7636 73.319 38.3535 73.1833 38.9434C73.1355 39.2622 73.0956 39.5332 73.0956 39.6688V39.8043C73.0956 39.8362 73.1116 39.8521 73.1435 39.8521C73.2791 39.8521 73.5104 39.6688 73.8694 39.3101C74.1885 38.9912 74.5474 38.5847 74.9622 38.1702C75.3292 37.7636 75.6483 37.397 75.9195 37.0781C76.103 36.847 76.2386 36.7114 76.2864 36.6716C76.6055 36.2651 76.9246 35.8107 77.2437 35.3563C77.467 35.1252 77.6505 34.8541 77.834 34.5831C78.0175 34.3121 78.2009 34.0411 78.4243 33.8099C78.3764 33.8099 78.3365 33.8099 78.2887 33.7621C78.2009 33.7621 78.1052 33.7621 78.0574 33.7143C77.9217 33.5788 77.8739 33.4432 77.8739 33.3077C77.8739 33.1722 77.9217 33.0845 77.9616 32.9889C77.9138 32.9411 77.826 32.9411 77.7303 32.9411V32.949Z" fill="#836923" stroke="#836923" stroke-width="0.25" stroke-miterlimit="10"/>
<path d="M86.1947 42.3551C85.74 41.9486 85.5086 41.2631 85.4688 40.45V40.0833C85.4688 38.2181 86.3303 35.7629 87.5588 34.089C88.9228 32.2237 89.9678 31.4983 90.6539 31.4106H90.8373C91.5633 31.4106 91.9701 31.9527 92.0658 32.7737V33.2281C91.9781 33.7701 91.7467 34.4556 91.3399 34.9977C90.7974 35.7231 89.9279 36.2731 88.7952 36.2731C88.524 36.2731 88.2528 36.2731 87.9337 36.1854C87.2955 37.5006 86.8408 38.9115 86.8009 40.0514V40.4181C86.8009 40.7848 86.8488 41.0957 86.9365 41.3268C87.0721 41.558 87.2556 41.6935 87.5268 41.7334H87.6146C88.2049 41.7334 89.1143 41.3667 90.2949 40.5058L90.4305 40.4181C92.1137 39.1029 94.3393 36.8311 97.2988 33.1962C97.3865 33.0607 97.5301 33.0129 97.6657 33.0129C97.7535 33.0129 97.8492 33.0129 97.9369 33.1005C98.0247 33.2361 98.0726 33.3716 98.0726 33.5071C98.0726 33.6426 98.0247 33.7303 97.9848 33.8259C95.0253 37.5086 92.712 39.8681 90.9331 41.2312L90.614 41.4623C89.6567 42.1877 88.8431 42.5544 88.2049 42.7377C87.9337 42.8254 87.6625 42.8732 87.4311 42.8732C86.9286 42.8732 86.5217 42.6899 86.2026 42.3711L86.1947 42.3551ZM90.606 34.3122C90.9251 33.9455 91.0607 33.4911 91.1086 33.0846V32.9491C91.1086 32.7657 91.0607 32.6781 90.9251 32.6781L90.6937 32.7259C90.2869 32.9092 89.6966 33.4513 88.875 34.5912L88.4203 35.2289L88.7872 35.2767C89.6488 35.2767 90.2391 34.8223 90.606 34.3201V34.3122Z" fill="#836923" stroke="#836923" stroke-width="0.25" stroke-miterlimit="10"/>
<path d="M94.3789 43.8539V43.5828C94.4268 43.1763 94.5624 42.6263 94.7459 41.9009C95.4239 38.9436 97.1071 33.6268 97.7054 32.0405C97.841 31.7217 98.1601 31.5862 98.4313 31.5862C98.7025 31.5862 98.9737 31.7217 98.9737 32.0405V32.1282L98.9259 32.3594C98.3355 33.9536 96.6045 38.8559 95.8307 41.6777V41.7654L96.4689 40.5857C97.6017 38.4494 99.4284 34.9979 101.016 33.3159C101.335 32.9493 101.654 32.7261 101.925 32.5905C102.061 32.5427 102.196 32.5029 102.38 32.5029C102.516 32.5029 102.699 32.5507 102.835 32.6384C103.066 32.7739 103.241 33.0449 103.337 33.4594C103.425 33.8261 103.521 34.3681 103.521 35.0537C103.521 35.508 103.473 36.0501 103.433 36.6479C103.385 37.2378 103.385 37.7878 103.385 38.282C103.385 40.6893 103.752 42.0045 104.382 42.5546C104.566 42.7379 104.837 42.8256 105.108 42.8256C105.794 42.8256 106.656 42.3712 107.613 41.6857C110.158 39.8204 113.253 36.1856 115.981 32.9572C116.116 32.8695 116.252 32.7739 116.388 32.7739C116.475 32.7739 116.619 32.8217 116.659 32.9094C116.747 32.9971 116.795 33.1406 116.795 33.3159C116.795 33.4036 116.747 33.5471 116.659 33.6348C113.883 36.8631 110.7 40.5458 108.068 42.4988V42.5466L107.07 43.1843C106.209 43.7263 105.435 44.0053 104.749 44.0053C103.249 44.0053 102.292 42.5546 102.292 38.824C102.292 38.1863 102.34 37.5486 102.38 36.8233C102.428 36.0979 102.428 35.508 102.428 35.0537C102.428 34.0573 102.34 33.6427 102.157 33.6427L101.885 33.6906C101.383 34.1449 100.705 35.0537 100.338 35.6435C99.1971 37.3254 98.1521 39.3661 97.2905 41.0081L95.6951 43.8698C95.4638 44.1887 95.3282 44.372 95.1527 44.4597C95.0171 44.5474 94.8336 44.643 94.7459 44.643C94.4746 44.643 94.3789 44.372 94.3789 43.8698V43.8539Z" fill="#836923" stroke="#836923" stroke-width="0.25" stroke-miterlimit="10"/>
<path d="M117.656 42.6262L117.608 41.9486C117.608 40.6334 117.927 38.7203 118.653 35.9941C117.058 38.6725 114.609 40.3145 114.609 40.3145C114.242 40.5457 113.923 40.6334 113.652 40.6334C113.149 40.6334 112.926 40.179 112.878 39.4536L112.966 38.7283C113.149 37.6362 113.739 36.1376 114.561 34.8224C115.558 33.1883 116.922 31.8252 118.334 31.8252C118.653 31.8252 118.925 31.873 119.244 32.0085C119.475 32.144 119.611 32.4151 119.611 32.6861L119.523 33.0528C119.475 33.1883 119.299 33.2839 119.116 33.2839C119.028 33.2839 118.98 33.2839 118.885 33.2361C118.749 33.1484 118.613 33.1006 118.43 33.1006C117.337 33.1006 115.837 35.1412 114.976 36.9666C114.657 37.6043 114.473 38.1942 114.29 38.6486C114.202 38.9196 114.154 39.1029 114.154 39.2384C114.154 39.3261 114.154 39.3739 114.202 39.4218H114.29L114.521 39.2384C115.478 38.513 117.066 36.7355 119.435 33.2441C119.571 33.0129 119.802 32.8375 119.978 32.7897L120.161 32.7419L120.344 32.7897C120.48 32.8375 120.616 32.9731 120.664 33.1564L120.711 33.4752L120.664 33.7941C119.802 36.8869 119.068 39.9319 119.028 41.7892V41.9725C119.028 42.6979 119.212 43.1124 119.619 43.1124C119.85 43.1124 120.209 42.9769 120.664 42.5704C120.983 42.2994 121.254 42.0682 121.573 41.7494C123.44 39.9319 125.761 36.8391 128.122 33.252C128.21 33.1165 128.353 33.0209 128.489 33.0209L128.76 33.1086C128.848 33.1962 128.944 33.3796 128.944 33.5151C128.944 33.6506 128.896 33.7383 128.856 33.8339C125.897 38.3297 122.993 42.108 120.943 43.6066L120.217 44.1088L120.129 44.1567C119.722 44.3878 119.307 44.4277 119.036 44.4277H118.853C118.215 44.2922 117.76 43.7422 117.672 42.6581L117.656 42.6262Z" fill="#836923" stroke="#836923" stroke-width="0.25" stroke-miterlimit="10"/>
<path d="M140.295 39.8043C140.295 38.2101 140.431 36.6238 140.702 34.9419C138.428 37.9869 136.793 39.892 135.748 40.6652C135.293 41.1196 134.751 41.3428 134.201 41.3428C133.65 41.3428 133.379 40.8406 133.379 39.9319C133.379 38.4811 134.017 36.7035 135.285 34.5274C136.737 32.2078 138.197 31.028 139.649 31.028C140.423 31.028 140.965 31.2592 141.332 31.7056C142.561 26.0221 144.196 20.4821 146.286 15.0298C148.647 8.75649 150.785 5.67163 152.699 5.67163C153.744 5.67163 154.295 6.58035 154.295 8.3101C154.295 9.85651 153.792 11.8573 152.843 14.3044C151.615 17.2618 150.115 20.2988 148.296 23.4394C145.935 27.441 143.972 30.5258 142.433 32.71C141.795 35.6673 141.476 38.0746 141.476 39.9319C141.476 41.9326 141.93 42.929 142.752 42.929C143.159 42.929 143.574 42.7935 144.116 42.4747C146.07 41.3348 149.03 38.1543 152.939 33.0208C152.987 32.8853 153.122 32.8375 153.258 32.8375C153.529 32.8375 153.713 32.973 153.76 33.244C153.76 33.3795 153.713 33.515 153.625 33.6506C151.303 36.7434 149.349 39.1029 147.762 40.6971C147.762 40.729 147.746 40.7449 147.714 40.7449C145.528 42.929 143.805 44.0131 142.576 44.0131C141.029 44.0131 140.303 42.6022 140.303 39.7884L140.295 39.8043ZM141.069 32.7179C140.798 32.7179 140.614 32.6701 140.479 32.5346C140.295 32.4469 140.072 32.3991 139.888 32.3991C139.298 32.3991 138.66 32.7658 137.982 33.4911C137.072 34.4875 136.299 35.6274 135.66 36.9028C135.022 38.2181 134.703 39.1746 134.703 39.8123V39.9956C134.735 40.0275 134.764 40.0435 134.791 40.0435C135.565 40.0435 137.655 37.6362 141.069 32.7259V32.7179ZM151.981 13.9059C152.891 11.5863 153.393 9.76883 153.393 8.31807C153.393 7.68037 153.306 7.17819 153.122 6.90717C153.074 6.90717 153.034 6.90717 152.987 6.85934C152.939 6.81151 152.899 6.81151 152.803 6.81151C151.981 6.81151 150.897 8.22241 149.572 10.9884C148.256 13.6269 147.211 16.2175 146.437 18.7125C145.121 22.5786 144.028 26.3888 143.071 30.1193C147.028 24.0771 150.027 18.6647 151.981 13.8979V13.9059Z" fill="#836923" stroke="#836923" stroke-width="0.25" stroke-miterlimit="10"/>
<path d="M150.713 42.3551C150.259 41.9486 150.027 41.2631 149.987 40.45V40.0833C149.987 38.2181 150.849 35.7629 152.077 34.089C153.441 32.2237 154.486 31.4983 155.172 31.4106H155.356C156.082 31.4106 156.489 31.9527 156.584 32.7737V33.2281C156.497 33.7701 156.265 34.4556 155.858 34.9977C155.316 35.7231 154.446 36.2731 153.314 36.2731C153.043 36.2731 152.771 36.2731 152.452 36.1854C151.814 37.5006 151.359 38.9115 151.311 40.0514V40.4181C151.311 40.7848 151.359 41.0957 151.447 41.3268C151.583 41.558 151.766 41.6935 152.037 41.7334H152.125C152.715 41.7334 153.625 41.3667 154.805 40.5058L154.941 40.4181C156.624 39.1029 158.85 36.8311 161.809 33.1962C161.897 33.0607 162.041 33.0129 162.176 33.0129C162.264 33.0129 162.36 33.0129 162.448 33.1005C162.535 33.2361 162.583 33.3716 162.583 33.5071C162.583 33.6426 162.535 33.7303 162.495 33.8259C159.536 37.5086 157.223 39.8681 155.444 41.2312L155.125 41.4623C154.167 42.1877 153.354 42.5544 152.715 42.7377C152.444 42.8254 152.173 42.8732 151.942 42.8732C151.439 42.8732 151.032 42.6899 150.713 42.3711V42.3551ZM155.125 34.3122C155.444 33.9455 155.579 33.4911 155.627 33.0846V32.9491C155.627 32.7657 155.579 32.6781 155.444 32.6781L155.212 32.7259C154.805 32.9092 154.215 33.4513 153.394 34.5912L152.939 35.2289L153.306 35.2767C154.167 35.2767 154.758 34.8223 155.125 34.3201V34.3122Z" fill="#836923" stroke="#836923" stroke-width="0.25" stroke-miterlimit="10"/>
<path d="M174.628 54.2561V53.2597C174.628 48.8516 175.402 42.3551 176.535 35.3564C178.354 24.0452 181.082 11.4507 182.582 4.86653C182.765 4.14115 182.853 3.63897 182.853 3.36795C182.717 3.45563 182.582 3.55128 182.486 3.73462C181.895 4.37232 181.17 5.41654 180.3 6.82745C177.803 10.9167 174.477 17.5089 172.618 22.7778L172.57 22.8655C172.203 23.8221 171.844 25.0895 171.525 26.317C171.39 26.8591 171.254 27.4091 171.206 27.8635L171.254 28.4533L171.206 29.091C171.158 29.1787 171.118 29.3142 171.023 29.362C170.935 29.4976 170.791 29.5932 170.656 29.5932C170.472 29.5932 170.424 29.5055 170.249 29.3222C170.201 29.2345 170.161 29.099 170.161 28.8678V28.82C170.161 28.6845 170.161 28.5888 170.209 28.4533C170.297 27.4091 170.576 26.0939 171.031 24.6351C171.262 23.8619 171.485 23.0887 171.709 22.451L171.757 22.4032C173.711 16.9987 176.99 10.3587 179.534 6.26946C180.444 4.81871 181.217 3.67882 181.808 3.00127C182.31 2.45923 182.765 2.14038 183.084 2.14038L183.268 2.18821C183.403 2.18821 183.499 2.27589 183.635 2.37155C183.77 2.50706 183.858 2.73822 183.906 3.00925L183.954 3.51143C183.954 3.91796 183.866 4.46797 183.682 5.14552C182.183 11.6899 179.494 24.2286 177.676 35.5477C176.543 42.4986 175.769 48.9951 175.769 53.2677V54.2641C175.769 54.6308 175.498 54.8061 175.227 54.8061C174.955 54.8061 174.684 54.6228 174.636 54.2641L174.628 54.2561Z" fill="#836923" stroke="#836923" stroke-width="0.25" stroke-miterlimit="10"/>
<path d="M183.993 43.8539V43.5828C184.041 43.1763 184.177 42.6263 184.36 41.9009C185.038 38.9436 186.721 33.6268 187.32 32.0405C187.455 31.7217 187.774 31.5862 188.046 31.5862C188.317 31.5862 188.588 31.7217 188.588 32.0405V32.1282L188.54 32.3594C187.95 33.9536 186.219 38.8559 185.445 41.6777V41.7654L186.083 40.5857C187.216 38.4494 189.043 34.9979 190.63 33.3159C190.949 32.9493 191.268 32.7261 191.54 32.5905C191.675 32.5427 191.811 32.5029 191.994 32.5029C192.13 32.5029 192.313 32.5507 192.449 32.6384C192.68 32.7739 192.856 33.0449 192.951 33.4594C193.039 33.8261 193.135 34.3681 193.135 35.0537C193.135 35.508 193.087 36.0501 193.047 36.6479C192.999 37.2378 192.999 37.7878 192.999 38.282C192.999 40.6893 193.366 42.0045 193.996 42.5546C194.18 42.7379 194.451 42.8256 194.722 42.8256C195.408 42.8256 196.27 42.3712 197.227 41.6857C199.772 39.8204 202.867 36.1856 205.595 32.9572C205.731 32.8695 205.866 32.7739 206.002 32.7739C206.09 32.7739 206.233 32.8217 206.273 32.9094C206.361 32.9971 206.409 33.1406 206.409 33.3159C206.409 33.4036 206.361 33.5471 206.273 33.6348C203.497 36.8631 200.314 40.5458 197.682 42.4988V42.5466L196.685 43.1843C195.823 43.7263 195.049 44.0053 194.363 44.0053C192.864 44.0053 191.906 42.5546 191.906 38.824C191.906 38.1863 191.954 37.5486 191.994 36.8233C192.042 36.0979 192.042 35.508 192.042 35.0537C192.042 34.0573 191.954 33.6427 191.771 33.6427L191.5 33.6906C190.997 34.1449 190.319 35.0537 189.952 35.6435C188.811 37.3254 187.766 39.3661 186.905 41.0081L185.309 43.8698C185.078 44.1887 184.942 44.372 184.767 44.4597C184.631 44.5474 184.448 44.643 184.36 44.643C184.089 44.643 183.993 44.372 183.993 43.8698V43.8539Z" fill="#836923" stroke="#836923" stroke-width="0.25" stroke-miterlimit="10"/>
<path d="M209.456 39.8043C209.456 38.2101 209.592 36.6238 209.863 34.9419C207.59 37.9869 205.954 39.892 204.909 40.6652C204.455 41.1196 203.912 41.3428 203.362 41.3428C202.811 41.3428 202.54 40.8406 202.54 39.9319C202.54 38.4811 203.178 36.7035 204.447 34.5274C205.899 32.2078 207.358 31.028 208.81 31.028C209.584 31.028 210.126 31.2592 210.493 31.7056C211.722 26.0221 213.357 20.4821 215.447 15.0298C217.808 8.75649 219.946 5.67163 221.861 5.67163C222.906 5.67163 223.456 6.58035 223.456 8.3101C223.456 9.85651 222.954 11.8573 222.004 14.3044C220.776 17.2618 219.276 20.2988 217.457 23.4394C215.096 27.441 213.134 30.5258 211.594 32.71C210.956 35.6673 210.637 38.0746 210.637 39.9319C210.637 41.9326 211.092 42.929 211.913 42.929C212.32 42.929 212.735 42.7935 213.277 42.4747C215.232 41.3348 218.191 38.1543 222.1 33.0208C222.148 32.8853 222.283 32.8375 222.419 32.8375C222.69 32.8375 222.874 32.973 222.922 33.244C222.922 33.3795 222.874 33.515 222.786 33.6506C220.465 36.7434 218.51 39.1029 216.923 40.6971C216.923 40.729 216.907 40.7449 216.875 40.7449C214.689 42.929 212.966 44.0131 211.738 44.0131C210.19 44.0131 209.464 42.6022 209.464 39.7884L209.456 39.8043ZM210.23 32.7179C209.959 32.7179 209.775 32.6701 209.64 32.5346C209.456 32.4469 209.233 32.3991 209.049 32.3991C208.459 32.3991 207.821 32.7658 207.143 33.4911C206.234 34.4875 205.46 35.6274 204.822 36.9028C204.183 38.2181 203.864 39.1746 203.864 39.8123V39.9956C203.896 40.0275 203.926 40.0435 203.952 40.0435C204.726 40.0435 206.816 37.6362 210.23 32.7259V32.7179ZM221.143 13.9059C222.052 11.5863 222.555 9.76883 222.555 8.31807C222.555 7.68037 222.467 7.17819 222.283 6.90717C222.236 6.90717 222.196 6.90717 222.148 6.85934C222.1 6.81151 222.06 6.81151 221.964 6.81151C221.143 6.81151 220.058 8.22241 218.734 10.9884C217.417 13.6269 216.372 16.2175 215.599 18.7125C214.282 22.5786 213.19 26.3888 212.232 30.1193C216.189 24.0771 219.188 18.6647 221.143 13.8979V13.9059Z" fill="#836923" stroke="#836923" stroke-width="0.25" stroke-miterlimit="10"/>
<path d="M222.411 32.3591C222.547 32.2714 222.682 32.2236 222.818 32.2236L222.906 32.2714C223.089 32.3193 223.225 32.4548 223.36 32.678C223.408 32.7656 223.448 32.8613 223.448 32.9968V33.1801C223.448 33.2678 223.448 33.3635 223.4 33.4512C222.579 36.815 222.172 39.2223 222.172 40.6731L222.22 40.9919C222.22 41.3108 222.307 41.4463 222.491 41.4463C222.722 41.4463 223.081 41.2151 223.536 40.8086C224.222 40.131 224.948 39.2143 225.722 38.1701C226.495 37.1259 227.134 36.1693 227.724 35.2128C227.812 35.0773 227.995 34.8461 228.266 34.4396C228.673 33.9374 228.904 33.5787 229.04 33.4432C229.359 33.0765 229.678 32.9012 230.037 32.9012C230.173 32.9012 230.261 32.949 230.356 33.0845C230.444 33.22 230.492 33.3555 230.492 33.5389C230.444 33.6744 230.404 33.8099 230.261 33.9454C230.213 33.9932 230.125 34.0331 230.037 34.0331H229.95L229.862 34.0809C229.862 34.1287 229.591 34.4874 229 35.2208C228.817 35.4918 228.681 35.6751 228.633 35.8106C228.043 36.807 227.357 37.8592 226.583 38.9035C225.809 39.9955 225.036 40.9441 224.262 41.7173C223.855 42.0362 223.536 42.3072 223.265 42.4905C222.81 42.8572 222.403 43.0326 222.036 43.0326C221.901 43.0326 221.805 43.0326 221.717 42.9847C221.127 42.897 220.808 42.076 220.808 40.5296V40.3463C220.808 38.8477 221.215 36.4404 221.988 33.1244C221.988 33.0765 221.988 33.0367 222.036 32.9888C222.172 32.67 222.26 32.4867 222.403 32.3511L222.411 32.3591ZM224.318 28.6764V28.8119C224.318 28.9474 224.318 29.0431 224.27 29.1786C224.238 29.2105 224.222 29.2397 224.222 29.2663V29.4496C224.222 29.5851 224.174 29.7206 224.038 29.8562C223.951 29.9917 223.807 30.0395 223.672 30.0395C223.536 30.0395 223.44 29.9917 223.352 29.8562C223.033 29.5373 222.898 29.2663 222.85 29.0351V28.804C222.85 28.6684 222.898 28.5329 222.985 28.4373C223.121 28.3018 223.257 28.2061 223.392 28.1663C223.624 28.1663 223.847 28.2141 224.03 28.3018C224.166 28.4373 224.262 28.5329 224.302 28.6684L224.318 28.6764Z" fill="#836923" stroke="#836923" stroke-width="0.25" stroke-miterlimit="10"/>
<path d="M231.784 42.6262L231.736 41.9486C231.736 40.6334 232.055 38.7203 232.781 35.9941C231.186 38.6725 228.737 40.3145 228.737 40.3145C228.37 40.5457 228.051 40.6334 227.78 40.6334C227.277 40.6334 227.054 40.179 227.006 39.4536L227.094 38.7283C227.277 37.6362 227.867 36.1376 228.689 34.8224C229.686 33.1883 231.05 31.8252 232.462 31.8252C232.781 31.8252 233.053 31.873 233.372 32.0085C233.603 32.144 233.739 32.4151 233.739 32.6861L233.651 33.0528C233.603 33.1883 233.42 33.2839 233.244 33.2839C233.156 33.2839 233.108 33.2839 233.013 33.2361C232.877 33.1484 232.742 33.1006 232.558 33.1006C231.465 33.1006 229.965 35.1412 229.104 36.9666C228.785 37.6043 228.601 38.1942 228.418 38.6486C228.33 38.9196 228.282 39.1029 228.282 39.2384C228.282 39.3261 228.282 39.3739 228.33 39.4218H228.418L228.649 39.2384C229.607 38.513 231.194 36.7355 233.563 33.2441C233.699 33.0129 233.93 32.8375 234.106 32.7897L234.289 32.7419L234.473 32.7897C234.608 32.8375 234.744 32.9731 234.792 33.1564L234.839 33.4752L234.792 33.7941C233.93 36.8869 233.196 39.9319 233.156 41.7892V41.9725C233.156 42.6979 233.34 43.1124 233.747 43.1124C233.978 43.1124 234.337 42.9769 234.792 42.5704C235.111 42.2994 235.382 42.0682 235.701 41.7494C237.568 39.9319 239.889 36.8391 242.25 33.252C242.338 33.1165 242.482 33.0209 242.617 33.0209L242.888 33.1086C242.976 33.1962 243.072 33.3796 243.072 33.5151C243.072 33.6506 243.024 33.7383 242.984 33.8339C240.025 38.3297 237.121 42.108 235.071 43.6066L234.345 44.1088L234.257 44.1567C233.85 44.3878 233.436 44.4277 233.164 44.4277H232.981C232.343 44.2922 231.888 43.7422 231.8 42.6581L231.784 42.6262Z" fill="#836923" stroke="#836923" stroke-width="0.25" stroke-miterlimit="10"/>
<path d="M238.963 49.0351C238.325 49.0351 237.735 48.7162 237.512 48.0387C237.424 47.7677 237.376 47.4488 237.376 47.0821C237.376 46.3089 237.599 45.3125 238.198 44.085H238.246L238.333 43.9016C239.195 42.0364 240.742 40.2668 242.473 38.537L242.29 37.4449C242.106 36.4007 241.923 35.4442 241.923 34.6311V34.3999C241.923 32.6303 242.465 32.0803 242.92 32.0803C243.327 32.0803 243.694 32.447 243.694 32.8057C243.694 32.9412 243.646 33.0767 243.51 33.1724C243.279 33.4035 243.191 33.7622 243.191 34.2166V34.4876C243.191 35.213 243.327 36.1217 243.51 37.1261L243.598 37.4928C245.688 35.6275 247.1 34.5355 249.007 33.0369L249.23 32.9492C249.413 32.9492 249.549 33.0369 249.637 33.1804C249.685 33.268 249.725 33.3637 249.725 33.4992C249.725 33.6347 249.637 33.818 249.541 33.9057L248.855 34.4079C247.308 35.6355 245.441 37.0862 243.766 38.6805C243.814 39.2704 243.853 39.8602 243.853 40.4501C243.853 43.8618 242.721 46.3089 241.444 47.7198C240.718 48.493 239.897 48.9474 239.219 49.0351H238.948H238.963ZM240.695 46.8988C241.692 45.7191 242.601 43.6306 242.601 40.6255V39.8044C241.101 41.2552 239.873 42.8494 239.147 44.348C239.059 44.4835 239.011 44.4835 239.011 44.5712C238.557 45.6633 238.325 46.4365 238.325 46.9785L238.413 47.5205C238.501 47.7916 238.684 47.8872 238.955 47.8872H239.139C239.594 47.8394 240.136 47.4807 240.687 46.8908L240.695 46.8988Z" fill="#836923" stroke="#836923" stroke-width="0.25" stroke-miterlimit="10"/>
<path d="M253.195 47.0342C253.011 47.0342 252.788 46.8987 252.74 46.6676V46.5321C252.74 46.3009 252.876 46.1255 253.059 46.0299C253.378 45.9422 253.785 45.44 254.016 44.9378C254.064 44.8023 254.152 44.619 254.152 44.4835V44.3001C254.104 44.2523 254.016 44.2124 253.833 44.2124C253.602 44.2124 253.426 44.0291 253.426 43.7581V43.6704C253.426 43.4392 253.61 43.216 253.833 43.216C253.881 43.1682 253.921 43.1682 254.016 43.1682C254.471 43.216 254.79 43.3994 255.014 43.6704C255.149 43.8936 255.197 44.0769 255.197 44.3081V44.5393C255.197 44.8103 255.109 45.0813 254.966 45.4001C254.599 46.1255 253.969 46.8509 253.418 46.9944L253.283 47.0422H253.195V47.0342Z" fill="#836923" stroke="#836923" stroke-width="0.25" stroke-miterlimit="10"/>
<path d="M275.156 54.7104C273.385 54.2561 271.973 53.2119 270.88 51.7531C269.835 50.3024 269.109 48.4371 268.694 46.253C268.375 44.6189 268.192 42.8015 268.192 40.8884C268.192 37.7955 268.598 34.4795 269.332 31.0758C271.558 20.6734 277.517 10.9007 283.611 5.26506C285.973 3.08095 288.342 1.49468 290.567 0.7693C291.525 0.450452 292.434 0.314941 293.343 0.314941C294.572 0.314941 295.752 0.633788 296.758 1.35917C298.209 2.4034 299.398 4.26866 300.076 6.99482L300.164 7.31366C300.483 8.58905 300.706 9.9043 300.802 11.2674C300.89 12.1761 300.938 13.1326 300.938 14.0414C300.938 14.6791 300.938 15.3566 300.89 15.9943C300.89 16.4008 300.802 16.6719 300.658 16.8153C300.515 16.9588 300.427 16.9987 300.291 16.9987C300.108 16.9987 299.924 16.8632 299.789 16.7277C299.653 16.5921 299.558 16.361 299.47 16.1378L299.422 15.7711C299.422 15.4044 299.558 15.0457 299.924 14.7747L300.012 14.7269C300.012 13.587 299.964 12.4551 299.877 11.363C299.741 10.0876 299.558 8.82022 299.286 7.59266C298.6 5.0897 297.555 3.41574 296.287 2.50702C295.378 1.86933 294.38 1.55048 293.288 1.55048C292.514 1.55048 291.74 1.68599 290.926 1.95701C288.836 2.63456 286.563 4.14112 284.289 6.18175C278.426 11.6341 272.691 21.0879 270.553 31.1715C269.827 34.5832 269.42 37.8513 269.42 40.8485C269.42 42.666 269.556 44.3957 269.875 45.9342C270.282 47.9349 270.968 49.7045 271.925 51.0198C272.882 52.335 274.111 53.2437 275.65 53.6582C276.24 53.8416 276.879 53.8894 277.605 53.8894C278.426 53.8894 279.336 53.8017 280.285 53.5706C284.241 52.5263 288.421 49.3458 292.338 45.5754C296.383 41.6217 300.204 36.9905 303.251 33.2121C303.339 33.0766 303.482 33.0288 303.57 33.0288C303.706 33.0288 303.801 33.0766 303.889 33.1643C304.025 33.252 304.073 33.3954 304.073 33.531C304.073 33.6665 304.025 33.802 303.937 33.8976C300.842 37.7158 297.021 42.3471 292.929 46.3008C288.924 50.2067 284.648 53.435 280.556 54.5271L280.189 54.6148C279.192 54.8858 278.235 55.0213 277.365 55.0213C276.544 55.0213 275.818 54.8858 275.14 54.7025L275.156 54.7104Z" fill="#836923" stroke="#836923" stroke-width="0.25" stroke-miterlimit="10"/>
<path d="M300.754 43.0326C300.387 42.5782 300.164 41.8528 300.164 40.7608C300.164 40.3064 300.212 39.8042 300.3 39.2144C300.347 38.8477 300.387 38.5368 300.483 38.218C300.802 36.6715 301.392 35.0853 302.166 33.9932C302.844 32.9012 303.762 32.1758 304.623 32.1758L304.942 32.2236C304.99 32.2236 305.03 32.2236 305.078 32.2714C305.301 32.3193 305.445 32.5903 305.445 32.8135H305.628C305.947 32.8135 306.314 33.0845 306.45 33.8577C306.538 34.3121 306.633 34.7186 306.633 35.173C306.865 35.2606 307.088 35.3085 307.407 35.3085C308.5 35.3085 310.223 34.7186 312.951 33.0367L313.222 32.949C313.358 32.949 313.542 33.0367 313.589 33.22C313.637 33.3077 313.637 33.4033 313.637 33.491C313.637 33.6744 313.55 33.8099 313.406 33.8976C310.63 35.6273 308.723 36.257 307.447 36.257C307.128 36.257 306.857 36.2092 306.625 36.1694C306.442 38.4412 305.445 40.5774 304.352 41.8927L304.216 42.076C303.626 42.7536 303.036 43.2159 302.485 43.4391C302.254 43.5268 302.031 43.5746 301.799 43.5746C301.392 43.5746 301.025 43.3913 300.754 43.0326ZM302.573 42.0362C302.844 41.9485 303.211 41.6695 303.618 41.263C304.711 39.9477 305.66 37.8991 305.708 35.7628C305.437 35.5795 305.253 35.3085 305.118 35.0853C304.934 34.7186 304.886 34.3599 304.886 34.041V33.77C304.886 33.5867 304.934 33.4033 304.974 33.2678H304.743C304.336 33.2678 303.881 33.6744 303.466 34.3997C302.876 35.2606 302.374 36.536 302.102 37.9469L301.919 38.8556C301.871 39.4455 301.831 39.9477 301.831 40.4021C301.831 40.9043 301.879 41.263 301.967 41.534C302.015 41.805 302.102 41.9405 302.198 41.9883L302.382 42.076L302.565 42.0282L302.573 42.0362Z" fill="#836923" stroke="#836923" stroke-width="0.25" stroke-miterlimit="10"/>
<path d="M311.763 41.805C311.763 40.3064 311.898 38.3933 312.265 36.0338C312.401 35.1251 312.768 33.1722 312.768 33.1722C313.454 29.3061 314.499 24.8582 315.767 20.6733C317.131 16.1775 318.767 11.9448 320.45 8.99549C321.766 6.67587 323.178 5.31279 324.175 4.90626C324.446 4.81858 324.678 4.77075 324.901 4.77075C325.124 4.77075 325.356 4.81858 325.539 4.95409C325.762 5.04177 325.946 5.27293 326.082 5.54395H326.129C326.177 5.72729 326.265 5.91063 326.313 6.13383L326.401 6.8592C326.401 7.99909 325.994 9.67304 325.084 11.8093C323.808 14.9021 321.582 19.3102 319.445 23.3516C317.355 27.3053 315.305 30.8924 314.212 32.67C313.94 33.8975 313.757 35.1251 313.573 36.257C313.254 38.4411 313.119 40.123 313.119 41.4383C313.119 43.4391 313.438 44.5311 314.028 44.8898C314.212 44.9775 314.395 45.0253 314.571 45.0253C315.568 45.0253 317.075 43.9333 318.759 42.347C321.216 39.8441 324.031 36.257 326.441 33.1243C326.528 33.0366 326.672 32.941 326.807 32.941C326.895 32.941 326.991 32.9888 327.079 33.0765C327.214 33.1642 327.262 33.2997 327.262 33.483C327.262 33.5707 327.214 33.7062 327.174 33.8019C324.717 36.9346 319.349 43.1601 319.349 43.1601C318.256 44.2521 317.211 45.1608 316.302 45.7507C315.44 46.2928 314.618 46.6116 313.98 46.6116C312.568 46.6116 311.755 45.2485 311.755 41.797L311.763 41.805ZM318.631 22.8574C320.769 18.816 322.994 14.4478 324.271 11.4028C325.132 9.40202 325.451 7.90343 325.451 6.94689L325.404 6.35702C325.356 6.12586 325.22 5.99035 325.084 5.99035L324.765 6.07803C324.446 6.16571 324.087 6.44471 323.672 6.85124C323.034 7.44111 322.356 8.39765 321.622 9.62521C319.987 12.4869 318.392 16.6239 317.028 21.0798C316.166 23.9893 315.392 27.0343 314.754 29.896C315.847 28.0307 317.211 25.5357 318.615 22.8494L318.631 22.8574Z" fill="#836923" stroke="#836923" stroke-width="0.25" stroke-miterlimit="10"/>
<path d="M324.127 43.0326C323.76 42.5782 323.537 41.8528 323.537 40.7608C323.537 40.3064 323.585 39.8042 323.673 39.2144C323.721 38.8477 323.76 38.5368 323.856 38.218C324.175 36.6715 324.766 35.0853 325.539 33.9932C326.225 32.9012 327.135 32.1758 327.996 32.1758L328.315 32.2236C328.363 32.2236 328.403 32.2236 328.451 32.2714C328.682 32.3193 328.818 32.5903 328.818 32.8135H329.001C329.321 32.8135 329.687 33.0845 329.823 33.8577C329.911 34.3121 330.007 34.7186 330.007 35.173C330.238 35.2606 330.461 35.3085 330.78 35.3085C331.873 35.3085 333.596 34.7186 336.324 33.0367L336.596 32.949C336.731 32.949 336.915 33.0367 336.963 33.22C337.01 33.3077 337.01 33.4033 337.01 33.491C337.01 33.6744 336.923 33.8099 336.779 33.8976C334.003 35.6273 332.097 36.257 330.82 36.257C330.501 36.257 330.23 36.2092 329.999 36.1694C329.815 38.4412 328.818 40.5774 327.725 41.8927L327.589 42.076C326.999 42.7536 326.409 43.2159 325.858 43.4391C325.627 43.5268 325.404 43.5746 325.18 43.5746C324.774 43.5746 324.407 43.3913 324.135 43.0326H324.127ZM325.946 42.0362C326.217 41.9485 326.584 41.6695 326.991 41.263C328.084 39.9477 329.041 37.8991 329.081 35.7628C328.81 35.5795 328.627 35.3085 328.491 35.0853C328.307 34.7186 328.26 34.3599 328.26 34.041V33.77C328.26 33.5867 328.307 33.4033 328.347 33.2678H328.116C327.709 33.2678 327.254 33.6744 326.84 34.3997C326.249 35.2606 325.747 36.536 325.476 37.9469L325.292 38.8556C325.244 39.4455 325.204 39.9477 325.204 40.4021C325.204 40.9043 325.252 41.263 325.34 41.534C325.388 41.805 325.476 41.9405 325.571 41.9883L325.755 42.076L325.938 42.0282L325.946 42.0362Z" fill="#836923" stroke="#836923" stroke-width="0.25" stroke-miterlimit="10"/>
<path d="M334.537 43.3516C334.537 42.9451 334.585 42.3951 334.673 41.7175C334.944 38.9435 335.989 33.9934 336.356 32.4948C336.444 32.176 336.763 31.9927 337.042 31.9927C337.361 31.9927 337.68 32.176 337.68 32.5347L337.632 32.7659C337.225 34.2644 336.18 38.9435 335.861 41.582C335.813 41.7175 335.813 41.853 335.813 41.9885L336.946 39.8044C338.494 36.8471 340.217 33.5311 342.083 30.8528C342.626 30.0796 343.128 29.5375 343.583 29.2585C343.767 29.1708 343.902 29.0752 344.086 29.0752L344.357 29.1629C344.628 29.2506 344.812 29.4817 344.899 29.8883C344.987 30.1194 344.987 30.4303 344.987 30.8847C344.987 31.2912 344.987 31.7934 344.899 32.4311L344.851 32.7021C344.716 33.7942 344.126 38.1066 343.854 40.8805C344.899 39.1109 345.992 37.3812 347.269 35.8348C348.042 34.9261 348.768 34.2405 349.406 34.105L349.773 34.0572C350.412 34.0572 350.906 34.5594 351.185 35.7869C351.728 38.8319 352.182 40.6972 352.781 41.7414C353.148 42.419 353.555 42.698 354.097 42.698L354.599 42.6502C356.554 41.9248 359.513 38.6088 361.922 35.8826C363.015 34.7029 363.973 33.6108 364.738 32.9253C364.826 32.8376 364.922 32.7898 365.057 32.7898C365.145 32.7898 365.281 32.8376 365.377 32.9731C365.464 33.0608 365.512 33.2043 365.512 33.292C365.512 33.4753 365.424 33.6108 365.329 33.6985C364.603 34.3362 363.646 35.4282 362.601 36.608C360.104 39.382 357.056 42.7857 354.919 43.6067L354.512 43.6944C354.193 43.7821 353.921 43.8299 353.65 43.8299C352.829 43.8299 352.198 43.4234 351.648 42.5146C351.058 41.3748 350.555 39.5175 349.965 36.3768C349.829 35.6913 349.646 35.4681 349.375 35.4681H349.327C347.915 35.7869 345.37 40.2429 344.054 42.4668C343.783 42.969 343.551 43.3277 343.376 43.6067C343.328 43.6944 343.192 43.79 343.009 43.79H342.921C342.69 43.79 342.554 43.5589 342.554 43.3357V43.2002C342.554 41.3827 343.511 34.2963 343.687 32.8854L343.735 32.6144L343.918 30.7491C343.918 30.526 343.87 30.4303 343.83 30.4303C343.511 30.4303 343.009 31.2513 342.833 31.4745C340.927 34.2007 339.379 37.2457 337.744 40.2907C337.154 41.4704 336.611 42.5146 336.196 43.248L335.925 43.7024C335.654 44.1567 335.199 44.3401 335.064 44.3401C334.745 44.3401 334.609 43.9734 334.561 43.3437L334.537 43.3516Z" fill="#836923" stroke="#836923" stroke-width="0.25" stroke-miterlimit="10"/>
<path d="M362.912 50.6692V50.167L362.999 49.2582C363.135 48.5727 363.406 47.8075 363.773 46.9386C365.089 44.1646 367.865 40.5776 372.596 37.4449C372.915 36.2174 373.098 35.1253 373.098 34.2644V33.9456C373.098 33.1245 372.963 32.4948 372.731 32.0404C372.548 31.7216 372.277 31.4984 371.958 31.4984H371.774C371.591 31.4984 371.367 31.5462 371.136 31.6817C370.769 31.9049 370.41 32.1361 370.003 32.5426L369.955 32.5905C368.456 34.0014 366.637 36.6797 364.77 40.9044C364.722 41.0399 364.587 41.1754 364.451 41.1754H364.363C364.092 41.1754 363.909 40.9443 363.909 40.6733C364.73 22.6344 368.001 12.6784 370.913 8.58917C372.141 6.90724 373.274 6.13403 374.231 6.13403C374.454 6.13403 374.686 6.18186 374.909 6.26954C375.364 6.40505 375.731 6.95507 375.731 6.95507C376.273 7.63262 376.592 8.82033 376.592 10.5023V10.8211C376.409 15.4524 373.545 23.5431 365.544 32.997C365.408 34.5434 365.273 36.1775 365.177 37.8594C366.31 35.6753 367.682 33.4035 369.405 31.7694C369.772 31.3629 370.179 31.044 370.586 30.8129L370.905 30.6295C371.359 30.3984 371.766 30.3107 372.181 30.3107C372.636 30.3107 373.042 30.4462 373.362 30.7172C373.952 31.2194 374.319 32.1281 374.407 33.3557V33.9456C374.407 34.6709 374.359 35.5398 374.135 36.4485C376.361 35.1333 378.953 33.9456 381.953 32.9492L382.136 32.9013C382.32 32.9013 382.503 33.0368 382.543 33.3079L382.591 33.4434C382.591 33.6666 382.455 33.8499 382.224 33.8977C378.946 35.0376 376.13 36.3529 373.808 37.8036C373.035 40.482 371.583 43.798 369.213 47.4807C367.347 50.3423 365.799 51.7054 364.754 52.0243C364.523 52.0721 364.347 52.1119 364.164 52.1119C363.438 52.1119 362.983 51.5699 362.888 50.6612L362.912 50.6692ZM364.818 50.6213C365.592 50.2547 366.685 49.1706 368.089 47.0741C370.043 44.0291 371.359 41.2552 372.133 38.9435C368.176 41.8052 365.767 44.9379 364.587 47.393C364.22 48.1662 363.996 48.8916 363.901 49.4416L363.853 49.9836C363.853 50.2148 363.901 50.3902 363.941 50.5257C364.028 50.6134 364.076 50.709 364.212 50.709H364.347L364.802 50.6213H364.818ZM375.643 10.7653V10.2233C375.643 8.99569 375.412 8.08698 375.053 7.58479L374.734 7.40145L374.502 7.35363C374 7.35363 373.409 7.7203 372.731 8.39785C371.822 9.3544 370.865 10.9008 369.915 13.1248C368.232 16.9908 366.645 22.8975 365.727 31.2593C372.915 22.4431 375.507 15.0379 375.643 10.7653Z" fill="#836923" stroke="#836923" stroke-width="0.25" stroke-miterlimit="10"/>
<path d="M382.057 32.3591C382.192 32.2714 382.328 32.2236 382.463 32.2236L382.551 32.2714C382.735 32.3193 382.87 32.4548 383.006 32.678C383.054 32.7656 383.094 32.8613 383.094 32.9968V33.1801C383.094 33.2678 383.094 33.3635 383.046 33.4512C382.224 36.815 381.817 39.2223 381.817 40.6731L381.865 40.9919C381.865 41.3108 381.953 41.4463 382.136 41.4463C382.368 41.4463 382.727 41.2151 383.181 40.8086C383.867 40.131 384.593 39.2143 385.367 38.1701C386.141 37.1259 386.779 36.1693 387.369 35.2128C387.457 35.0773 387.64 34.8461 387.912 34.4396C388.319 33.9374 388.55 33.5787 388.685 33.4432C389.005 33.0765 389.324 32.9012 389.683 32.9012C389.818 32.9012 389.914 32.949 390.002 33.0845C390.089 33.22 390.137 33.3555 390.137 33.5389C390.089 33.6744 390.05 33.8099 389.914 33.9454C389.866 33.9932 389.778 34.0331 389.683 34.0331H389.595L389.507 34.0809C389.507 34.1287 389.236 34.4874 388.646 35.2208C388.462 35.4918 388.327 35.6751 388.279 35.8106C387.688 36.807 387.002 37.8592 386.229 38.9035C385.455 39.9955 384.681 40.9441 383.907 41.7173C383.5 42.0362 383.181 42.3072 382.91 42.4905C382.455 42.8572 382.049 43.0326 381.682 43.0326C381.546 43.0326 381.45 43.0326 381.363 42.9847C380.772 42.897 380.453 42.076 380.453 40.5296V40.3463C380.453 38.8477 380.86 36.4404 381.634 33.1244C381.634 33.0765 381.634 33.0367 381.682 32.9888C381.817 32.67 381.913 32.4867 382.049 32.3511L382.057 32.3591ZM383.963 28.6764V28.8119C383.963 28.9474 383.963 29.0431 383.915 29.1786C383.883 29.2105 383.867 29.2397 383.867 29.2663V29.4496C383.867 29.5851 383.819 29.7206 383.684 29.8562C383.596 29.9917 383.453 30.0395 383.317 30.0395C383.181 30.0395 383.086 29.9917 382.998 29.8562C382.679 29.5373 382.543 29.2663 382.495 29.0351V28.804C382.495 28.6684 382.543 28.5329 382.631 28.4373C382.766 28.3018 382.902 28.2061 383.038 28.1663C383.269 28.1663 383.492 28.2141 383.676 28.3018C383.811 28.4373 383.907 28.5329 383.947 28.6684L383.963 28.6764Z" fill="#836923" stroke="#836923" stroke-width="0.25" stroke-miterlimit="10"/>
<path d="M391.422 42.6262L391.374 41.9486C391.374 40.6334 391.693 38.7203 392.419 35.9941C390.824 38.6725 388.375 40.3145 388.375 40.3145C388.008 40.5457 387.689 40.6334 387.417 40.6334C386.915 40.6334 386.692 40.179 386.644 39.4536L386.731 38.7283C386.915 37.6362 387.505 36.1376 388.327 34.8224C389.324 33.1883 390.688 31.8252 392.1 31.8252C392.419 31.8252 392.69 31.873 393.009 32.0085C393.241 32.144 393.376 32.4151 393.376 32.6861L393.289 33.0528C393.241 33.1883 393.065 33.2839 392.882 33.2839C392.794 33.2839 392.746 33.2839 392.65 33.2361C392.515 33.1484 392.379 33.1006 392.196 33.1006C391.103 33.1006 389.603 35.1412 388.742 36.9666C388.423 37.6043 388.239 38.1942 388.056 38.6486C387.968 38.9196 387.92 39.1029 387.92 39.2384C387.92 39.3261 387.92 39.3739 387.968 39.4218H388.056L388.287 39.2384C389.244 38.513 390.832 36.7355 393.201 33.2441C393.336 33.0129 393.568 32.8375 393.743 32.7897L393.927 32.7419L394.11 32.7897C394.246 32.8375 394.381 32.9731 394.429 33.1564L394.477 33.4752L394.429 33.7941C393.568 36.8869 392.834 39.9319 392.794 41.7892V41.9725C392.794 42.6979 392.977 43.1124 393.384 43.1124C393.616 43.1124 393.975 42.9769 394.429 42.5704C394.748 42.2994 395.02 42.0682 395.339 41.7494C397.205 39.9319 399.527 36.8391 401.888 33.252C401.976 33.1165 402.119 33.0209 402.255 33.0209L402.526 33.1086C402.614 33.1962 402.71 33.3796 402.71 33.5151C402.71 33.6506 402.662 33.7383 402.622 33.8339C399.662 38.3297 396.759 42.108 394.709 43.6066L393.983 44.1088L393.895 44.1567C393.488 44.3878 393.073 44.4277 392.802 44.4277H392.619C391.98 44.2922 391.526 43.7422 391.438 42.6581L391.422 42.6262Z" fill="#836923" stroke="#836923" stroke-width="0.25" stroke-miterlimit="10"/>
</svg>
