<svg width="62" height="52" viewBox="0 0 62 52" fill="none" xmlns="http://www.w3.org/2000/svg">
<path d="M4.04789 33.7344C4.04789 28.7277 4.04011 23.7211 4.05566 18.7144C4.05566 18.2324 3.9235 17.9914 3.46481 17.7815C1.91772 17.0973 1.05476 15.8534 1.03144 14.1742C0.977018 10.1859 1.00812 6.18989 1.01589 2.20165C1.01589 1.54083 1.28799 1.17543 1.79333 1.05104C2.36085 0.911102 2.88951 1.29982 2.96725 1.94509C3.0139 2.31826 2.99058 2.6992 2.99058 3.08015C2.99058 5.21032 2.99835 7.34827 2.99058 9.47844C2.99058 9.88271 3.05277 10.1237 3.54256 10.1159C4.02457 10.1082 4.04789 9.85161 4.04789 9.48622C4.04011 7.13836 4.04789 4.79051 4.04789 2.43488C4.04789 1.50973 4.38219 1.02772 5.01968 1.01217C5.67273 0.99662 6.02257 1.50195 6.02257 2.4582C6.02257 4.80605 6.03035 7.15391 6.0148 9.50177C6.0148 9.9449 6.14696 10.1237 6.60565 10.1004C6.9555 10.0848 7.07989 9.9449 7.07989 9.60283C7.07211 8.62326 7.07989 7.65147 7.07989 6.6719C7.07989 5.24142 7.07989 3.81871 7.07989 2.38823C7.07989 2.13168 7.07989 1.8829 7.17318 1.64189C7.33644 1.22208 7.65519 1.00439 8.09055 1.01217C8.50259 1.01994 8.80579 1.22985 8.96906 1.62634C9.07012 1.8829 9.07012 2.155 9.07012 2.4271C9.07012 4.77496 9.0779 7.12281 9.06235 9.47067C9.06235 9.89048 9.15564 10.1082 9.62988 10.0926C10.073 10.0848 10.1274 9.85938 10.1197 9.50954C10.1119 7.44933 10.1197 5.38913 10.1197 3.32893C10.1197 2.93243 10.1119 2.53594 10.1274 2.13945C10.1508 1.43976 10.5395 1.00439 11.1148 1.00439C11.6823 1.00439 12.0943 1.44753 12.1021 2.13945C12.1177 4.07526 12.1099 6.0033 12.1099 7.93912C12.1099 9.90603 12.1177 11.8807 12.1099 13.8476C12.1021 15.729 11.2703 17.1051 9.50549 17.8436C9.11677 18.0069 9.07012 18.2479 9.07012 18.5978C9.0779 21.1788 9.07012 23.7677 9.07012 26.3488C9.07012 33.7966 9.07012 41.2367 9.07012 48.6845C9.07012 50.2005 8.32378 51.1956 7.01769 51.4677C5.4706 51.7865 4.07899 50.597 4.06344 48.8944C4.04789 46.9431 4.05566 44.9917 4.05566 43.0403C4.04789 39.9461 4.04789 36.8364 4.04789 33.7344ZM6.03035 33.75C6.03035 38.6789 6.03035 43.6156 6.03812 48.5524C6.03812 48.9488 5.87486 49.5319 6.54346 49.5397C7.21983 49.5552 7.07989 48.9799 7.07989 48.5757C7.08766 43.3746 7.08766 38.1658 7.08766 32.9648C7.08766 28.2457 7.07989 23.5345 7.09544 18.8154C7.09544 18.349 6.99437 18.1157 6.46571 18.1468C5.93706 18.1779 6.03812 18.5433 6.03812 18.8465C6.03035 23.8144 6.03035 28.7822 6.03035 33.75ZM6.59788 12.0829C5.57166 12.0829 4.53767 12.0906 3.51146 12.0751C3.15384 12.0673 2.97503 12.1839 2.99058 12.5726C3.00613 13.1324 2.9828 13.6921 3.00612 14.2519C3.045 15.3092 3.85353 16.1333 4.91862 16.1566C6.02257 16.1799 7.11876 16.1799 8.22272 16.1566C9.28003 16.1255 10.0808 15.3014 10.1197 14.2363C10.1352 13.6921 10.1119 13.1557 10.1352 12.6115C10.1508 12.2072 9.9875 12.0673 9.591 12.0751C8.58811 12.0906 7.593 12.0829 6.59788 12.0829Z" fill="#836923" stroke="#836923" stroke-width="0.5"/>
<path d="M31.3338 45.4816C20.6285 45.3572 12.1311 36.9065 12.1622 26.2167C12.1933 15.5348 20.7295 7.06071 31.3804 7.08403C42.0624 7.10736 50.5442 15.6436 50.5286 26.2945C50.5131 36.9687 42.0235 45.365 31.3338 45.4816ZM14.1213 26.2867C14.1213 35.8181 21.7791 43.4913 31.3027 43.4991C40.8807 43.5069 48.5695 35.8258 48.5695 26.2556C48.5695 16.7087 40.8884 9.04317 31.326 9.05095C21.7713 9.05095 14.1136 16.7165 14.1213 26.2867Z" fill="#836923" stroke="#836923" stroke-width="0.5"/>
<path d="M52.938 25.5944C52.938 17.9911 52.938 10.3878 52.938 2.77666C52.938 2.57453 52.9303 2.38017 52.938 2.17804C52.9691 1.30731 53.4589 0.903043 54.3219 1.01966C55.7834 1.20624 56.8485 2.03032 57.7193 3.14983C59.2275 5.09342 59.9738 7.37131 60.4636 9.74248C60.8445 11.585 61 13.4509 61 15.34C60.9923 20.7043 61 26.0686 61 31.4329C61 32.6224 60.7124 32.9101 59.5385 32.9178C59.2275 32.9178 58.9243 32.9489 58.6211 32.9101C58.0769 32.8479 57.9603 33.0889 57.9603 33.5942C57.9758 38.6553 57.968 43.7086 57.968 48.7697C57.968 49.7571 57.6493 50.5812 56.7941 51.1332C55.1693 52.1827 53.1013 51.0943 52.9536 49.1118C52.938 48.8941 52.9458 48.6765 52.9458 48.4588C52.938 40.8399 52.938 33.221 52.938 25.5944ZM54.9205 17.1126C54.9205 21.5206 54.9283 25.9287 54.9127 30.3368C54.9127 30.8499 55.0527 31.0364 55.5813 31.0131C56.522 30.9742 57.4627 30.982 58.3956 31.0131C58.8776 31.0287 59.0176 30.8654 59.0176 30.3912C59.002 24.8481 59.0253 19.2972 58.9865 13.7541C58.9709 11.5539 58.5589 9.40819 57.797 7.34021C57.2839 5.95637 56.6308 4.65028 55.5113 3.63962C55.3636 3.50745 55.2081 3.282 55.0293 3.34419C54.8116 3.42193 54.9283 3.69404 54.9283 3.88062C54.9205 8.29645 54.9205 12.7045 54.9205 17.1126ZM55.97 41.1664C55.97 38.6242 55.9545 36.0742 55.9778 33.532C55.9856 33.0034 55.7757 32.8867 55.3014 32.9178C54.7961 32.9489 54.9127 33.3143 54.9127 33.5864C54.9049 38.6242 54.9049 43.662 54.9127 48.6998C54.9127 48.863 54.9127 49.0263 54.9438 49.1818C54.9905 49.4228 55.1693 49.5472 55.4103 49.555C55.6746 49.5627 55.8767 49.4539 55.9312 49.1818C55.97 48.9874 55.9622 48.7853 55.9622 48.5909C55.97 46.1187 55.97 43.6387 55.97 41.1664Z" fill="#836923" stroke="#836923" stroke-width="0.5"/>
<path d="M46.4594 26.2859C46.4594 34.6589 39.7112 41.3681 31.3071 41.3759C22.9964 41.3837 16.186 34.5267 16.2327 26.1926C16.2871 17.8585 23.0041 11.1492 31.3927 11.157C39.7268 11.1648 46.4594 17.9285 46.4594 26.2859ZM31.3616 13.0773C24.1081 13.0773 18.1607 19.0091 18.1607 26.247C18.1607 33.5083 24.077 39.4556 31.3149 39.4634C38.5839 39.4712 44.5469 33.5238 44.5469 26.2626C44.5391 19.0169 38.5995 13.0773 31.3616 13.0773Z" fill="#836923" stroke="#836923" stroke-width="0.5"/>
</svg>
