<svg width="60" height="56" viewBox="0 0 60 56" fill="none" xmlns="http://www.w3.org/2000/svg">
<path d="M29.9904 55.0952C20.8691 55.0952 11.7478 55.0952 2.62655 55.0952C2.36024 55.0952 2.09393 55.1035 1.83593 55.0536C1.31163 54.9537 1.0037 54.6292 1.0037 54.0716C1.0037 52.224 0.995376 50.3764 1.0037 48.5289C1.0037 47.8797 1.35324 47.5385 2.02735 47.4969C2.51837 47.4636 3.00938 47.4803 3.5004 47.4886C3.80833 47.4969 3.94981 47.3554 3.93316 47.0475C3.92484 46.9143 3.93316 46.7812 3.93316 46.648C3.93316 36.6945 3.93316 26.7493 3.94148 16.7958C3.94148 16.3297 3.85826 15.922 3.60859 15.5142C3.10093 14.6902 3.00106 13.7665 2.90951 12.8177C2.74307 11.1449 3.2757 9.84665 4.37425 8.57333C6.29671 6.35126 8.05272 3.98772 9.85867 1.66579C10.2165 1.20806 10.6243 1 11.2069 1C23.7403 1.00832 36.2738 1.00832 48.8072 1C49.3898 1 49.8059 1.21638 50.1554 1.66579C52.3359 4.45377 54.533 7.24176 56.7301 10.0214C56.9465 10.2961 57.0879 10.5873 57.0713 10.9535C57.0214 11.9855 57.1712 13.0258 56.9631 14.0494C56.8716 14.4988 56.7634 14.9482 56.4971 15.3144C56.0976 15.872 56.056 16.4796 56.056 17.137C56.0643 26.974 56.0643 36.811 56.0643 46.648C56.0643 47.4803 56.0643 47.4719 56.9049 47.4803C57.2794 47.4803 57.6622 47.4636 58.0367 47.4969C58.6692 47.5552 58.9938 47.9047 58.9938 48.5372C59.0021 50.3681 59.0021 52.1907 58.9938 54.0216C58.9938 54.6541 58.6692 54.9953 58.045 55.0786C57.8037 55.1119 57.554 55.0952 57.3126 55.0952C48.1997 55.0952 39.095 55.0952 29.9904 55.0952ZM54.1585 32.5167C54.1585 27.748 54.1585 22.9793 54.1668 18.2106C54.1668 17.7862 54.1585 17.6197 53.6259 17.7945C51.4371 18.4852 49.448 18.144 47.8169 16.4379C47.4673 16.0718 47.2926 16.13 46.9763 16.4629C44.8042 18.7099 41.2921 18.7016 39.1034 16.4463C38.8038 16.1383 38.6373 16.0801 38.3044 16.4213C36.0574 18.7349 32.6203 18.7266 30.3566 16.4047C30.0487 16.0884 29.8905 16.1134 29.5993 16.413C27.3689 18.7016 23.8985 18.7183 21.693 16.4379C21.3518 16.0884 21.177 16.1134 20.8525 16.4463C18.672 18.7016 15.1683 18.7016 12.9879 16.4379C12.655 16.0884 12.4802 16.105 12.1473 16.4463C10.5411 18.1107 8.59367 18.4519 6.43819 17.8361C5.81401 17.6613 5.82233 17.6364 5.82233 18.2855C5.82233 24.6022 5.82233 30.9105 5.82233 37.2271C5.82233 40.4312 5.83066 43.6353 5.81401 46.8394C5.81401 47.3388 5.96381 47.4969 6.45483 47.4886C8.18588 47.4636 9.92525 47.4719 11.6563 47.4803C12.0641 47.4803 12.2305 47.3388 12.2222 46.9227C12.2056 46.0571 12.2139 45.1916 12.2139 44.3178C12.2139 43.2941 12.2139 43.2941 11.1986 43.111C9.57571 42.8198 8.64361 41.9209 8.4189 40.2814C8.1942 38.6419 8.4189 37.0524 9.08469 35.5294C9.40926 34.7887 9.54242 34.0314 9.38429 33.2158C9.23449 32.4335 8.95153 31.6928 8.64361 30.9687C8.35232 30.2946 8.06936 29.6205 7.98614 28.8715C7.88627 27.9977 8.18588 27.3236 8.95153 26.8658C9.42591 26.5829 9.95021 26.4247 10.4662 26.2583C10.7492 26.1668 11.0238 26.0669 11.0737 25.6757C11.1486 25.0599 11.5647 24.702 12.1307 24.5689C12.8297 24.4024 13.5538 24.4191 14.2612 24.5522C14.7938 24.6521 15.185 24.9933 15.3181 25.5426C15.443 26.0835 15.7925 26.3249 16.2918 26.4331C16.5332 26.483 16.7662 26.5496 16.9992 26.6162C18.0478 26.9491 18.4973 27.6814 18.3974 28.7633C18.2809 29.9701 17.7399 31.0353 17.3155 32.1422C16.8994 33.2241 16.7995 34.331 17.2739 35.3879C17.9313 36.8443 18.0978 38.3423 18.0312 39.9069C17.9646 41.5464 17.1157 42.6283 15.5179 43.0278C15.2432 43.0944 14.9686 43.1693 14.6856 43.1776C14.2445 43.1859 14.1696 43.4106 14.1696 43.7935C14.1863 44.8088 14.1946 45.8324 14.1696 46.8478C14.153 47.3138 14.3194 47.4719 14.7855 47.4636C16.5914 47.447 18.4057 47.4553 20.2117 47.4553C21.0106 47.4553 21.0106 47.4553 21.0106 46.6397C21.0106 39.0414 21.0106 31.4514 21.0106 23.8531C21.0106 23.6451 21.0023 23.437 21.0189 23.229C21.0689 22.7213 21.3435 22.3884 21.8512 22.2969C22.0509 22.2553 22.259 22.2469 22.467 22.2469C27.4771 22.2469 32.4954 22.2469 37.5055 22.2469C37.6886 22.2469 37.88 22.2553 38.0714 22.2885C38.604 22.3801 38.8953 22.713 38.9369 23.2539C38.9536 23.462 38.9452 23.6701 38.9452 23.8781C38.9452 31.4931 38.9452 39.108 38.9452 46.7146C38.9452 47.0974 38.8787 47.4636 39.4862 47.4553C41.4087 47.4303 43.3311 47.4387 45.2536 47.447C45.6364 47.447 45.7945 47.3138 45.7862 46.9227C45.7696 45.9073 45.7612 44.8837 45.7945 43.8684C45.8112 43.3607 45.6614 43.1776 45.1287 43.1859C43.6973 43.2192 42.2659 43.2026 40.8344 43.1943C39.9273 43.1859 39.5361 42.67 39.7608 41.7795C39.8441 41.4549 39.9522 41.1303 40.0854 40.8224C40.9759 38.7418 42.0245 36.7361 43.2479 34.8303C43.6723 34.1728 43.9303 33.4987 43.8721 32.7081C43.8471 32.3419 43.7223 32.2504 43.3811 32.3419C42.7319 32.525 42.1077 32.3336 41.5002 32.1256C40.9925 31.9508 40.7512 31.5097 40.8927 31.002C41.2089 29.8619 41.5501 28.7134 42.0911 27.6565C42.6071 26.6411 43.3478 25.9171 44.5878 25.9088C44.9706 25.9088 45.162 25.6841 45.2036 25.3096C45.2619 24.727 45.6447 24.5023 46.169 24.469C46.6351 24.444 47.1095 24.469 47.5838 24.4607C48.183 24.444 48.5659 24.7103 48.699 25.2846C48.7906 25.6924 49.0153 25.8672 49.4147 25.9587C50.48 26.2167 51.3622 26.7743 51.9364 27.7314C52.6022 28.8465 52.7936 30.0949 52.8352 31.3682C52.8519 31.9508 52.4607 32.3086 51.8698 32.3336C51.4204 32.3586 50.9627 32.3669 50.5133 32.3336C50.0223 32.3003 49.8891 32.525 49.9141 32.9744C49.9474 33.6569 50.2387 34.2394 50.5632 34.822C51.7866 37.0108 52.985 39.2079 53.7174 41.6297C54.0253 42.67 53.6259 43.1943 52.5523 43.1943C51.1541 43.2026 49.7643 43.2109 48.3661 43.1859C47.9084 43.1776 47.7253 43.3191 47.742 43.7935C47.7669 44.7921 47.7669 45.7908 47.742 46.7895C47.7253 47.2805 47.8918 47.4553 48.3911 47.447C50.0472 47.422 51.7117 47.4387 53.3679 47.4387C54.1502 47.4387 54.1502 47.4387 54.1502 46.673C54.1585 41.9792 54.1585 37.2521 54.1585 32.5167ZM37.0061 35.854C37.0061 32.2337 37.0061 28.6218 37.0061 25.0016C37.0061 24.236 37.0061 24.236 36.2738 24.236C32.096 24.236 27.9098 24.2443 23.732 24.2276C23.1744 24.2276 22.983 24.3691 22.983 24.9517C22.9996 32.2254 22.9996 39.4908 22.983 46.7645C22.983 47.3471 23.1744 47.4969 23.732 47.4969C27.8932 47.4803 32.0543 47.4886 36.2155 47.4886C37.0061 47.4886 37.0061 47.4886 37.0061 46.7146C37.0061 43.0861 37.0061 39.4742 37.0061 35.854ZM29.9987 49.4443H14.4443C10.8074 49.4443 7.17055 49.4527 3.53369 49.436C3.05099 49.436 2.85958 49.5692 2.88455 50.0768C2.92616 50.8092 2.89287 51.5499 2.89287 52.2823C2.89287 53.1311 2.89287 53.1311 3.76672 53.1311C21.252 53.1311 38.7455 53.1311 56.2307 53.1311C56.3223 53.1311 56.4222 53.1228 56.5137 53.1311C56.9465 53.1811 57.1212 53.0146 57.1046 52.5569C57.0713 51.7829 57.0963 51.0089 57.0963 50.235C57.0963 49.4443 57.0963 49.4443 56.2807 49.4443C47.5173 49.4443 38.7538 49.4443 29.9987 49.4443ZM13.2625 41.2468V41.2552C13.5039 41.2552 13.7535 41.2552 13.9949 41.2552C14.2612 41.2552 14.5192 41.2635 14.7855 41.2385C15.5844 41.1719 15.9589 40.8058 16.0838 40.0151C16.2752 38.7501 16.0921 37.5267 15.5844 36.3699C14.8271 34.6389 14.902 32.9328 15.6094 31.2184C15.884 30.561 16.1254 29.8868 16.3917 29.2211C16.5914 28.73 16.4749 28.472 15.934 28.3222C14.9769 28.0559 14.0947 27.6648 13.6037 26.6911C13.4373 26.3582 13.0295 26.3665 12.8381 26.6994C12.3138 27.6148 11.4815 28.0975 10.4995 28.3389C9.99183 28.4637 9.9086 28.755 10.0501 29.1711C10.2332 29.7037 10.4579 30.2197 10.6659 30.7524C11.34 32.4501 11.7645 34.1895 10.9988 35.9621C10.4745 37.1855 10.2665 38.4422 10.333 39.7571C10.383 40.7475 10.7492 41.1636 11.7312 41.2385C12.2389 41.2801 12.7548 41.2468 13.2625 41.2468ZM43.5059 29.296C44.5379 28.8133 45.0455 29.0546 45.3035 30.0616C45.445 30.6275 45.5781 31.1934 45.703 31.7677C46.0026 33.1159 45.8694 34.4059 45.0955 35.5627C43.9969 37.1939 43.1563 38.9665 42.2742 40.7142C42.0162 41.2385 42.0328 41.2635 42.6237 41.2718C45.3701 41.2718 48.1248 41.2718 50.8795 41.2718C51.5952 41.2718 51.6035 41.2468 51.3622 40.581C50.7796 38.9748 49.8891 37.5267 49.007 36.0787C47.8751 34.2061 47.6671 32.317 48.6408 30.3279C48.8239 29.9534 48.9653 29.5539 49.3149 29.3043C49.706 29.0213 50.1138 29.1711 50.5632 29.3875C50.247 28.4388 49.6644 27.9394 48.7656 27.8395C47.9251 27.748 47.2093 27.515 47.0262 26.5496C47.0262 26.5329 46.9597 26.5329 46.9097 26.508C46.5852 27.2653 45.9776 27.7646 45.187 27.7813C44.18 27.8229 43.8471 28.4554 43.5059 29.296ZM29.05 6.40952C29.05 5.42748 29.0417 4.45377 29.0583 3.47173C29.0666 3.11387 28.9418 2.96407 28.5673 2.96407C27.3273 2.98072 26.0789 2.97239 24.8389 2.96407C24.506 2.96407 24.3312 3.06394 24.2397 3.41348C23.732 5.38587 23.2077 7.34995 22.6834 9.31402C22.5918 9.66356 22.6335 9.83832 23.0579 9.83C24.8888 9.81336 26.7114 9.81336 28.5423 9.83C28.9335 9.83 29.075 9.6802 29.0666 9.29737C29.0417 8.33198 29.05 7.37491 29.05 6.40952ZM30.9392 6.4012C30.9392 7.34162 30.9641 8.29037 30.9308 9.23079C30.9142 9.71349 31.0973 9.84665 31.555 9.83832C33.3277 9.82168 35.1003 9.82168 36.873 9.83832C37.3307 9.84665 37.4223 9.70517 37.3141 9.27241C36.7898 7.34995 36.2821 5.41916 35.7828 3.48006C35.6829 3.09723 35.5081 2.95575 35.117 2.96407C33.9102 2.98072 32.7035 2.98072 31.4967 2.96407C31.089 2.95575 30.9225 3.08891 30.9308 3.51335C30.9558 4.47874 30.9392 5.43581 30.9392 6.4012ZM17.3654 9.82168C18.2726 9.82168 19.1714 9.81336 20.0785 9.83C20.4197 9.83832 20.5945 9.70517 20.6777 9.3806C21.1854 7.4082 21.693 5.44413 22.2173 3.48006C22.3255 3.08059 22.1757 2.97239 21.8012 2.97239C20.5945 2.98072 19.3877 2.98072 18.181 2.97239C17.898 2.97239 17.7316 3.08891 17.6068 3.33026C16.5498 5.35258 15.4929 7.36659 14.4193 9.3806C14.2279 9.74678 14.3278 9.83832 14.7023 9.83C15.5928 9.81336 16.4749 9.83 17.3654 9.82168ZM42.5571 9.83C43.4809 9.83 44.4047 9.82168 45.3285 9.83C45.6863 9.83832 45.7612 9.73013 45.5865 9.40556C44.5212 7.39156 43.456 5.37755 42.399 3.35522C42.2575 3.08891 42.0828 2.97239 41.7748 2.97239C40.5847 2.98072 39.403 2.98072 38.2129 2.97239C37.8134 2.97239 37.6719 3.08059 37.7801 3.51335C38.3044 5.46077 38.8121 7.4082 39.3114 9.35563C39.403 9.70517 39.5777 9.84665 39.9439 9.83832C40.8178 9.81336 41.6916 9.82168 42.5571 9.83ZM50.9877 9.83C51.8366 9.83 52.6854 9.83 53.526 9.83C53.6675 9.83 53.8589 9.9049 53.9338 9.73013C53.992 9.59698 53.8422 9.49711 53.7673 9.39724C52.1694 7.37491 50.5716 5.35258 48.982 3.32193C48.7906 3.07226 48.5742 2.97239 48.2663 2.97239C47.1594 2.98072 46.0442 2.98904 44.9373 2.97239C44.5462 2.96407 44.413 3.03897 44.6294 3.43845C45.6947 5.42748 46.7433 7.42485 47.7836 9.43053C47.9334 9.72181 48.1331 9.83832 48.4494 9.83832C49.2899 9.81336 50.1388 9.82168 50.9877 9.83ZM9.00979 9.82168C9.85867 9.82168 10.7075 9.81336 11.5564 9.82168C11.881 9.83 12.0807 9.70517 12.2305 9.42221C13.2791 7.41652 14.3278 5.41916 15.3847 3.4218C15.5678 3.08058 15.5179 2.96407 15.1184 2.96407C13.9699 2.98072 12.8214 2.97239 11.6729 2.96407C11.4316 2.96407 11.2485 3.03897 11.0904 3.23871C9.47584 5.30265 7.85298 7.35827 6.23013 9.41389C6.15523 9.51375 6.00542 9.61362 6.10529 9.7551C6.18852 9.87161 6.34664 9.82168 6.4798 9.82168C7.31203 9.83 8.16091 9.83 9.00979 9.82168ZM34.3929 11.7941C33.4109 11.7941 32.4372 11.7941 31.4551 11.7941C31.2055 11.7941 30.9724 11.7858 30.9392 12.1519C30.7061 15.098 32.8034 16.7043 35.4748 16.0135C36.9895 15.6224 37.7968 14.2408 37.7718 12.3517C37.7635 11.9439 37.647 11.7774 37.2225 11.7858C36.2821 11.8107 35.3333 11.7941 34.3929 11.7941ZM16.941 11.7941C15.9839 11.7941 15.0185 11.7941 14.0615 11.7941C13.8118 11.7941 13.5621 11.7691 13.5371 12.1436C13.3374 14.8983 15.1267 16.646 17.898 16.0634C19.5375 15.7222 20.4114 14.2825 20.3615 12.3101C20.3531 11.9106 20.2033 11.7858 19.8205 11.7941C18.8551 11.8024 17.898 11.7941 16.941 11.7941ZM25.7044 11.7941C24.7224 11.7941 23.7487 11.7941 22.7666 11.7941C22.5253 11.7941 22.2673 11.7691 22.2423 12.1353C22.0259 14.8817 23.8402 16.646 26.5949 16.0634C28.2344 15.7222 29.1166 14.2825 29.0666 12.3101C29.0583 11.9106 28.9168 11.7858 28.534 11.7941C27.5853 11.8024 26.6448 11.7941 25.7044 11.7941ZM51.8033 11.7941C50.8212 11.7941 49.8475 11.7941 48.8655 11.7941C48.6158 11.7941 48.3828 11.7858 48.3495 12.1519C48.1165 15.0897 50.197 16.7043 52.8768 16.0218C54.3832 15.639 55.1905 14.2408 55.1738 12.3517C55.1655 11.9439 55.049 11.7774 54.6245 11.7858C53.6924 11.8107 52.752 11.7941 51.8033 11.7941ZM8.28575 11.7941C7.30371 11.7941 6.33 11.7941 5.34796 11.7941C5.09829 11.7941 4.84862 11.7774 4.82365 12.1436C4.63224 14.915 6.44651 16.646 9.18456 16.0634C10.8324 15.7139 11.6979 14.2908 11.6396 12.3101C11.6313 11.9106 11.4815 11.7858 11.0987 11.7941C10.1666 11.8024 9.22617 11.7941 8.28575 11.7941ZM43.0814 11.7941C42.0994 11.7941 41.1257 11.7941 40.1437 11.7941C39.8857 11.7941 39.6693 11.8107 39.6443 12.1686C39.4529 14.9649 41.3338 16.6793 44.0302 16.0468C46.0276 15.5807 46.5685 13.8497 46.4603 12.1103C46.4353 11.7774 46.194 11.7941 45.961 11.7941C45.0039 11.7941 44.0468 11.7941 43.0814 11.7941Z" fill="#836923" stroke="#836923"/>
</svg>
