<svg width="60" height="60" viewBox="0 0 60 60" fill="none" xmlns="http://www.w3.org/2000/svg">
<path d="M17.0127 58.9911C15.603 58.6431 14.2825 58.1166 13.2029 57.1172C11.1241 55.1898 10.2854 52.8341 10.7226 50.0234C10.7404 49.9342 10.7404 49.836 10.7672 49.7468C10.9189 49.2917 10.8296 49.1489 10.3032 49.256C8.13518 49.6932 6.10094 49.3095 4.27191 48.0335C1.54175 46.1418 0.346191 42.6261 1.35439 39.4228C2.35366 36.2372 5.30687 34.0689 8.63481 34.0511C11.0527 34.0421 13.0156 34.9969 14.6037 36.7905C14.9873 37.2188 14.9873 37.7452 14.6215 38.1021C14.2111 38.4948 13.7026 38.4948 13.2743 38.0218C12.3553 36.9957 11.2579 36.2818 9.89283 35.9963C6.49351 35.2914 3.23695 37.6828 2.88006 41.1092C2.50534 44.6249 5.12843 47.5517 8.74188 47.6141C10.2229 47.6409 11.5613 47.1234 12.6498 46.0794C13.6579 45.1157 14.6483 44.1341 15.6119 43.1169C17.4409 41.1806 17.6194 38.2003 16.058 36.032C15.4781 35.22 15.487 34.9166 16.2275 34.2563C19.3681 31.4545 22.5087 28.6615 25.6671 25.8865C26.0507 25.5563 26.1399 25.3689 25.7206 24.9941C24.9712 24.3071 24.989 24.2803 24.2842 24.9941C22.7763 26.5021 21.2685 28.0101 19.7607 29.5092C19.6001 29.6698 19.4305 29.8305 19.2343 29.9375C18.8417 30.1517 18.458 30.0892 18.1547 29.7501C17.8603 29.42 17.8246 29.0363 18.0833 28.6615C18.1993 28.492 18.351 28.3492 18.5026 28.1975C20.0908 26.6092 21.67 25.012 23.276 23.4415C23.6328 23.0935 23.6596 22.8972 23.2849 22.5492C22.5533 21.8711 22.5711 21.8532 21.8841 22.5492C20.3763 24.0572 18.8684 25.5652 17.3606 27.0732C17.2179 27.216 17.0662 27.3766 16.8967 27.4837C16.5219 27.7335 16.1383 27.6978 15.8082 27.3945C15.4781 27.0911 15.4245 26.6985 15.6386 26.3148C15.7457 26.1185 15.9152 25.9578 16.0669 25.7972C17.6818 24.1821 19.2878 22.5581 20.9116 20.9609C21.215 20.6665 21.2328 20.4969 20.9116 20.2025C20.0194 19.3726 20.2781 19.3548 19.4216 20.2025C17.9316 21.6748 16.4595 23.1649 14.9784 24.6372C14.8178 24.7978 14.6572 24.9585 14.4699 25.0834C14.0862 25.3243 13.7026 25.2886 13.3814 24.9763C13.0423 24.6461 12.9888 24.2535 13.2475 23.8431C13.3635 23.6557 13.533 23.4951 13.6936 23.3345C15.2639 21.7551 16.8342 20.1757 18.4223 18.6141C18.7614 18.284 18.8328 18.0698 18.4402 17.7129C17.7264 17.0526 17.7532 17.0258 17.0394 17.7308C15.5316 19.2388 14.0238 20.7468 12.5159 22.2548C12.3553 22.4154 12.1858 22.576 11.9984 22.6831C11.6059 22.8972 11.2222 22.8437 10.9189 22.5135C10.6155 22.1834 10.5798 21.7997 10.8296 21.4249C10.9456 21.2554 11.0973 21.1126 11.249 20.9609C12.846 19.3548 14.4431 17.7486 16.058 16.1603C16.3613 15.8569 16.4238 15.6785 16.0758 15.3483C15.3085 14.6166 15.3264 14.5988 14.5948 15.3305C13.1048 16.8206 11.6059 18.3197 10.1159 19.8098C9.97312 19.9526 9.82145 20.1132 9.65193 20.2203C9.2772 20.4791 8.89355 20.4434 8.56343 20.14C8.2244 19.8366 8.17979 19.4529 8.38499 19.0603C8.49206 18.864 8.65266 18.7034 8.81325 18.5428C10.4103 16.9366 12.0074 15.3305 13.6223 13.7511C13.9435 13.4298 14.0059 13.2425 13.6401 12.9123C12.7925 12.136 13.0334 12.1003 12.1858 12.9391C10.7315 14.3846 9.2772 15.848 7.8229 17.3025C7.69799 17.4185 7.58201 17.5434 7.4571 17.6594C6.99315 18.0609 6.4489 18.0698 6.09202 17.6951C5.73513 17.3203 5.74405 16.8206 6.17231 16.3745C6.85039 15.6606 7.55524 14.9825 8.24224 14.2865C9.21475 13.3138 10.1783 12.3234 11.1687 11.3686C11.5077 11.0385 11.588 10.8243 11.1955 10.4674C10.4817 9.80707 10.4995 9.7803 9.79468 10.4852C8.3047 11.9754 6.80578 13.4745 5.31579 14.9646C5.1552 15.1252 4.9946 15.2948 4.80724 15.4108C4.40574 15.6517 4.00425 15.616 3.67413 15.268C3.35294 14.92 3.33509 14.5185 3.6206 14.1348C3.72766 13.9831 3.87042 13.8492 4.00425 13.7154C5.59238 12.1271 7.17159 10.5298 8.76864 8.95937C9.10768 8.62922 9.18798 8.43291 8.79541 8.06707C8.05488 7.37999 8.08164 7.36214 7.35003 8.08491C5.86004 9.57507 4.36113 11.0741 2.87114 12.5643C2.72839 12.7071 2.57671 12.8677 2.40719 12.9837C2.0057 13.2514 1.61313 13.1978 1.27409 12.8677C0.952894 12.5465 0.93505 12.1628 1.14918 11.7791C1.24732 11.6006 1.40792 11.4578 1.5596 11.3151C4.03994 8.83445 6.52028 6.35384 9.00062 3.87322C11.0081 1.87445 13.533 1.87445 15.5405 3.89107C20.8759 9.22707 26.2113 14.5541 31.5378 19.908C31.9036 20.2738 32.1177 20.3185 32.5371 19.9615C39.5588 13.9295 46.6964 8.03137 53.9323 2.24922C54.1821 2.05291 54.423 1.83876 54.6817 1.64245C56.2163 0.464604 58.1256 0.955373 58.8929 2.71322C58.9286 2.80245 58.9643 2.88276 59 2.97199V4.3283C58.8126 4.78337 58.5539 5.19384 58.2416 5.58645C52.3084 12.9658 46.2771 20.2649 40.1119 27.448C39.7283 27.8941 39.7372 28.1172 40.1476 28.5277C45.492 33.8458 50.8274 39.1908 56.1628 44.5178C56.6356 44.9908 57.0639 45.4815 57.3048 46.1151C58.0186 47.9532 57.6349 49.5594 56.2698 50.9425C53.6021 53.6372 50.9166 56.3142 48.24 59H47.3388C46.7054 58.2683 46.7143 57.9471 47.3834 57.2689C48.8913 55.7609 50.3991 54.2529 51.9069 52.7449C52.6742 51.9775 52.6564 51.9954 51.9159 51.2191C51.5857 50.8711 51.3984 50.9603 51.104 51.2548C49.5158 52.8698 47.9098 54.4581 46.3039 56.0643C46.1611 56.2071 46.0094 56.3677 45.8399 56.4748C45.4652 56.7246 45.0815 56.68 44.7514 56.3766C44.4213 56.0643 44.3678 55.6895 44.5908 55.2969C44.6979 55.1006 44.8674 54.94 45.028 54.7794C46.5358 53.2714 48.0437 51.7634 49.5515 50.2554C50.2474 49.5594 50.2296 49.5772 49.5604 48.8634C49.2392 48.5243 49.034 48.5243 48.7039 48.8545C47.1336 50.4606 45.5366 52.04 43.9484 53.6194C43.7878 53.78 43.6272 53.9406 43.4399 54.0655C43.0562 54.3065 42.6726 54.2618 42.3514 53.9585C42.0213 53.6461 41.9856 53.2535 42.1997 52.8698C42.3157 52.6646 42.4941 52.4861 42.6726 52.3077C44.1536 50.8265 45.6347 49.3452 47.1069 47.864C47.9366 47.0252 47.9098 47.2662 47.1247 46.4095C46.8303 46.0883 46.6429 46.0705 46.3217 46.4006C44.7425 48.0157 43.1276 49.6129 41.5306 51.2101C41.361 51.3797 41.1737 51.5581 40.9685 51.6741C40.5759 51.8883 40.1922 51.8258 39.8889 51.4868C39.5945 51.1477 39.5588 50.7729 39.8175 50.3981C39.9335 50.2286 40.0852 50.0858 40.2368 49.9341C41.7179 48.4529 43.199 46.9717 44.68 45.4905C45.4473 44.7231 45.4384 44.732 44.689 43.9646C44.3945 43.6612 44.225 43.6523 43.9217 43.9557C42.3335 45.5708 40.7276 47.168 39.1305 48.7652C38.9878 48.908 38.8361 49.0597 38.6755 49.1846C38.2829 49.4701 37.8903 49.4434 37.5424 49.1221C37.1944 48.792 37.1677 48.3905 37.4085 47.9889C37.5156 47.8105 37.6673 47.6677 37.819 47.5249C39.3268 46.0169 40.8346 44.5089 42.3425 43.0009C43.0384 42.3049 43.0205 42.3228 42.3425 41.6089C42.0213 41.2698 41.8161 41.2698 41.4859 41.6089C39.9157 43.2151 38.3186 44.7945 36.7305 46.3738C36.5609 46.5434 36.3736 46.7218 36.1684 46.8468C35.8026 47.0609 35.4278 46.9985 35.1245 46.7129C34.8033 46.4006 34.7408 46.0169 34.9639 45.6332C35.0888 45.428 35.2672 45.2495 35.4368 45.0711C36.9178 43.5898 38.3989 42.1086 39.871 40.6274C40.7008 39.7886 40.674 40.0295 39.8889 39.1729C39.5498 38.7981 39.3625 38.8785 39.0502 39.1997C37.4799 40.8058 35.8829 42.3852 34.2947 43.9646C34.1252 44.1341 33.9468 44.3126 33.7326 44.4286C33.3401 44.6428 32.9564 44.5803 32.6531 44.2501C32.3586 43.92 32.323 43.5363 32.5817 43.1615C32.6977 42.992 32.8494 42.8492 33.001 42.6975C34.4821 41.2163 35.9632 39.7351 37.4442 38.2538C38.2115 37.4865 38.1937 37.5043 37.4621 36.728C37.132 36.38 36.9446 36.4603 36.6502 36.7548C35.062 38.3698 33.4561 39.9581 31.8501 41.5643C31.7073 41.7071 31.5557 41.8677 31.3861 41.9748C31.0114 42.2246 30.6278 42.1889 30.2976 41.8855C29.9675 41.5821 29.914 41.1985 30.1281 40.8058C30.2352 40.6095 30.4047 40.4489 30.5564 40.2883C32.0196 38.816 33.4918 37.3526 34.955 35.8892C35.7847 35.0594 35.7669 35.0772 34.9639 34.2563C34.6427 33.9261 34.4643 33.9975 34.2144 34.3009C33.6791 34.9345 33.1259 35.5501 32.5728 36.1748C29.798 39.3068 27.0232 42.4477 24.2395 45.5708C23.954 45.892 23.9094 46.0883 24.2217 46.4452C26.5414 49.2114 26.6217 53.1375 24.4358 56.0197C23.1867 57.6615 21.5094 58.5895 19.5198 59H17.0127V58.9911ZM54.53 4.3283C54.4854 4.27476 54.4319 4.23014 54.3873 4.1766C52.5761 5.64891 50.7471 7.1123 48.9448 8.59353C42.2711 14.0723 35.6509 19.6225 29.1288 25.2797C25.4708 28.4563 21.8127 31.6418 18.2171 34.8898C17.8781 35.1932 17.8246 35.4252 18.0476 35.8446C19.5019 38.5661 19.1272 41.8766 17.084 44.1788C16.1472 45.2317 15.1033 46.1954 14.1308 47.2215C12.7836 48.6314 12.2215 50.2911 12.4981 52.2452C12.8906 55.0292 15.2461 57.1618 18.2261 57.2243C21.215 57.2868 23.4187 55.2612 23.9808 52.7806C24.4983 50.532 23.9183 48.5689 22.2053 46.9628C21.5005 46.3025 21.4915 45.9277 22.1339 45.196C22.4284 44.8569 22.7049 44.4911 23.0351 44.1877C23.4098 43.8397 23.4187 43.6255 22.9815 43.2865C22.0001 42.528 21.438 41.4929 21.2953 40.2526C21.2328 39.6994 21.5272 39.2978 22.009 39.1908C22.464 39.0926 22.9012 39.396 23.0618 39.9225C23.0975 40.0295 23.1243 40.1366 23.1421 40.2526C23.2492 40.9218 23.6061 41.4394 24.1057 41.8677C24.6321 42.3138 24.7035 42.3138 25.1496 41.8052C27.8262 38.7625 30.5207 35.7286 33.1884 32.6769C40.558 24.2357 47.7582 15.6606 54.7977 6.94276C55.1189 6.55014 55.4312 6.1486 55.7434 5.74707C55.6899 5.70245 55.6453 5.65784 55.5918 5.61322C55.3866 5.86307 55.2081 6.12184 54.9761 6.35384C44.7425 16.5975 34.4999 26.8412 24.2574 37.0849C24.0611 37.2812 23.8559 37.4865 23.6239 37.6471C23.2313 37.9237 22.8299 37.888 22.4908 37.5489C22.1518 37.2188 22.1072 36.8172 22.3837 36.4157C22.5443 36.1837 22.7496 35.9874 22.9458 35.7821C33.2152 25.5206 43.4845 15.2501 53.7538 4.97968C53.9947 4.74768 54.2713 4.54245 54.53 4.3283ZM55.8059 47.7391C55.8416 46.9895 55.4579 46.3738 54.8958 45.8117C50.9077 41.832 46.9195 37.8434 42.9313 33.8548C41.5573 32.4806 40.1744 31.1154 38.8182 29.7323C38.5327 29.4468 38.3811 29.4378 38.1223 29.7591C37.5245 30.4908 36.8911 31.1868 36.2754 31.9006C35.749 32.5074 35.749 32.5074 36.3022 33.0606C41.9053 38.6643 47.4994 44.2591 53.1025 49.8628C53.9412 50.7015 53.9323 50.6926 54.7709 49.8717C55.3776 49.2917 55.8148 48.6671 55.8059 47.7391ZM12.2929 4.23014C11.5791 4.23014 11.017 4.45322 10.5441 4.89937C10.2676 5.15814 10.0267 5.4526 9.74115 5.6846C9.38427 5.97907 9.42888 6.17537 9.74115 6.48768C12.2839 9.01291 14.8089 11.5471 17.3428 14.0812C20.5904 17.3292 23.847 20.5772 27.0857 23.8431C27.398 24.1643 27.6032 24.2178 27.9511 23.8877C28.6649 23.2185 29.4144 22.5849 30.1727 21.9692C30.5296 21.6748 30.5742 21.4695 30.2173 21.1305C29.1021 20.0597 28.0225 18.9532 26.934 17.8557C22.696 13.6172 18.458 9.38768 14.229 5.1403C13.6669 4.57814 13.0423 4.2123 12.2929 4.23014Z" fill="#836923" stroke="#836923"/>
</svg>
