<svg width="44" height="47" viewBox="0 0 44 47" fill="none" xmlns="http://www.w3.org/2000/svg">
<path d="M1.04134 41.5155C1.04929 44.1067 2.94998 45.9948 5.55846 45.9948C16.5809 46.0027 27.5954 46.0027 38.6178 45.9869C39.079 45.9869 39.5085 45.9395 39.8902 45.8368C41.8863 45.3075 43.127 43.6485 43.127 41.5155C43.127 39.3351 43.127 37.1468 43.127 34.9663C43.127 30.7477 43.127 26.5212 43.1429 22.3026C43.1429 21.5521 42.9122 21.1175 42.276 20.7146C39.8345 19.1425 37.3931 17.5546 34.9595 15.9667C33.4008 14.9476 31.8341 13.9285 30.2754 12.9173C29.7426 12.5697 29.5597 12.151 29.6472 11.5111C29.7267 10.9502 29.8221 10.1049 29.7346 9.32277C29.5676 7.86916 28.836 6.63676 27.4999 5.56235L26.8876 5.07255L27.492 4.58274C28.3668 3.87174 29.3449 3.35824 30.4981 3.01063C30.848 2.90793 31.1184 2.70253 31.2615 2.44183C31.3808 2.22063 31.3967 1.96783 31.3172 1.70713C31.1263 1.11462 30.5856 0.86972 29.9016 1.06722C28.1361 1.57282 26.5774 2.51293 25.2811 3.85594C25.0107 4.13244 24.5813 4.30624 24.1837 4.29044C22.4659 4.22724 21.0264 4.72495 19.8972 5.79935C19.1894 6.47086 18.5213 6.62886 17.5829 6.33656C16.9229 6.13115 16.2548 6.04425 15.5948 6.04425C14.3144 6.04425 13.0499 6.36025 11.8411 6.73156C5.16083 8.76977 0.90614 14.2919 1.00157 20.7936C1.07315 25.4547 1.05724 30.1868 1.04929 34.7688C1.04134 37.0204 1.04134 39.2719 1.04134 41.5155ZM41.0831 34.0973V35.0848C41.0831 37.2178 41.0831 39.3509 41.0831 41.4918C41.0831 43.0165 40.1367 43.9645 38.6178 43.9645C32.5658 43.9645 26.5217 43.9645 20.4698 43.9645C15.4993 43.9645 10.5209 43.9645 5.55051 43.9645C4.06336 43.9645 3.09313 43.0086 3.09313 41.5392C3.09313 39.4615 3.09313 37.3917 3.09313 35.3139V34.1447C3.09313 34.042 3.10108 33.9393 3.10903 33.8208L3.1488 32.9123L3.8884 33.0703C5.00973 33.3073 5.93224 33.8682 6.68774 34.3896C7.83293 35.1796 9.07355 35.6773 10.3778 35.8748C13.1294 36.2935 15.5311 35.7326 17.734 34.1684C20.2391 32.383 23.6747 32.3593 26.2752 34.121C26.8001 34.4765 27.3727 34.8399 27.9612 35.1006C31.2695 36.5384 34.4903 36.2619 37.5283 34.2711C38.2122 33.8208 39.1427 33.2757 40.2799 33.0229L41.0274 32.857L41.0752 33.7734C41.0752 33.8919 41.0831 33.9946 41.0831 34.0973ZM41.0513 30.8267L40.5105 30.9057C38.8405 31.1506 37.3692 31.9801 36.0093 32.8096C34.6892 33.6154 33.3372 34.0104 31.9932 34.0104C30.5379 34.0104 29.0905 33.5364 27.6908 32.5963C25.6788 31.2375 23.5633 30.6608 21.2332 30.8188C19.5313 30.9373 17.9567 31.514 16.4059 32.5884C14.0758 34.2 11.515 34.4291 8.78725 33.252C8.57253 33.1572 8.40552 33.0703 8.26238 32.9676C6.57641 31.7826 5.15288 31.1506 3.65777 30.9215L3.11699 30.8425V22.8872H41.0593V30.8267H41.0513ZM23.8258 6.32076H23.8337C25.9969 6.32866 27.7624 8.08247 27.7703 10.2392C27.7783 11.2978 27.3647 12.2932 26.6251 13.0358C25.8776 13.7863 24.8835 14.1971 23.8258 14.1971C23.8178 14.1971 23.8178 14.1971 23.8099 14.1971C22.7522 14.1971 21.7581 13.7863 21.0026 13.0358C20.2471 12.2853 19.8335 11.2978 19.8415 10.255C19.8574 8.08247 21.6388 6.32076 23.8258 6.32076ZM3.04541 20.0905C3.06927 19.9009 3.07722 19.7113 3.09313 19.5217C3.12494 19.0951 3.1647 18.6448 3.26014 18.2024C4.21446 13.8969 6.93428 10.8317 11.3401 9.08577C12.4534 8.64337 13.6384 8.42217 14.7836 8.20097L15.0619 8.14567C15.5232 8.05877 15.9765 8.12197 16.3741 8.16937C16.5252 8.19307 16.6763 8.20887 16.8274 8.21677C17.1853 8.24047 17.4557 8.37477 17.6465 8.59597C17.9328 8.94357 17.8772 9.40178 17.8613 9.54398C17.6068 11.5743 18.2669 13.3123 19.8097 14.6948C22.0603 16.7172 25.3845 16.7567 27.7067 14.7896C28.2316 14.3472 28.7405 14.3156 29.3052 14.6869C30.9991 15.8087 32.701 16.9147 34.4029 18.0207L36.3354 19.2768C36.4308 19.34 36.5262 19.4111 36.6455 19.4901L38.4508 20.7778H2.97384L3.04541 20.0905Z" fill="#836923" stroke="#836923"/>
<path d="M3.88762 38.8741L3.14802 38.7161L3.11621 36.6463L3.65699 36.7253C5.1521 36.9544 6.57563 37.5864 8.2616 38.7714C8.40475 38.8741 8.57176 38.961 8.78648 39.0558C11.5142 40.2329 14.075 40.0038 16.4051 38.3922C17.9559 37.3178 19.5306 36.7411 21.2324 36.6226C23.5626 36.4646 25.678 37.0413 27.69 38.4001C29.0897 39.3402 30.5371 39.8142 31.9924 39.8142C33.3364 39.8142 34.6884 39.4192 36.0085 38.6134C37.3684 37.7839 38.8397 36.9544 40.5097 36.7095L41.0505 36.6305H41.0585L41.0267 38.6608L40.2791 38.8267C39.1419 39.0795 38.2114 39.6246 37.5275 40.0749C34.4896 42.0657 31.2687 42.3422 27.9604 40.9044C27.3719 40.6437 26.7993 40.2803 26.2744 39.9248C23.6739 38.1631 20.2383 38.1868 17.7332 39.9722C15.5304 41.5364 13.1286 42.0973 10.377 41.6786C9.07277 41.4811 7.83215 40.9834 6.68697 40.1934C5.93146 39.672 5.00895 39.1111 3.88762 38.8741Z" fill="#836923" stroke="#836923"/>
<path d="M3.88762 26.7843L3.14802 26.6263L3.11621 24.5564L3.65699 24.6355C5.1521 24.8646 6.57563 25.4966 8.2616 26.6816C8.40475 26.7843 8.57176 26.8712 8.78648 26.966C11.5142 28.1431 14.075 27.914 16.4051 26.3024C17.9559 25.228 19.5306 24.6513 21.2324 24.5327C23.5626 24.3747 25.678 24.9515 27.69 26.3103C29.0897 27.2504 30.5371 27.7244 31.9924 27.7244C33.3364 27.7244 34.6884 27.3294 36.0085 26.5236C37.3684 25.6941 38.8397 24.8646 40.5097 24.6197L41.0505 24.5406H41.0585L41.0267 26.571L40.2791 26.7369C39.1419 26.9897 38.2114 27.5348 37.5275 27.9851C34.4896 29.9759 31.2687 30.2524 27.9604 28.8146C27.3719 28.5539 26.7993 28.1905 26.2744 27.835C23.6739 26.0733 20.2383 26.097 17.7332 27.8824C15.5304 29.4466 13.1286 30.0075 10.377 29.5888C9.07277 29.3913 7.83215 28.8936 6.68697 28.1036C5.93146 27.5822 5.00895 27.0213 3.88762 26.7843Z" fill="#836923" stroke="#836923"/>
</svg>
