<svg width="60" height="46" viewBox="0 0 60 46" fill="none" xmlns="http://www.w3.org/2000/svg">
<path d="M6.31146 9.35221C5.76895 8.48156 4.87415 8.3046 3.96526 8.22674C3.00001 8.1418 2.08408 8.31876 1.26679 8.91335C0.858141 9.21064 0.371993 9.11862 0.132441 8.75054C-0.10711 8.39662 -0.0225626 7.97192 0.39313 7.66754C1.75294 6.67656 3.27479 6.47129 4.89529 6.80398C5.59985 6.95262 6.27623 7.17913 6.87511 7.64631C6.66374 5.99704 5.37439 4.57427 3.77503 4.54596C3.56366 4.53888 3.34525 4.55304 3.12683 4.53888C2.69001 4.51764 2.40113 4.28406 2.37295 3.84519C2.34477 3.41341 2.58432 3.10904 3.0141 3.04533C4.07799 2.89669 5.07847 3.10196 6.0085 3.647C6.74124 4.07878 7.23444 4.73708 7.7065 5.43076C8.13628 4.24866 7.44581 2.35165 6.34669 1.6438C6.21282 1.55886 6.05782 1.49516 5.931 1.39606C5.57167 1.14832 5.45189 0.808551 5.65622 0.419238C5.86054 0.0370026 6.20578 -0.0974874 6.61442 0.0723948C7.37535 0.390924 7.98128 0.907649 8.44629 1.60841C9.09449 2.58524 9.32699 3.68239 9.36926 4.8291C9.37631 4.97066 9.37631 5.11931 9.38336 5.26088C9.38336 5.28919 9.42563 5.31043 9.44677 5.33874C9.61586 5.33874 9.68632 5.19717 9.78496 5.10515C11.025 3.88767 12.5116 3.60453 14.1532 3.95845C14.7451 4.08586 15.041 4.4681 14.9353 4.92111C14.8226 5.38829 14.4421 5.57941 13.8291 5.44492C11.9691 5.03437 10.9968 5.78468 9.99632 7.35609C10.412 7.39148 10.7643 7.20745 11.1377 7.1579C12.6032 6.9597 13.9489 7.27115 15.196 8.0427C15.4285 8.19135 15.6962 8.38246 15.6681 8.65852C15.5976 9.23895 15.9358 9.14693 16.2881 9.14693C18.2609 9.13986 20.2266 9.13278 22.1994 9.14693C22.5939 9.14693 22.7912 9.05491 22.9321 8.63729C23.1857 7.85866 23.7987 7.44103 24.609 7.43396C28.2093 7.4198 31.8096 7.41272 35.4099 7.43396C36.2202 7.44103 36.8261 7.87282 37.0727 8.65144C37.2066 9.09031 37.4391 9.14693 37.8125 9.14693C39.6373 9.13986 41.4692 9.13986 43.294 9.13986C44.379 9.13986 44.8229 9.5858 44.837 10.683C44.844 11.1501 44.844 11.6173 44.837 12.0845C44.8299 12.5941 44.6749 13.0259 44.2451 13.3515C43.8294 13.67 43.8858 14.1018 44.3508 14.3C44.8933 14.5336 45.1258 14.9442 45.1822 15.5104C45.2668 16.3669 45.3654 17.2234 45.4781 18.0799C45.5556 18.6957 45.4499 19.2125 44.8863 19.5805C44.4776 19.8495 44.5622 20.522 45.0202 20.6989C45.612 20.9184 45.8868 21.3289 45.9643 21.9447C46.1052 23.0136 46.2884 24.0753 46.4504 25.1442C46.5138 25.583 46.38 25.9228 45.9502 26.1068C45.8022 26.1705 45.5486 26.0998 45.5979 26.39C45.6402 26.659 45.5556 27.027 45.8938 27.1403C46.7041 27.4234 46.9788 28.0534 47.0986 28.832C47.2113 29.5753 47.3664 30.3185 47.5143 31.0547C47.62 31.5785 47.472 32.0032 47.0704 32.3571C46.6336 32.7393 46.7534 33.3976 47.2959 33.5604C47.8102 33.7161 48.1202 34.0418 48.24 34.5585C48.4655 35.5565 48.698 36.5546 48.9234 37.5526C49.0291 38.034 48.86 38.4375 48.5007 38.7631C48.4162 38.8409 48.2471 38.8763 48.3175 39.0462C48.3668 39.1594 48.5007 39.1453 48.5993 39.1524C50.4382 39.2515 52.0024 39.931 53.186 41.3892C53.2424 41.4599 53.3058 41.5449 53.4045 41.5095C53.5031 41.4741 53.4961 41.3608 53.5031 41.2759C53.5101 41.1839 53.5101 41.0989 53.5101 41.0069C53.5242 37.8429 53.5665 34.6717 53.3974 31.5148C53.1649 27.0412 52.6929 22.5959 51.9742 18.179C51.6431 16.1263 51.2767 14.0664 51.1499 11.9854C51.1146 11.4262 50.7624 11.0935 50.1776 11.0298C48.8389 10.8741 47.5989 11.6669 47.155 12.948C47.1268 13.033 47.1057 13.1179 47.0775 13.2029C46.8943 13.7479 46.5632 13.9815 46.1404 13.8682C45.6613 13.7408 45.457 13.3232 45.619 12.7499C46.0136 11.32 46.9013 10.322 48.2752 9.76983C48.8741 9.52917 49.5082 9.43007 50.1705 9.3876C49.3955 8.79301 48.5359 8.48156 47.5707 8.58774C46.8872 8.6656 46.2531 8.91335 45.6684 9.28142C45.1329 9.62119 44.7031 9.57872 44.4495 9.16817C44.1958 8.7647 44.3297 8.32584 44.8581 8.00731C46.232 7.17205 47.7045 6.87476 49.2898 7.23576C49.5082 7.28531 49.7337 7.34194 49.9803 7.40564C49.4871 6.03951 47.9934 5.14762 46.6477 5.37413C46.4363 5.40953 46.225 5.452 46.0136 5.48739C45.5345 5.56525 45.1611 5.33874 45.0624 4.91404C44.9708 4.50349 45.2104 4.11417 45.6965 3.99384C47.3241 3.59745 48.8248 3.83104 50.1071 4.99898C50.248 5.12639 50.3396 5.32459 50.5933 5.34582C50.6355 4.84325 50.6567 4.34776 50.7342 3.85935C50.9667 2.28086 51.6712 0.999668 53.1015 0.206885C53.4467 0.0157674 53.799 -0.0974873 54.1513 0.18565C54.5952 0.539571 54.5459 1.19786 53.9752 1.46684C52.5449 2.13929 51.9883 4.02923 52.256 5.48031C52.4885 5.17594 52.6929 4.88572 52.9113 4.61674C53.9047 3.41341 55.2222 2.97455 56.73 3.0241C57.3007 3.04533 57.6459 3.37802 57.6459 3.81688C57.6459 4.28406 57.2866 4.58843 56.6595 4.55304C54.8911 4.46102 53.6017 5.53694 53.0804 7.69586C53.9188 7.0588 54.8488 6.81813 55.807 6.71196C57.1175 6.56331 58.3364 6.82521 59.4426 7.56137C59.9921 7.92944 60.1401 8.36831 59.8653 8.77178C59.5976 9.17525 59.1396 9.19648 58.59 8.83548C57.1809 7.90821 54.8559 8.05686 53.8483 9.13986C53.792 9.20356 53.7356 9.28142 53.637 9.40884C54.0808 9.47254 54.4754 9.50793 54.8629 9.57872C56.582 9.89725 57.9348 11.0935 58.2448 12.58C58.28 12.7569 58.3012 12.9339 58.2941 13.1179C58.28 13.5851 58.0264 13.8753 57.5755 13.9178C57.1386 13.9532 56.885 13.6771 56.7793 13.2666C56.4059 11.7872 55.4125 11.0086 53.947 11.051C53.0804 11.0723 52.6858 11.4474 52.714 12.3181C52.7704 13.847 53.0522 15.3547 53.2988 16.8624C53.8765 20.4441 54.3697 24.0399 54.6656 27.657C55.0038 31.8758 55.1095 36.0945 55.0531 40.3203C55.0531 40.4831 55.0531 40.6459 55.0461 40.8087C54.9968 41.5803 54.9968 41.5803 55.7788 41.7218C57.0189 41.9554 57.9912 42.6137 58.738 43.6189C59.0269 44.0011 59.2171 44.4329 59.6046 44.7656C60.0344 45.1407 59.7667 45.8627 59.203 45.976C59.0128 46.0114 58.8085 45.9972 58.6112 45.9972C39.5246 45.9972 20.4309 45.9972 1.34429 45.9972C1.18224 45.9972 1.02019 46.0043 0.858141 45.9901C0.477677 45.9406 0.23108 45.7353 0.188806 45.3389C0.146533 44.9284 0.329719 44.6452 0.724274 44.5178C0.759503 44.5037 0.794731 44.4824 0.829959 44.4895C1.64725 44.624 1.95726 44.086 2.29545 43.4773C2.79569 42.5713 3.59185 41.9483 4.55005 41.559C4.86711 41.4316 4.96574 41.2617 4.9587 40.9149C4.87415 37.857 4.91642 34.7991 5.05029 31.7413C5.27575 26.7439 5.86054 21.789 6.67783 16.8553C6.90329 15.4892 7.07239 14.116 7.25557 12.7499C7.28376 12.5163 7.28376 12.2827 7.26967 12.0491C7.24148 11.4899 6.95261 11.1572 6.40305 11.0369C5.42371 10.8245 4.02163 11.412 3.47912 12.2614C3.31707 12.5092 3.2607 12.7852 3.22547 13.0755C3.16206 13.6063 2.81683 13.9249 2.39409 13.8895C1.95021 13.847 1.64725 13.4577 1.68953 12.9127C1.79521 11.7022 2.4575 10.8458 3.44389 10.2158C4.19777 9.73444 5.0362 9.4867 5.931 9.44423C6.03668 9.43715 6.14237 9.42299 6.24805 9.41591C6.26919 9.41591 6.28328 9.39468 6.31146 9.35221ZM9.74973 9.42299C10.0034 9.43715 10.1584 9.44423 10.3134 9.45838C12.2439 9.57164 13.8644 10.867 14.3576 12.7003C14.5196 13.302 14.3646 13.7125 13.9137 13.8682C13.4628 14.024 13.0964 13.7691 12.8991 13.1746C12.8639 13.0755 12.8357 12.9693 12.8005 12.8702C12.3566 11.6598 11.1518 10.9095 9.8836 11.0298C9.24244 11.0935 8.88312 11.3979 8.84789 11.9854C8.67879 14.5336 8.19264 17.0394 7.81218 19.5593C7.20626 23.5232 6.8117 27.5013 6.60033 31.5077C6.44533 34.4735 6.47351 37.4394 6.47351 40.4053C6.47351 40.9432 6.53692 41.2617 7.17807 41.2193C7.53035 41.198 7.8615 41.4599 8.22083 41.106C9.04517 40.2849 10.0809 39.839 11.2293 39.6903C11.4689 39.6549 11.6309 39.5912 11.6873 39.3364C11.7436 39.1028 11.7155 38.94 11.5041 38.7772C11.1025 38.4658 10.9616 38.0198 11.0743 37.5243C11.2927 36.5263 11.5393 35.5282 11.7648 34.5302C11.8775 34.0205 12.1946 33.7232 12.6807 33.5746C13.2232 33.4047 13.3712 32.7535 12.9414 32.3854C12.4975 32.0032 12.3777 31.5501 12.4975 30.9839C12.6807 30.1203 12.8357 29.2567 12.9837 28.3861C13.0894 27.7703 13.336 27.296 13.9912 27.1403C14.2942 27.0695 14.3505 26.8359 14.3858 26.5669C14.4139 26.3263 14.428 26.1352 14.1673 25.9723C13.7023 25.7034 13.5332 25.2574 13.6178 24.7265C13.7587 23.771 13.9137 22.8083 14.0476 21.8456C14.1251 21.2652 14.4069 20.8971 14.9564 20.6989C15.4215 20.529 15.5412 19.8424 15.1326 19.5947C14.5337 19.2195 14.4351 18.6886 14.5126 18.0516C14.6183 17.1951 14.7239 16.3386 14.8085 15.4821C14.8649 14.9088 15.0974 14.4911 15.654 14.2929C15.8512 14.2222 15.9851 14.1231 15.9992 13.8753C16.0133 13.5993 15.8653 13.4931 15.6469 13.4081C15.2242 13.2383 14.9353 12.9197 14.9353 12.4809C14.9283 11.504 14.7592 10.5201 15.1185 9.50793C14.7099 9.5858 14.4421 9.35929 14.1532 9.18233C12.7441 8.32584 10.9686 8.4037 9.74973 9.42299ZM27.0961 26.6448C27.0961 32.1518 27.089 37.6517 27.0961 43.1588C27.0961 44.6381 26.8988 44.44 28.3713 44.4541C29.2027 44.4612 29.2027 44.4541 29.2027 43.6401C29.2027 32.5411 29.2027 21.4422 29.2027 10.3432C29.2027 8.97705 29.2027 8.97705 27.85 8.97705C27.089 8.97705 27.089 8.97705 27.089 9.75568C27.0961 15.383 27.0961 21.0104 27.0961 26.6448ZM30.7598 26.751C30.7598 32.2368 30.7598 37.7225 30.7598 43.2083C30.7598 44.6169 30.5696 44.4329 31.9787 44.447C32.8664 44.4541 32.8735 44.447 32.8735 43.5198C32.8735 32.4562 32.8735 21.3926 32.8735 10.329C32.8735 8.9629 32.8735 8.96289 31.5137 8.96289C30.7598 8.96289 30.7598 8.9629 30.7598 9.7486C30.7598 15.4184 30.7598 21.0812 30.7598 26.751ZM25.546 26.7368C25.546 21.0882 25.546 15.4397 25.546 9.79107C25.546 9.62827 25.546 9.46546 25.539 9.30266C25.539 9.17525 25.5038 9.06199 25.3699 8.99829C24.8344 8.73639 24.3201 9.04076 24.3201 9.63534C24.3201 21.0387 24.3201 32.442 24.313 43.8524C24.313 44.2771 24.4187 44.4612 24.8767 44.4683C25.391 44.4824 25.5531 44.3125 25.546 43.7887C25.539 38.1048 25.546 32.4208 25.546 26.7368ZM35.6495 26.751C35.6495 21.0458 35.6424 15.3476 35.6565 9.64242C35.6565 9.13278 35.5086 8.95582 34.9872 8.94874C34.4588 8.94874 34.4165 9.19648 34.4235 9.61411C34.4376 12.2402 34.4306 14.8663 34.4306 17.4924C34.4306 26.2342 34.4306 34.9761 34.4235 43.718C34.4235 44.1568 34.4235 44.4824 35.0295 44.4612C35.5297 44.447 35.6636 44.2842 35.6636 43.7958C35.6424 38.1189 35.6495 32.4349 35.6495 26.751ZM49.0573 44.447C51.636 44.4541 54.2077 44.4541 56.7864 44.447C56.9484 44.447 57.195 44.5391 57.2584 44.3196C57.3077 44.1568 57.1034 44.0506 56.9836 43.9515C56.3214 43.3923 55.5604 43.1446 54.7009 43.1871C54.3979 43.2012 54.1513 43.272 53.9892 43.5693C53.8061 43.9161 53.482 44.0153 53.1156 43.9162C52.7633 43.8241 52.6435 43.5056 52.5026 43.2154C51.6501 41.552 50.2762 40.7025 48.4302 40.7238C47.0493 40.7379 45.915 41.3608 45.0695 42.4721C44.7454 42.8969 44.3861 43.1021 43.8717 42.819C43.6885 42.7199 43.4913 42.7199 43.294 42.7341C42.4133 42.819 41.7017 43.2437 41.1239 43.8949C41.0112 44.0223 40.7998 44.1497 40.8844 44.3338C40.9689 44.5249 41.2085 44.4258 41.3776 44.4258C43.9422 44.4541 46.4997 44.447 49.0573 44.447ZM11.4407 44.447H16.0062C16.9574 44.447 17.9015 44.4541 18.8527 44.44C19.0218 44.44 19.2684 44.532 19.3247 44.3196C19.3741 44.1427 19.1486 44.0294 19.0147 43.9162C18.5849 43.5481 18.0706 43.3286 17.5211 43.2154C17.1829 43.1446 16.8799 43.1658 16.5981 43.4631C16.2247 43.8454 15.7737 43.7604 15.4496 43.3286C15.3862 43.2437 15.3369 43.1446 15.2805 43.0526C14.3012 41.6086 12.9696 40.9574 11.2293 41.2334C10.1795 41.3962 9.3904 41.9696 8.73516 42.7836C8.31947 43.3003 7.97423 43.3286 7.45285 42.9322C7.31899 42.8332 7.18512 42.7624 7.02307 42.7411C5.75486 42.5642 4.69096 42.9606 3.84549 43.9232C3.73276 44.0506 3.52844 44.1851 3.63412 44.3692C3.71162 44.5107 3.93004 44.4329 4.09209 44.4329C6.53692 44.4541 8.9888 44.447 11.4407 44.447ZM18.0072 35.0894C16.5769 35.0894 15.1467 35.0964 13.7164 35.0823C13.3571 35.0752 13.1528 35.1814 13.0823 35.5636C12.9978 36.0591 12.8709 36.5475 12.7512 37.0288C12.6596 37.3969 12.8005 37.5102 13.1528 37.5102C16.2106 37.5031 19.2684 37.5031 22.3191 37.5102C22.6362 37.5102 22.7771 37.3898 22.7701 37.0642C22.763 36.5971 22.7489 36.1299 22.7771 35.6627C22.8053 35.2168 22.6291 35.0681 22.1853 35.0752C20.7973 35.1035 19.4022 35.0894 18.0072 35.0894ZM42.2442 37.5102C43.6744 37.5102 45.1047 37.5102 46.535 37.5102C47.31 37.5102 47.31 37.5102 47.1409 36.7316C47.0563 36.3281 46.9436 35.9317 46.8732 35.5282C46.8168 35.238 46.69 35.0894 46.3729 35.0894C43.4631 35.0964 40.5462 35.0964 37.6363 35.0894C37.3052 35.0894 37.1925 35.2451 37.1995 35.5495C37.2066 35.9954 37.2277 36.4484 37.1925 36.8944C37.1643 37.3545 37.3122 37.5314 37.7984 37.5173C39.278 37.4889 40.7576 37.5102 42.2442 37.5102ZM18.4018 31.0405C19.6911 31.0405 20.9805 31.0334 22.2628 31.0405C22.6291 31.0405 22.7912 30.9202 22.7771 30.545C22.763 30.0424 22.7701 29.5399 22.7701 29.0373C22.7701 28.74 22.6432 28.6197 22.3473 28.6197C19.8602 28.6268 17.3731 28.6268 14.886 28.6197C14.5689 28.6197 14.4492 28.7542 14.4069 29.0585C14.3435 29.5186 14.2519 29.9787 14.1392 30.4318C14.0335 30.8777 14.1603 31.0547 14.6394 31.0476C15.9006 31.0263 17.1547 31.0405 18.4018 31.0405ZM41.4832 31.0405C42.7726 31.0405 44.062 31.0263 45.3513 31.0476C45.7952 31.0547 45.922 30.8918 45.8234 30.4671C45.7106 29.9929 45.619 29.5186 45.5556 29.0373C45.5134 28.7188 45.3583 28.6197 45.0554 28.6197C42.5894 28.6268 40.1164 28.6268 37.6504 28.6197C37.3334 28.6197 37.1925 28.74 37.1995 29.0656C37.2066 29.5328 37.2206 30 37.1925 30.4671C37.1643 30.9202 37.3475 31.0617 37.7843 31.0547C39.0173 31.0263 40.2503 31.0405 41.4832 31.0405ZM18.9725 24.585C20.0434 24.585 21.1214 24.5779 22.1994 24.5921C22.5939 24.5991 22.8123 24.493 22.7841 24.047C22.763 23.6011 22.7701 23.1481 22.7841 22.695C22.7912 22.3482 22.6362 22.2208 22.298 22.2208C20.1843 22.2279 18.0706 22.2279 15.9569 22.2208C15.6399 22.2208 15.506 22.3624 15.4637 22.6596C15.4003 23.1197 15.3581 23.594 15.2524 24.047C15.1537 24.4717 15.2946 24.5991 15.7033 24.5991C16.7883 24.5779 17.8804 24.585 18.9725 24.585ZM40.983 24.585C42.0962 24.585 43.2024 24.585 44.3156 24.585C44.5199 24.585 44.7947 24.6133 44.7454 24.2735C44.6679 23.7073 44.5692 23.141 44.4847 22.5676C44.4424 22.2916 44.2733 22.2279 44.0267 22.2279C41.8989 22.2279 39.7641 22.2349 37.6363 22.2279C37.3193 22.2279 37.1854 22.3694 37.1925 22.688C37.1995 23.1339 37.2136 23.5869 37.1854 24.0399C37.1643 24.4717 37.3475 24.6062 37.7561 24.5991C38.8341 24.5708 39.9121 24.585 40.983 24.585ZM19.3811 18.1861C20.3464 18.1861 21.3116 18.1719 22.2769 18.1932C22.6503 18.2002 22.7912 18.0587 22.7841 17.6906C22.7701 17.2093 22.7701 16.7208 22.7841 16.2395C22.7912 15.8927 22.6432 15.7653 22.305 15.7653C20.445 15.7723 18.592 15.7723 16.7319 15.7653C16.4219 15.7653 16.281 15.8785 16.2599 16.2041C16.2388 16.6501 16.1824 17.096 16.126 17.5419C16.0485 18.1861 16.0415 18.1861 16.7038 18.1861C17.5986 18.1861 18.4934 18.1861 19.3811 18.1861ZM40.5814 18.1861C41.5255 18.1861 42.4767 18.1719 43.4208 18.1932C43.8365 18.2002 43.9492 18.0657 43.8717 17.6481C43.7801 17.1739 43.7449 16.6925 43.7167 16.2041C43.6956 15.8856 43.5617 15.7653 43.2517 15.7653C41.3776 15.7723 39.5034 15.7723 37.6293 15.7653C37.2981 15.7653 37.1925 15.9281 37.1995 16.2324C37.2066 16.7138 37.2136 17.2022 37.1995 17.6835C37.1854 18.0516 37.3263 18.1932 37.6997 18.1861C38.658 18.1719 39.6232 18.1861 40.5814 18.1861ZM18.0565 39.0533C16.7179 39.0533 15.3721 39.0533 14.0335 39.0533C13.8714 39.0533 13.7094 39.0533 13.5544 39.0745C13.2725 39.1099 13.2585 39.3506 13.2162 39.5558C13.1739 39.7894 13.3641 39.8107 13.5121 39.8673C13.7446 39.9593 13.9912 39.9947 14.2448 39.9947C16.894 39.9876 19.5361 39.9876 22.1853 39.9947C22.5094 39.9947 22.7912 40.0018 22.7841 39.5346C22.7771 39.0887 22.5305 39.0462 22.1923 39.0462C20.8114 39.0533 19.4375 39.0533 18.0565 39.0533ZM41.9694 39.0533C40.5744 39.0533 39.1793 39.0533 37.7773 39.0533C37.5095 39.0533 37.2277 39.025 37.1925 39.4284C37.1572 39.8461 37.2981 40.0018 37.735 40.0018C40.06 39.9876 42.3921 39.9876 44.7172 40.0018C45.2668 40.0089 45.7881 39.9664 46.2602 39.662C46.4222 39.5558 46.7534 39.5771 46.6618 39.2656C46.5843 38.9966 46.3095 39.0603 46.1052 39.0603C44.7242 39.0533 43.3503 39.0533 41.9694 39.0533ZM41.5537 41.6511C41.4762 41.5873 41.448 41.552 41.4198 41.552C40.525 41.5449 39.6302 41.5378 38.7355 41.5378C37.1854 41.5378 37.1854 41.5378 37.1854 43.1021C37.1854 44.5249 37.3686 44.6735 38.7848 44.447C38.9398 44.4187 39.0666 44.3762 39.13 44.2347C39.6373 43.088 40.4335 42.2244 41.5537 41.6511ZM16.2176 41.6652C18.2045 41.5024 19.8038 42.1182 20.8677 43.7533C21.2412 44.3267 21.6287 44.5107 22.2557 44.4612C22.6573 44.4329 22.7912 44.2842 22.7771 43.902C22.756 43.3074 22.7489 42.7128 22.7771 42.1182C22.7982 41.6581 22.601 41.5307 22.1712 41.5307C20.3252 41.5449 18.4793 41.5378 16.6404 41.5378C16.5276 41.5449 16.3938 41.5095 16.2176 41.6652ZM19.6136 10.69C18.74 10.69 17.8663 10.7113 16.9856 10.683C16.4994 10.6688 16.436 10.9165 16.436 11.3129C16.436 11.7093 16.4924 11.9571 16.9856 11.95C18.7329 11.9288 20.4873 11.9288 22.2346 11.95C22.7278 11.9571 22.7841 11.7164 22.7841 11.3129C22.7841 10.9236 22.7419 10.6617 22.2416 10.6759C21.368 10.7113 20.4873 10.69 19.6136 10.69ZM40.2432 11.9429C41.0676 11.9429 41.8919 11.9146 42.7092 11.95C43.2235 11.9712 43.294 11.7235 43.2869 11.2988C43.2869 10.8882 43.2094 10.6759 42.7303 10.683C41.0676 10.7042 39.4048 10.7042 37.742 10.683C37.2629 10.6759 37.1854 10.8953 37.1784 11.3059C37.1713 11.7447 37.27 11.9712 37.7702 11.9571C38.5945 11.9146 39.4189 11.9429 40.2432 11.9429ZM18.6484 33.525C19.832 33.525 21.0086 33.5179 22.1923 33.525C22.5305 33.525 22.7841 33.5038 22.7841 33.0508C22.7771 32.5836 22.4953 32.5907 22.1712 32.5978C20.9171 32.6048 19.6629 32.5978 18.4159 32.5978C17.359 32.5978 16.3022 32.619 15.2524 32.5907C14.7874 32.5836 14.7169 32.8809 14.6887 33.2065C14.6464 33.6383 15.0058 33.5109 15.2171 33.5179C16.3585 33.5321 17.507 33.525 18.6484 33.525ZM41.2719 33.525C42.4696 33.525 43.6674 33.5179 44.8722 33.5321C45.2879 33.5392 45.3443 33.3764 45.2597 33.0012C45.1752 32.6473 44.9638 32.6048 44.6749 32.6048C42.364 32.6119 40.06 32.6119 37.7491 32.6048C37.425 32.6048 37.1995 32.6473 37.1925 33.0649C37.1925 33.4684 37.3897 33.5392 37.7279 33.5392C38.9046 33.5179 40.0882 33.525 41.2719 33.525ZM19.4022 26.1422C18.3806 26.1422 17.3661 26.1493 16.3444 26.1422C15.8653 26.1351 15.9358 26.5103 15.9006 26.7864C15.8512 27.1474 16.1472 27.0695 16.3374 27.0695C18.3031 27.0766 20.2689 27.0695 22.2346 27.0766C22.5657 27.0766 22.7771 26.9987 22.7771 26.6023C22.7771 26.1989 22.5728 26.1281 22.2416 26.1352C21.2975 26.1493 20.3534 26.1422 19.4022 26.1422ZM40.673 27.0766C41.6383 27.0766 42.6035 27.0553 43.5688 27.0837C44.0408 27.0978 44.1042 26.9067 44.0338 26.5032C43.9704 26.1635 43.7519 26.1352 43.4842 26.1352C41.5678 26.1352 39.6584 26.1422 37.742 26.1352C37.4179 26.1352 37.1925 26.1705 37.1854 26.5882C37.1854 27.027 37.425 27.0766 37.7702 27.0766C38.7425 27.0695 39.7078 27.0766 40.673 27.0766ZM19.7898 20.6706C20.6141 20.6706 21.4314 20.6635 22.2487 20.6777C22.5939 20.6848 22.7841 20.5998 22.7771 20.2034C22.7701 19.8 22.5587 19.7221 22.2275 19.7363C21.9246 19.7433 21.6216 19.7363 21.3187 19.7363C20.0011 19.7363 18.6765 19.7504 17.359 19.7292C16.8658 19.7221 16.8729 20.0619 16.8376 20.3733C16.7954 20.7768 17.1195 20.6635 17.3238 20.6706C18.1481 20.6777 18.9725 20.6706 19.7898 20.6706ZM40.1516 19.7363C39.3837 19.7363 38.6157 19.7363 37.8477 19.7363C37.5236 19.7363 37.1995 19.6938 37.1854 20.1964C37.1784 20.6989 37.4813 20.6777 37.8195 20.6777C39.4048 20.6706 40.9971 20.6777 42.5824 20.6706C42.7937 20.6706 43.146 20.8193 43.1249 20.3804C43.1037 20.0335 43.0685 19.7079 42.5612 19.7292C41.758 19.7575 40.9548 19.7363 40.1516 19.7363ZM20.2054 13.5002C19.4868 13.5002 18.7752 13.5002 18.0565 13.5002C17.7958 13.5002 17.5422 13.4931 17.5492 13.8753C17.5563 14.2292 17.8099 14.208 18.0424 14.208C19.4586 14.208 20.8677 14.208 22.2839 14.208C22.5235 14.208 22.763 14.208 22.7701 13.8612C22.7771 13.5214 22.5516 13.5002 22.298 13.5002C21.6005 13.5002 20.903 13.5002 20.2054 13.5002ZM39.7993 14.208C40.5321 14.208 41.2648 14.208 41.9976 14.208C42.2371 14.208 42.4203 14.1585 42.4203 13.8541C42.4203 13.5568 42.2442 13.5002 42.0046 13.5002C40.5532 13.5002 39.1089 13.5002 37.6575 13.5002C37.432 13.5002 37.2206 13.5143 37.2066 13.8258C37.1925 14.1514 37.3897 14.208 37.6575 14.208C38.3691 14.208 39.0807 14.208 39.7993 14.208Z" fill="#836923"/>
</svg>
