<svg width="91" height="91" viewBox="0 0 91 91" fill="none" xmlns="http://www.w3.org/2000/svg">
<path d="M24.5048 89.2881C23.837 88.8772 23.563 88.278 23.5801 87.4904C23.6144 85.7782 23.6144 84.0661 23.5801 82.3711C23.563 81.4637 23.9397 80.8815 24.7103 80.4364C28.923 77.9367 33.1014 75.3856 37.3311 72.903C37.9819 72.5263 38.1702 72.1496 37.999 71.3963C37.5709 69.4787 37.2626 67.544 36.8688 65.6093C36.7147 64.8217 36.629 64.0341 36.629 63.2294C36.629 59.925 36.629 56.6206 36.629 53.3162C36.629 52.2204 36.5948 52.2033 35.6016 52.5799C25.2069 56.5007 14.7781 60.4044 4.3492 64.3081C2.6025 64.9587 1.72914 64.3594 1.71202 62.4932C1.71202 59.9079 1.72914 57.3054 1.69489 54.7201C1.67777 53.7784 2.05451 53.1621 2.87649 52.734C4.19508 52.0663 5.4623 51.2958 6.79802 50.6452C7.36313 50.3542 7.56862 49.9775 7.53437 49.3611C7.50013 48.5735 7.51725 47.7688 7.53437 46.9641C7.58575 44.9267 8.90434 43.2659 10.8908 42.7352C12.7574 42.2215 14.8294 43.0262 15.8055 44.7726C16.1994 45.4917 16.5248 45.4403 17.107 45.0808C18.066 44.5158 19.0421 44.0021 20.0353 43.4885C20.4977 43.2488 20.7032 42.9406 20.686 42.4099C20.6518 41.5024 20.6689 40.595 20.686 39.6704C20.7203 37.6844 22.056 35.9551 23.9226 35.4415C25.8405 34.9107 27.964 35.7154 28.9058 37.4789C29.334 38.2836 29.6765 38.2836 30.3957 37.8727C32.0739 36.8968 33.7521 35.938 35.4988 35.099C36.4235 34.6539 36.6633 34.0718 36.6462 33.113C36.5948 28.4388 36.6119 23.7647 36.629 19.1077C36.6633 14.5534 37.5709 10.1875 39.4375 6.00985C40.3279 4.02377 41.6465 2.55133 43.77 1.93497C46.6469 1.09602 49.7636 2.53421 51.1335 5.32499C53.0686 9.29715 54.1646 13.4576 54.3016 17.8921C54.4728 23.0798 54.353 28.2505 54.3701 33.4383C54.3701 34.1916 54.6098 34.6196 55.2948 34.9621C57.1956 35.938 59.0622 36.9653 60.9288 38.0097C61.4597 38.3007 61.6823 38.2151 61.9734 37.6844C63.018 35.7839 65.0045 34.9107 67.008 35.4072C68.9945 35.9037 70.3302 37.6672 70.3473 39.8245C70.3473 40.6806 70.3816 41.5367 70.3473 42.3927C70.3302 42.9235 70.5357 43.2317 70.9981 43.4714C72.094 44.0364 73.1558 44.6185 74.2346 45.2178C74.6456 45.4575 74.8511 45.4061 75.108 44.9781C76.2896 42.992 78.2418 42.1701 80.2453 42.7523C82.3003 43.3344 83.5161 45.0294 83.5161 47.3066C83.5161 47.786 83.5846 48.2825 83.499 48.7619C83.3106 49.909 83.8072 50.5425 84.8176 50.9876C85.9307 51.4842 86.9753 52.1348 88.0713 52.6998C88.5679 52.9566 88.9789 53.2819 89.27 53.7613C89.27 57.0657 89.27 60.3701 89.27 63.6746C88.448 64.6676 87.9856 64.8046 86.7527 64.3423C76.3067 60.4215 65.8607 56.5007 55.4147 52.5971C54.4386 52.2375 54.4043 52.2546 54.4043 53.2819C54.4043 56.6377 54.4043 59.9935 54.4043 63.3664C54.4043 64.1026 54.3358 64.8388 54.1817 65.575C53.805 67.5269 53.4796 69.4958 53.0344 71.4305C52.8631 72.1839 53.0858 72.5434 53.7194 72.9201C57.9149 75.4027 62.0761 77.9195 66.2545 80.4193C67.0765 80.8987 67.4875 81.515 67.4533 82.4909C67.4019 84.1346 67.419 85.7954 67.4533 87.439C67.4704 88.2437 67.2478 88.8943 66.5285 89.3224C65.9634 89.3224 65.3812 89.3224 64.8161 89.3224C60.0041 88.5005 55.2092 87.6787 50.3972 86.8398C50.0889 86.7884 49.8492 86.874 49.6608 87.1479C48.9587 88.2608 47.8799 88.8772 46.6983 89.3224C45.8934 89.3224 45.1057 89.3224 44.3008 89.3224C43.1192 88.8601 42.0404 88.2608 41.3383 87.1308C41.1157 86.7713 40.7903 86.8055 40.4307 86.874C38.5299 87.1993 36.629 87.5075 34.7282 87.8328C31.8855 88.3293 29.0257 88.8258 26.183 89.3224C25.6522 89.2881 25.0699 89.2881 24.5048 89.2881ZM51.2877 41.1257C51.2877 33.8663 51.3048 26.6068 51.2877 19.3303C51.2705 15.0499 50.4143 10.975 48.582 7.08849C47.9484 5.75303 47.0065 4.79423 45.4653 4.79423C43.9755 4.79423 43.0507 5.71879 42.4343 7.03713C40.7047 10.7867 39.8142 14.7417 39.7971 18.868C39.78 33.7293 39.78 48.6078 39.7971 63.4691C39.7971 63.8458 39.7971 64.2053 39.8656 64.5649C41.1328 71.1908 42.4171 77.7997 43.7015 84.4257C43.9412 85.6413 44.5235 86.1892 45.5338 86.1892C46.5613 86.1892 47.1435 85.6584 47.3833 84.4428C48.3594 79.4433 49.2327 74.4268 50.3116 69.4445C51.1164 65.7634 51.3733 62.0823 51.3219 58.3498C51.2363 52.6313 51.2877 46.8785 51.2877 41.1257ZM36.629 43.5741C36.629 42.1873 36.629 40.7833 36.629 39.3965C36.629 38.0439 36.629 38.0268 35.4646 38.6603C29.1627 42.0674 22.8437 45.4917 16.5419 48.8988C12.9115 50.8507 9.28108 52.8368 5.65067 54.7886C5.06844 55.0968 4.82869 55.4734 4.84582 56.1241C4.89719 57.3397 4.84582 58.5724 4.86294 59.788C4.86294 60.7297 4.93144 60.7639 5.77054 60.4558C7.26038 59.9079 8.75022 59.3429 10.2572 58.7779C18.7338 55.5933 27.2105 52.4087 35.6872 49.2584C36.4235 48.9845 36.6975 48.6078 36.6633 47.8202C36.5948 46.4162 36.629 44.9952 36.629 43.5741ZM54.4386 43.5227C54.4386 44.9952 54.4728 46.4847 54.4215 47.9572C54.4043 48.642 54.627 48.9844 55.2777 49.207C57.6409 50.046 59.9698 50.9534 62.3159 51.8266C69.9363 54.6859 77.5568 57.5451 85.1772 60.3873C86.1704 60.7639 86.1876 60.7468 86.2047 59.6339C86.2047 58.8121 86.1019 57.9732 86.2218 57.1685C86.4444 55.6789 85.8108 54.9256 84.4922 54.2236C78.4986 51.0733 72.5564 47.8031 66.597 44.5671C62.8639 42.5468 59.1307 40.5265 55.3976 38.5233C54.4386 38.0097 54.4215 38.0097 54.4215 39.1397C54.4386 40.6292 54.4386 42.0674 54.4386 43.5227ZM26.731 84.1517C26.731 84.6311 26.7481 84.9393 26.731 85.2646C26.7139 85.7611 26.868 85.9837 27.4331 85.881C31.5259 85.179 35.6187 84.4941 39.7286 83.8264C40.2594 83.7408 40.3622 83.5525 40.2594 83.0217C39.8142 80.8473 39.3861 78.6729 39.0093 76.4813C38.8724 75.7451 38.6326 75.6938 38.0161 76.0704C34.6768 78.1079 31.3547 80.1282 27.9811 82.08C27.0393 82.6279 26.4399 83.1929 26.731 84.1517ZM64.3366 84.4085C64.2852 83.6723 64.525 82.919 63.6345 82.4053C60.0726 80.3336 56.5278 78.1935 53.0173 76.0362C52.3836 75.6424 52.2124 75.8307 52.0925 76.4642C51.7158 78.4845 51.3219 80.4877 50.9281 82.4909C50.6883 83.7237 50.6883 83.7066 51.9213 83.912C55.5346 84.5113 59.165 85.0934 62.7783 85.7098C64.662 86.0351 64.3023 86.0179 64.3366 84.4085ZM23.7342 40.1156C23.7171 41.4682 23.7513 41.4853 24.7274 40.9545C25.1727 40.7148 25.6179 40.458 26.0803 40.2183C26.3885 40.0471 26.594 39.8416 26.457 39.465C26.2515 38.9 25.8919 38.4719 25.2412 38.4206C24.6076 38.3863 24.1281 38.6774 23.9055 39.2766C23.7685 39.6191 23.7513 39.9957 23.7342 40.1156ZM67.3334 40.1841C67.3163 40.1156 67.2991 39.8074 67.2306 39.4992C67.0594 38.763 66.5628 38.3863 65.8093 38.4206C65.1586 38.4548 64.7818 38.9 64.6106 39.465C64.4222 40.0642 64.9702 40.1498 65.3127 40.3553C65.6723 40.5779 66.0491 40.7833 66.4258 40.9717C67.3163 41.4682 67.3505 41.4511 67.3334 40.1841ZM10.6853 47.2894C10.6682 48.4537 10.7367 48.5051 11.6785 48.0085C12.1066 47.786 12.5176 47.5463 12.9457 47.3066C13.4081 47.0497 13.391 46.7073 13.1341 46.3135C12.7402 45.7143 12.1751 45.6115 11.5587 45.7999C10.8223 46.0396 10.6339 46.6559 10.6853 47.2894ZM80.3823 47.3237C80.4337 46.7073 80.2967 46.0738 79.5603 45.817C79.0295 45.6287 78.4815 45.6629 78.0705 46.1423C77.6766 46.6046 77.5568 47.0326 78.2246 47.375C78.6356 47.5805 79.0124 47.8031 79.4233 48.0257C80.331 48.4879 80.3823 48.4537 80.3823 47.3237Z" fill="#836923"/>
<path d="M45.4652 10.4785C46.9037 10.6155 48.1195 11.1634 48.736 12.5673C49.147 13.509 49.421 14.502 49.7464 15.4608C49.8662 15.8204 49.7977 16.0772 49.421 16.197C49.3696 16.2142 49.3182 16.2313 49.2669 16.2484C47.0578 17.1387 47.0749 17.1387 46.2872 14.8616C46.1331 14.4164 46.1844 13.6631 45.5337 13.6973C44.9172 13.7145 44.9344 14.4507 44.7802 14.8958C44.0096 17.0874 44.0268 17.0874 41.8691 16.2827C41.3211 16.0772 41.1669 15.8204 41.3724 15.2725C41.6978 14.4164 41.9376 13.5432 42.28 12.7043C42.8452 11.2832 43.9925 10.6497 45.4652 10.4785Z" fill="#836923"/>
</svg>
