<svg width="52" height="50" viewBox="0 0 52 50" fill="none" xmlns="http://www.w3.org/2000/svg">
<path d="M12.2127 1C13.453 1.19943 14.6487 1.52443 15.7554 2.1375C18.6742 3.76251 20.4121 6.21479 20.9394 9.50173C21.0063 9.91536 21.1474 10.0631 21.593 10.0631C30.966 10.0483 40.3389 10.0557 49.7118 10.0557C50.7665 10.0557 51.0338 10.3364 50.9967 11.3853C50.8556 15.6177 47.4614 19.3773 43.2726 19.9682C42.9309 20.0125 42.5893 20.079 42.2476 20.0421C41.8466 20.0052 41.7055 20.1898 41.6089 20.5518C41.1262 22.354 40.6434 24.1637 40.0492 25.9364C39.2842 28.2188 38.3187 30.42 36.7516 32.2887C35.7564 33.4705 34.5904 34.4234 33.053 34.8222C32.8153 34.8887 32.7336 35.0069 32.7336 35.2433C32.741 37.4813 32.7485 39.7268 32.7262 41.9649C32.7262 42.4302 33.053 42.3711 33.3055 42.4081C35.1103 42.6592 36.7219 43.3609 38.1553 44.4615C39.2842 45.3331 40.1532 46.4263 40.8885 47.6302C41.3118 48.3246 40.9108 48.9893 40.0641 48.9967C36.9522 49.0041 33.8328 48.9967 30.7209 48.9967C28.4111 48.9967 26.1012 48.9893 23.7914 48.9967C23.3829 48.9967 23.0116 48.9524 22.7962 48.5535C22.5734 48.1473 22.7219 47.8001 22.9522 47.4382C24.4227 45.0745 26.4503 43.4126 29.1686 42.6666C29.6365 42.541 30.1193 42.4524 30.602 42.3785C30.862 42.3416 30.9734 42.2456 30.9734 41.9723C30.966 39.7194 30.966 37.4592 30.9734 35.2063C30.9734 35.0143 30.9288 34.8887 30.7134 34.8296C28.5819 34.2461 27.193 32.7614 26.0344 31.0035C24.6455 28.891 23.8211 26.5347 23.1304 24.1194C22.7814 22.9006 22.4323 21.6745 22.1055 20.4483C22.0238 20.1455 21.8975 20.0273 21.5782 20.0273C20.1373 20.0421 18.8005 19.6506 17.5379 18.9858C17.2556 18.8381 17.0625 18.8529 16.8026 19.0375C12.7771 21.8665 7.45193 21.4307 3.93893 17.9961C0.240264 14.3694 0.00259793 8.34945 3.39676 4.45683C5.05299 2.55853 7.13256 1.42102 9.62805 1.0517C9.68004 1.04432 9.73946 1.02216 9.79145 1H12.2127ZM16.3941 15.9574C16.9734 16.5483 17.5527 17.0063 18.1989 17.3756C19.4837 18.1069 20.8726 18.3506 22.3432 18.3063C23.1304 18.2841 23.3904 18.5131 23.5909 19.2591C23.9103 20.4262 24.2296 21.6006 24.5564 22.7677C25.1209 24.7768 25.7225 26.7711 26.6806 28.6398C27.4381 30.1171 28.3368 31.4836 29.7182 32.466C31.0699 33.4336 32.4439 33.4705 33.8477 32.5694C34.3601 32.2444 34.8057 31.8381 35.1994 31.3876C36.2317 30.2131 36.9819 28.8688 37.5835 27.4432C38.6827 24.8432 39.3214 22.0955 40.0864 19.3921C40.3537 18.454 40.5468 18.2767 41.5346 18.2989C42.6264 18.3211 43.6811 18.1881 44.6911 17.7745C45.6715 17.3682 46.5182 16.7921 47.2906 15.9574H16.3941ZM31.7904 11.8137V11.821H15.0869C14.983 11.821 14.8864 11.8284 14.7824 11.821C14.5299 11.8137 14.4556 11.9245 14.5076 12.1682C14.6116 12.6409 14.7527 13.1063 14.8938 13.5716C15.0349 14.0444 15.2875 14.1921 15.7925 14.1921C26.4874 14.1773 37.175 14.1773 47.8699 14.1773C47.9887 14.1773 48.1002 14.1699 48.2116 14.1773C48.4269 14.1921 48.5532 14.0961 48.6349 13.8966C48.8206 13.4313 48.9765 12.9586 49.0731 12.4637C49.1919 11.8211 49.1919 11.8137 48.5383 11.8137C42.9532 11.8137 37.3755 11.8137 31.7904 11.8137ZM25.2768 47.2388C25.4774 47.2461 25.5739 47.2609 25.6705 47.2609C29.7776 47.2609 33.8774 47.2609 37.9845 47.2609C38.0291 47.2609 38.0736 47.2609 38.1108 47.2609C38.1925 47.2535 38.3039 47.2905 38.3484 47.2018C38.4079 47.091 38.289 47.0245 38.237 46.9507C38.1925 46.8916 38.1405 46.8399 38.0959 46.7882C35.6599 44.166 31.8424 43.3461 28.5447 44.7495C27.2673 45.2814 26.1978 46.0939 25.2768 47.2388ZM8.78137 10.0557C8.79622 10.0262 8.8185 9.98923 8.83336 9.95968C7.47421 8.61536 6.11506 7.27104 4.75591 5.92672C4.59994 5.7716 4.51824 5.85285 4.41426 5.98581C3.58243 7.08638 3.05511 8.3199 2.83973 9.68639C2.80259 9.92275 2.86201 10.0705 3.15167 10.0705C5.03071 10.0483 6.90975 10.0557 8.78137 10.0557ZM11.8933 15.4551C11.8933 16.5114 11.9082 17.5677 11.8859 18.6239C11.8784 19.0006 12.0196 19.1114 12.3686 19.0449C13.4233 18.8529 14.4111 18.4983 15.332 17.937C15.5994 17.7745 15.6291 17.6637 15.3914 17.4347C13.8912 15.9944 13.0296 14.229 12.7251 12.1978C12.6731 11.8284 12.4949 11.8137 12.2127 11.8137C11.8859 11.8137 11.8933 12.0279 11.8933 12.2495C11.8933 13.3131 11.8933 14.3841 11.8933 15.4551ZM13.1782 9.87843C13.2153 9.93752 13.2599 9.98923 13.297 10.0483C15.1835 10.0483 17.0774 10.0483 18.9639 10.0483C19.2238 10.0483 19.2238 9.91536 19.1941 9.70854C18.9936 8.37161 18.4737 7.16763 17.6938 6.06706C17.4933 5.78638 17.367 5.85285 17.1665 6.05229C15.993 7.22672 14.8196 8.39377 13.6387 9.56082C13.505 9.69377 13.3341 9.77502 13.1782 9.87843ZM11.8933 8.65968C11.9304 8.67445 11.9601 8.68922 11.9973 8.69661C13.3341 7.36706 14.671 6.0449 16.0153 4.71535C16.201 4.53808 16.1044 4.42728 15.941 4.3091C14.8418 3.52614 13.6312 3.00171 12.2869 2.79489C11.9601 2.74319 11.8933 2.85398 11.9007 3.14944C11.9082 4.83353 11.9082 6.51763 11.9082 8.19434V8.65968H11.8933ZM10.0885 8.66706C10.1034 8.61536 10.1182 8.56366 10.1182 8.51195C10.1182 6.70229 10.1182 4.89262 10.1257 3.08296C10.1257 2.7875 9.99198 2.76535 9.74688 2.80228C8.44715 2.99432 7.27368 3.48921 6.19676 4.23524C5.89967 4.44205 5.85511 4.57501 6.13734 4.84831C7.37023 6.0449 8.57341 7.26365 9.79145 8.46763C9.88057 8.54888 9.93256 8.65968 10.0885 8.66706ZM10.0588 13.1358C8.68482 14.4949 7.3628 15.8171 6.03336 17.1319C5.81055 17.3535 5.9888 17.4495 6.14477 17.5603C7.1697 18.3063 8.30604 18.7938 9.55378 19.0228C10.0662 19.1188 10.1331 19.0597 10.1331 18.55C10.1331 16.9841 10.1331 15.4108 10.1331 13.8449C10.1257 13.6307 10.1628 13.4165 10.0588 13.1358ZM8.77394 11.8728C8.68482 11.8432 8.66254 11.821 8.63283 11.821C6.8132 11.821 4.98615 11.821 3.16652 11.8137C2.81002 11.8137 2.81745 12.0279 2.86201 12.2716C3.08482 13.5421 3.57501 14.7017 4.32514 15.758C4.52567 16.0387 4.65193 16.0239 4.88217 15.7949C6.1002 14.5688 7.33309 13.35 8.55856 12.1313C8.63283 12.0574 8.68482 11.9762 8.77394 11.8728Z" fill="#836923" stroke="#836923"/>
</svg>
