<svg width="210" height="244" viewBox="0 0 210 244" fill="none" xmlns="http://www.w3.org/2000/svg">
<g clip-path="url(#clip0_0_38)">
<g opacity="0.68">
<path d="M69.8266 243.226C76.5212 238.208 76.7694 231.393 77.2433 224.766C69.2399 223.557 61.4997 222.941 54.0379 221.16C25.1834 214.285 4.29468 191.558 1.12791 162.482C-2.47514 129.378 19.8954 95.7866 53.6994 87.5295C58.1374 86.4476 62.8085 86.3274 67.3669 85.7639C67.412 86.087 67.4572 86.4101 67.5023 86.7256C66.8103 86.8609 66.1333 87.0712 65.4337 87.1313C37.8805 89.3853 18.5188 103.706 7.77738 128.567C-2.61054 152.617 0.0296917 175.945 16.9919 196.554C28.651 210.724 44.4021 218.147 62.3271 221.122C67.0134 221.896 71.7748 222.227 76.9199 222.805C77.0553 220.822 77.2433 219.394 77.2433 217.974C77.2584 181.828 77.2734 145.682 77.2283 109.536C77.2283 107.282 76.9349 104.99 76.446 102.789C75.4832 98.5289 73.9562 94.5394 69.6235 92.1126H97.8085C90.3693 95.8166 89.2259 101.76 89.2259 108.259C89.2259 144.863 89.2184 181.46 89.2109 218.065C89.2109 219.079 89.2109 220.086 89.2109 221.438C99.4935 220.506 108.836 217.569 117.546 212.693C147.055 196.178 160.979 157.884 148.627 127.057C143.166 113.428 133.643 102.751 122.082 94.1787C109.001 84.4792 95.0705 75.9291 81.8017 66.4699C74.5053 61.2708 67.3368 55.711 60.9431 49.4675C49.991 38.7686 53.7896 22.7879 61.3418 14.4182C70.9173 3.78696 83.4791 0.473621 97.2218 0.766638C108.941 1.01457 119.983 4.16262 130.071 10.1807C131.492 11.0297 132.681 12.9231 133.14 14.5685C134.23 18.4904 134.839 22.555 135.577 26.5671C135.682 27.1456 135.449 27.7767 134.509 28.776C133.674 27.4537 132.733 26.1839 132.019 24.8015C122.451 6.23628 95.5219 -2.0358 77.6946 8.17469C70.4735 12.307 65.87 18.4077 64.1776 26.5821C63.117 31.6836 64.847 35.9962 68.1868 39.7754C69.1647 40.8798 70.4509 41.7363 71.331 42.9084C76.7017 49.9784 83.8928 47.6718 90.9109 46.9806C122.436 43.8851 151.568 49.8281 176.504 70.497C189.457 81.2259 198.318 94.87 203.832 110.73C207.344 120.836 209.052 131.302 209.232 141.91C209.578 162.031 203.057 180.235 192.172 196.9C175.331 222.685 151.606 237.975 120.984 242.197C115.47 242.956 109.844 243.084 104.27 243.174C94.2205 243.332 84.1711 243.234 74.1217 243.241C72.6925 243.241 71.2558 243.241 69.8266 243.241V243.226ZM89.414 240.123C99.7944 240.123 110.182 240.875 120.427 239.958C137.397 238.433 152.276 231.31 164.74 219.74C182.349 203.406 190.856 182.467 193.827 159.131C196.099 141.309 194.64 123.713 188.419 106.688C179.362 81.9021 162.776 64.3061 138.232 54.3135C123.955 48.4982 109.009 47.5215 93.852 48.378C89.9706 48.5959 86.1268 49.4299 82.268 49.9784C82.2229 50.2789 82.1778 50.5869 82.1402 50.8875C83.449 51.7214 84.7729 52.5329 86.0667 53.4044C100.712 63.2392 115.764 72.5331 129.875 83.0817C145.303 94.607 157.022 109.378 162.942 128.101C166.605 139.686 168.049 151.61 165.078 163.443C159.361 186.238 145.009 202.324 124.444 213.211C113.522 218.989 101.743 221.859 89.414 223.497V240.131V240.123Z" fill="#836923" stroke="#836923" stroke-width="2" stroke-miterlimit="10"/>
</g>
</g>
<defs>
<clipPath id="clip0_0_38">
<rect width="210" height="244" fill="white"/>
</clipPath>
</defs>
</svg>
