<svg width="118" height="40" viewBox="0 0 118 40" fill="none" xmlns="http://www.w3.org/2000/svg">
<path d="M116.033 23.6471L116.024 23.6714L115.97 23.7734C115.897 23.9192 115.858 24.0697 115.858 24.2203C115.858 24.4438 115.926 24.6964 116.072 24.9829C116.291 25.4201 116.631 25.5075 116.883 25.5075C117.184 25.5075 117.407 25.4298 117.548 25.2695C117.631 25.1772 117.728 25.0072 117.694 24.7401C117.655 24.4049 117.539 24.06 117.344 23.7103C116.3 21.6896 114.552 20.2615 112.153 19.4649C109.798 18.6877 106.977 18.2894 103.767 18.2894C100.295 18.2894 96.5564 18.6245 92.6572 19.29C88.7676 19.9506 84.8198 20.8104 80.9109 21.8353C77.0116 22.8602 73.1609 23.992 69.4656 25.1967C65.7946 26.3916 62.3712 27.5234 59.2975 28.558C56.2383 29.5878 53.5627 30.4524 51.3533 31.1325C49.1633 31.8077 47.5657 32.1477 46.6188 32.1477C45.9779 32.1477 45.4777 32.0214 45.1232 31.7785C44.7639 31.5259 44.492 31.2199 44.322 30.8653C44.1521 30.5059 44.0695 30.1173 44.0841 29.7092C44.0986 29.3546 44.1521 29.0486 44.2443 28.7912C44.424 28.8689 44.6474 28.8786 44.827 28.8786C45.6331 28.8786 46.4246 28.5289 47.1821 27.8343C47.9056 27.1688 48.4835 26.4256 48.9011 25.6096C49.3284 24.7838 49.5226 24.0066 49.4838 23.2926C49.4401 22.4765 48.9448 22.0296 48.0902 22.0296C47.4929 22.0296 46.8519 22.3308 46.1867 22.9185C45.8273 23.2391 45.4826 23.6083 45.1572 24.0212C44.997 24.1183 44.8416 24.2835 44.6862 24.5312V24.5409L44.6765 24.5506C44.2929 25.2452 43.749 26.1536 43.0546 27.2465C42.3602 28.3443 41.5833 29.4226 40.753 30.4621C39.9226 31.5016 39.0728 32.41 38.2328 33.1677C37.4267 33.8915 36.6789 34.2752 36.0136 34.3044C35.5329 34.3044 35.1493 34.0566 34.8531 33.5515C34.518 32.988 34.2752 32.2983 34.1247 31.5113C33.9693 30.7002 33.8722 29.8452 33.8382 28.9709C33.8042 28.0868 33.7848 27.3388 33.7848 26.7413C33.7848 25.5027 33.712 24.4583 33.5712 23.6374C33.3624 22.4376 32.702 22.1851 32.1824 22.1851C31.6628 22.1851 31.0801 22.4571 30.4634 22.9962C29.8904 23.5014 29.2931 24.1523 28.6862 24.9344C28.084 25.7116 27.4916 26.6005 26.9284 27.572C26.3651 28.5434 25.8455 29.5101 25.389 30.433C24.9326 31.3656 24.5393 32.2594 24.2188 33.09C24.1848 33.1774 24.1508 33.2649 24.1217 33.3523C24.1411 32.7694 24.1654 32.1525 24.1945 31.5211C24.2285 30.8605 24.2722 30.1853 24.3256 29.5004C24.379 28.83 24.4421 28.2326 24.5101 27.7225C24.5441 27.3388 24.5878 27.0036 24.6412 26.7073C24.6898 26.4256 24.7481 26.1584 24.8112 25.9059C24.8792 25.8039 24.9423 25.6873 25.0103 25.5513L25.0637 25.4444L25.2142 25.1432C25.593 24.5603 26.1514 23.6763 26.9186 22.4376C27.6713 21.2281 28.4968 19.8486 29.3708 18.3477C30.2449 16.8419 31.1335 15.2243 32.0124 13.5437C32.8913 11.8533 33.6731 10.2163 34.3384 8.6765C35.0085 7.12697 35.5281 5.69403 35.8777 4.42624C36.2467 3.0953 36.3147 2.09466 36.0865 1.36605V1.35147L36.0719 1.3369C35.8583 0.870586 35.5038 0.569425 35.0133 0.438274C34.9162 0.413986 34.8094 0.399414 34.7026 0.399414C34.2752 0.399414 33.8042 0.598569 33.2652 1.01631C32.7894 1.38548 32.2552 1.97323 31.6822 2.76013C31.1141 3.53732 30.5265 4.47967 29.9244 5.55316C29.3271 6.62666 28.7299 7.82159 28.1472 9.10396C27.5645 10.3912 27.006 11.7318 26.4816 13.0968C25.8115 14.9669 25.2142 16.9099 24.7092 18.8723C24.1994 20.8395 23.772 22.7874 23.4419 24.6624C23.3933 24.9392 23.3496 25.2161 23.301 25.493C23.1214 25.8281 22.9223 26.207 22.7038 26.6393C22.2861 27.4554 21.8103 28.3589 21.2859 29.3206C20.7711 30.2678 20.1981 31.2539 19.5814 32.2594C18.9745 33.2455 18.3335 34.1587 17.678 34.9698C17.0273 35.7762 16.362 36.4319 15.7016 36.9225C15.0704 37.3937 14.4294 37.6317 13.7933 37.6317C13.2494 37.6317 12.8318 37.4374 12.521 37.0294C12.1763 36.5874 11.8995 36.0336 11.7004 35.3827C11.4965 34.7173 11.3605 33.9935 11.2925 33.2309C11.2245 32.4585 11.1905 31.7494 11.1905 31.1228C11.1225 29.1361 11.2342 27.0911 11.5304 25.0267C11.8267 22.9525 12.1714 21.0193 12.555 19.2803C12.9581 17.3276 13.4339 15.3992 13.9632 13.5534C14.5702 13.5534 15.3326 13.5339 16.2309 13.4999C17.2409 13.4659 18.2704 13.4368 19.2804 13.4222C20.3001 13.4028 21.2373 13.3882 22.0968 13.3688C22.9028 13.3542 23.4564 13.3445 23.7769 13.3445L24.0683 13.5097C24.3159 13.6845 24.5587 13.772 24.7821 13.772C24.8355 13.772 24.884 13.772 24.9326 13.7574C25.19 13.7088 25.3988 13.5971 25.5493 13.4222C25.6998 13.2474 25.7775 13.0239 25.7775 12.7616C25.7775 12.5673 25.7144 12.2904 25.4182 12.0476C25.2919 11.931 25.0443 11.8144 24.1897 11.7658C23.5827 11.7318 22.8591 11.7124 22.0385 11.7124C21.2179 11.7124 20.3341 11.7318 19.3921 11.7658C18.45 11.7998 17.5808 11.8484 16.8039 11.897C15.993 11.9504 15.352 11.9844 14.8373 12.0038C14.6625 12.0087 14.5216 12.0136 14.4051 12.0136H14.3954C14.4197 11.9261 14.4585 11.8047 14.5119 11.6444L14.6819 11.1392L15.0946 9.90543C15.3229 9.22053 15.5754 8.46763 15.857 7.64186C16.1387 6.82096 16.4203 6.04376 16.6971 5.33458C16.9787 4.61568 17.2264 3.98421 17.4352 3.43532C17.7168 2.71156 17.8236 2.58041 17.8431 2.56098L17.8528 2.55126L17.8625 2.54155C18.0907 2.26467 18.183 1.96837 18.1344 1.65749C18.0858 1.34662 17.945 1.11346 17.7217 0.962878C17.5566 0.851156 17.372 0.797725 17.1778 0.797725C17.1147 0.797725 17.0515 0.802582 16.9884 0.817154C16.7019 0.870586 16.464 1.07946 16.2795 1.44376C16.2018 1.59435 16.095 1.8615 15.9493 2.26467C15.8376 2.57555 15.7065 2.93014 15.5608 3.32845L15.4491 3.63447C15.2549 4.16879 15.0558 4.7614 14.8664 5.38801C14.677 6.01462 14.4877 6.6558 14.3128 7.29213C13.8758 8.7105 13.4097 10.3232 12.9338 12.0767C12.7687 12.0961 12.4094 12.135 11.6178 12.1933C10.6418 12.2613 9.49585 12.3682 8.20904 12.509C6.91739 12.6499 5.65485 12.8005 4.46517 12.9559C3.22207 13.1162 2.38202 13.2862 1.89644 13.4708H1.88187L1.8673 13.4805C1.35744 13.7331 1.0758 14.0245 1.00296 14.3597C0.910699 14.7823 1.06122 15.0592 1.20204 15.2146C1.39627 15.4332 1.64392 15.5498 1.91585 15.5498C2.07609 15.5498 2.44999 15.4866 2.5374 14.9183C2.60052 14.8649 2.92587 14.6657 4.35834 14.4374C4.7808 14.3694 5.45578 14.2771 6.37353 14.1751C7.29614 14.0731 8.24303 13.976 9.18506 13.8837C10.1854 13.7914 11.0012 13.7234 11.681 13.6748C12.0209 13.6505 12.288 13.636 12.4676 13.6311C12.4239 13.84 12.3317 14.2334 12.1423 14.9475C11.8606 16.0161 11.5499 17.4248 11.2148 19.1297C10.8798 20.8298 10.569 22.7679 10.2922 24.8907C10.0106 27.0182 9.88431 29.1895 9.92316 31.3365C9.92316 32.1137 9.96686 32.9637 10.0543 33.8624C10.1417 34.7756 10.3262 35.6305 10.5933 36.4076C10.8652 37.1946 11.2488 37.8746 11.7295 38.4235C12.2394 39.0112 12.9338 39.3124 13.7884 39.3124C15.0218 39.3124 16.2115 38.7149 17.3186 37.5346C18.3772 36.4028 19.3921 35.0476 20.3292 33.5078C21.2227 32.0408 22.0531 30.535 22.8009 29.0389C22.762 29.3741 22.728 29.7092 22.694 30.0395C22.5338 31.7251 22.4658 33.2357 22.4804 34.523C22.4998 35.8248 22.6164 36.8691 22.8349 37.6269C23.0825 38.5012 23.4807 38.9432 24.0051 38.9432C24.2528 38.9432 24.6849 38.8364 24.8161 38.1272C24.884 37.7435 24.9569 37.4131 25.0248 37.146V37.1314L25.0297 37.1168C25.2385 35.6353 25.6658 34.0906 26.3019 32.5217C26.9429 30.9382 27.647 29.4809 28.39 28.184C29.1329 26.8871 29.8661 25.8039 30.5751 24.9587C31.4249 23.9434 31.8473 23.7443 32.027 23.72C32.2358 23.7346 32.3086 24.0989 32.3329 24.4049C32.3863 25.0267 32.4106 25.8136 32.4106 26.7511C32.4106 27.5914 32.4203 28.5143 32.4349 29.4955C32.4543 30.5253 32.5612 31.5113 32.7554 32.4245C32.9545 33.3523 33.2992 34.1635 33.78 34.8241C34.2898 35.5333 35.0425 35.8928 36.0136 35.8928C36.9848 35.8928 37.956 35.4264 38.9709 34.4987C39.9469 33.6146 40.8987 32.5508 41.797 31.3511C42.1515 30.8799 42.4865 30.399 42.8167 29.9181C42.8167 30.1318 42.8167 30.3358 42.8361 30.5399C42.9138 31.4288 43.2392 32.1817 43.8121 32.7694C44.39 33.3717 45.3272 33.6729 46.5994 33.6729C47.658 33.6729 49.2944 33.3232 51.6106 32.6043C53.8638 31.9048 56.5782 31.0159 59.6762 29.9667C62.716 28.9369 66.1636 27.7857 69.9172 26.5422C73.6174 25.3181 77.4681 24.1669 81.3576 23.1225C85.2423 22.0782 89.1852 21.1941 93.0796 20.4947C96.9595 19.8001 100.674 19.4455 104.117 19.4455C106.953 19.4455 109.478 19.7758 111.619 20.4315C113.654 21.0581 115.13 22.1365 116.014 23.6423L116.033 23.6471ZM117.412 24.7692C117.432 24.9198 117.393 25.0315 117.305 25.1044C117.393 25.0315 117.427 24.9198 117.412 24.7692C117.388 24.5458 117.32 24.3175 117.213 24.0843C117.32 24.3175 117.383 24.5458 117.412 24.7692ZM47.1481 24.0163C47.3909 23.8172 47.624 23.7151 47.8328 23.7151C47.9396 23.7151 47.9833 23.7394 47.9882 23.7443C47.9979 23.754 48.0125 23.8026 47.9979 23.9094C47.9493 24.2203 47.7891 24.5992 47.5123 25.0364C47.2258 25.493 46.8811 25.9399 46.4926 26.3625C46.1138 26.7753 45.7739 27.0668 45.4826 27.2271C45.3029 27.3291 45.1378 27.3777 44.997 27.3777C44.963 27.3777 44.9242 27.3777 44.8902 27.3679C44.8902 27.3048 44.9096 27.1396 45.0844 26.7656C45.2252 26.5228 45.4049 26.2167 45.6282 25.8621C45.8467 25.5075 46.0896 25.1627 46.3469 24.8324C46.5946 24.5166 46.8665 24.2398 47.1481 24.0066V24.0163ZM45.4146 27.5817C45.4146 27.5817 45.3757 27.5962 45.3612 27.6011C45.3806 27.5962 45.4 27.5865 45.4146 27.5817ZM45.2058 27.6448C45.2058 27.6448 45.1767 27.6545 45.1621 27.6545C45.1767 27.6545 45.1912 27.6497 45.2058 27.6448ZM44.1909 28.3492C44.1909 28.3492 44.1812 28.3492 44.1812 28.3443C44.1812 28.3443 44.1909 28.3443 44.1909 28.3492ZM44.1472 28.3492C44.1472 28.3492 44.1472 28.3492 44.1423 28.3492C44.1423 28.3492 44.1423 28.3492 44.1472 28.3492ZM44.0889 28.4269C44.0889 28.4269 44.0938 28.4123 44.0987 28.4074C44.0987 28.4123 44.0938 28.422 44.0889 28.4269ZM34.6977 2.61441C34.6977 3.56161 34.4355 4.7614 33.9256 6.17977C33.4061 7.61758 32.7554 9.16224 31.9882 10.7652C31.2258 12.3633 30.3663 13.976 29.4437 15.5644C28.5211 17.1479 27.6664 18.5808 26.8944 19.8243C26.1271 21.063 25.4716 22.0733 24.952 22.8165C24.9083 22.8797 24.8695 22.938 24.8306 22.9914C24.8598 22.8554 24.8986 22.6999 24.9423 22.5251C25.1511 21.675 25.4425 20.587 25.8066 19.2949C26.1708 18.0077 26.6418 16.5796 27.1954 15.0446C27.749 13.5194 28.3948 11.965 29.1086 10.43C29.8176 8.9048 30.6188 7.43785 31.488 6.06319C32.3475 4.70311 33.275 3.54218 34.2364 2.61441C34.4452 2.42497 34.586 2.30839 34.6831 2.24039C34.6929 2.32782 34.6977 2.44926 34.6977 2.61927V2.61441ZM24.8549 23.448C24.8355 23.4771 24.8161 23.5014 24.7966 23.5257C24.8161 23.5014 24.8306 23.4771 24.8549 23.448ZM24.4082 24.0115C24.4082 24.0115 24.413 24.0115 24.4179 24.0066L24.4082 24.0115ZM24.4422 23.9872C24.4422 23.9872 24.4567 23.9726 24.4616 23.9629C24.4519 23.9726 24.447 23.9775 24.4422 23.9872ZM24.4956 23.924C24.4956 23.924 24.515 23.8997 24.5247 23.8852C24.515 23.8997 24.5053 23.9094 24.4956 23.924ZM24.5733 23.8269C24.5733 23.8269 24.5975 23.7929 24.6121 23.7783C24.5975 23.7977 24.5878 23.8123 24.5733 23.8269ZM24.6752 23.6909C24.6752 23.6909 24.7044 23.652 24.7238 23.6277C24.7092 23.652 24.6947 23.6714 24.6752 23.6909ZM24.952 23.3071C24.9714 23.2828 24.986 23.2585 25.0054 23.2294C24.986 23.2585 24.9666 23.2828 24.952 23.3071ZM34.7074 1.87608C34.7074 1.87608 34.7268 1.86636 34.7366 1.8615C34.7268 1.8615 34.7171 1.86636 34.7074 1.87608ZM34.7705 1.85179C34.7705 1.85179 34.7851 1.85179 34.7948 1.85179C34.7851 1.85179 34.7803 1.85179 34.7705 1.85179ZM34.319 2.15295C34.319 2.15295 34.3481 2.12866 34.3675 2.11409C34.3529 2.12866 34.3384 2.13838 34.319 2.15295ZM34.4355 2.0558C34.4355 2.0558 34.4646 2.03152 34.4792 2.0218C34.4646 2.03152 34.4501 2.04123 34.4355 2.0558ZM34.5423 1.97808C34.5423 1.97808 34.5715 1.95865 34.5812 1.94894C34.5666 1.95865 34.5569 1.96837 34.5423 1.97808ZM34.6346 1.91979C34.6346 1.91979 34.6589 1.90522 34.6686 1.90036C34.6589 1.90522 34.6443 1.91494 34.6346 1.91979ZM34.1878 2.26953C34.1878 2.26953 34.217 2.24524 34.2316 2.23067C34.217 2.24524 34.2024 2.25496 34.1878 2.26953ZM33.7217 1.06003C33.7654 1.03088 33.8139 1.00174 33.8576 0.97745C33.8139 1.00174 33.7703 1.03088 33.7217 1.06003ZM33.9256 0.93859C33.9693 0.914303 34.0082 0.894873 34.0519 0.875444C34.013 0.894873 33.9693 0.919161 33.9256 0.93859ZM34.7511 0.695718C34.7269 0.695718 34.6977 0.695718 34.6734 0.695718C34.6929 0.695718 34.7074 0.695718 34.7269 0.695718C34.7366 0.695718 34.7463 0.695718 34.7511 0.695718ZM34.1102 0.846299C34.1587 0.822012 34.2073 0.807439 34.251 0.788009C34.2024 0.807439 34.1587 0.822012 34.1102 0.846299ZM34.285 0.773437C34.3432 0.754008 34.3967 0.739435 34.4549 0.724863C34.4015 0.739435 34.3432 0.754008 34.285 0.773437ZM34.4986 0.715148C34.5375 0.705433 34.5763 0.700576 34.6152 0.695718C34.5763 0.695718 34.5375 0.705433 34.4986 0.715148ZM33.6586 1.10374C33.5906 1.14746 33.5274 1.19604 33.4595 1.24947C33.5274 1.19604 33.5954 1.14746 33.6586 1.10374ZM12.6473 13.3494C12.6473 13.3494 12.6279 13.3494 12.6182 13.3494C12.6279 13.3494 12.6376 13.3494 12.6473 13.3494ZM12.7881 13.3591C12.7881 13.3591 12.7784 13.3591 12.7735 13.3591C12.7784 13.3591 12.7833 13.3591 12.7881 13.3591ZM12.7347 13.3542C12.7347 13.3542 12.7201 13.3542 12.7104 13.3542C12.7201 13.3542 12.7298 13.3542 12.7347 13.3542ZM14.2789 12.2953C14.3177 12.2953 14.3663 12.2953 14.4197 12.2953C14.3663 12.2953 14.3226 12.2953 14.2789 12.2953ZM14.1817 12.2904C14.2109 12.2904 14.24 12.2904 14.2789 12.2953C14.24 12.2953 14.206 12.2953 14.1817 12.2904ZM14.0846 12.2613C14.0846 12.2613 14.0943 12.271 14.104 12.2759C14.0943 12.2759 14.0846 12.2662 14.0846 12.2613ZM14.1186 12.2807C14.1186 12.2807 14.1429 12.2856 14.1623 12.2904C14.1429 12.2904 14.1283 12.2904 14.1186 12.2807ZM24.4713 13.3931C24.5101 13.4125 24.5441 13.4271 24.5781 13.4368C24.5441 13.4222 24.5053 13.4077 24.4713 13.3931ZM24.6364 13.4562C24.6704 13.4659 24.6995 13.4708 24.7335 13.4757C24.7044 13.4757 24.6704 13.4659 24.6364 13.4562ZM24.8161 13.4854C24.8161 13.4854 24.7966 13.4854 24.7869 13.4854C24.8306 13.4854 24.8743 13.4854 24.918 13.4805C24.884 13.4854 24.85 13.4902 24.8161 13.4902V13.4854ZM14.881 12.2904C14.8033 12.2904 14.7304 12.2904 14.6625 12.2953C14.7304 12.2953 14.8033 12.2953 14.881 12.2904ZM17.4303 1.12317C17.4303 1.12317 17.4012 1.11346 17.3866 1.1086C17.4012 1.1086 17.4157 1.11832 17.4303 1.12317ZM17.2118 1.08431C17.1681 1.08431 17.1195 1.08431 17.071 1.09889C17.1195 1.08917 17.1681 1.08431 17.2118 1.08431ZM11.7004 13.3979C11.8024 13.3882 11.8898 13.3834 11.9772 13.3785C11.8898 13.3834 11.7975 13.3882 11.7004 13.3979ZM12.0597 13.3736C12.1131 13.3736 12.1666 13.3688 12.2151 13.3639C12.1666 13.3639 12.1131 13.3688 12.0597 13.3736ZM12.2977 13.3591C12.3414 13.3591 12.3802 13.3591 12.4191 13.3542C12.3802 13.3542 12.3414 13.3542 12.2977 13.3591Z" fill="#836923"/>
<path d="M117.412 24.7692C117.432 24.9198 117.393 25.0315 117.305 25.1044C117.393 25.0315 117.427 24.9198 117.412 24.7692ZM117.412 24.7692C117.388 24.5458 117.32 24.3175 117.213 24.0843C117.32 24.3175 117.383 24.5458 117.412 24.7692ZM44.9873 27.6691C44.9144 27.6691 44.8464 27.6594 44.7785 27.64M14.2789 12.2953C14.3177 12.2953 14.3663 12.2953 14.4197 12.2953C14.3663 12.2953 14.3226 12.2953 14.2789 12.2953ZM14.2789 12.2953C14.24 12.2904 14.2109 12.2904 14.1817 12.2904C14.206 12.2953 14.24 12.2953 14.2789 12.2953ZM24.2528 13.2668C24.311 13.3056 24.3645 13.3396 24.4179 13.3688M14.4731 12.3002C14.5168 12.3002 14.5605 12.3002 14.6091 12.3002M12.487 13.3542C12.5259 13.3542 12.5599 13.3542 12.589 13.3542M88.6705 21.0824C89.6514 20.8735 90.6274 20.6744 91.6083 20.4898M116.033 23.6471L116.024 23.6714L115.97 23.7734C115.897 23.9192 115.858 24.0697 115.858 24.2203C115.858 24.4438 115.926 24.6964 116.072 24.9829C116.291 25.4201 116.631 25.5075 116.883 25.5075C117.184 25.5075 117.407 25.4298 117.548 25.2695C117.631 25.1772 117.728 25.0072 117.694 24.7401C117.655 24.4049 117.539 24.06 117.344 23.7103C116.3 21.6896 114.552 20.2615 112.153 19.4649C109.798 18.6877 106.977 18.2894 103.767 18.2894C100.295 18.2894 96.5564 18.6245 92.6572 19.29C88.7676 19.9506 84.8198 20.8104 80.9109 21.8353C77.0116 22.8602 73.1609 23.992 69.4656 25.1967C65.7946 26.3916 62.3712 27.5234 59.2975 28.558C56.2383 29.5878 53.5627 30.4524 51.3533 31.1325C49.1633 31.8077 47.5657 32.1477 46.6188 32.1477C45.9779 32.1477 45.4777 32.0214 45.1232 31.7785C44.7639 31.5259 44.492 31.2199 44.322 30.8653C44.152 30.5059 44.0695 30.1173 44.0841 29.7092C44.0986 29.3546 44.1521 29.0486 44.2443 28.7912C44.424 28.8689 44.6474 28.8786 44.827 28.8786C45.6331 28.8786 46.4246 28.5289 47.1821 27.8343C47.9056 27.1688 48.4835 26.4256 48.9011 25.6096C49.3284 24.7838 49.5226 24.0066 49.4838 23.2926C49.4401 22.4765 48.9448 22.0296 48.0902 22.0296C47.4929 22.0296 46.8519 22.3308 46.1867 22.9185C45.8273 23.2391 45.4826 23.6083 45.1572 24.0212C44.997 24.1183 44.8416 24.2835 44.6862 24.5312V24.5409L44.6765 24.5506C44.2929 25.2452 43.749 26.1536 43.0546 27.2465C42.3602 28.3443 41.5833 29.4226 40.753 30.4621C39.9226 31.5016 39.0728 32.41 38.2328 33.1677C37.4267 33.8915 36.6789 34.2752 36.0136 34.3044C35.5329 34.3044 35.1493 34.0566 34.8531 33.5515C34.518 32.988 34.2752 32.2983 34.1247 31.5113C33.9693 30.7002 33.8722 29.8452 33.8382 28.9709C33.8042 28.0868 33.7848 27.3388 33.7848 26.7413C33.7848 25.5027 33.712 24.4583 33.5712 23.6374C33.3624 22.4376 32.702 22.1851 32.1824 22.1851C31.6628 22.1851 31.0801 22.4571 30.4634 22.9962C29.8904 23.5014 29.2931 24.1523 28.6862 24.9344C28.084 25.7116 27.4916 26.6005 26.9283 27.572C26.3651 28.5435 25.8455 29.5101 25.389 30.433C24.9326 31.3656 24.5393 32.2594 24.2188 33.09C24.1848 33.1774 24.1508 33.2649 24.1217 33.3523C24.1411 32.7694 24.1654 32.1525 24.1945 31.5211C24.2285 30.8605 24.2722 30.1853 24.3256 29.5004C24.379 28.83 24.4421 28.2326 24.5101 27.7225C24.5441 27.3388 24.5878 27.0036 24.6412 26.7073C24.6898 26.4256 24.7481 26.1584 24.8112 25.9059C24.8792 25.8039 24.9423 25.6873 25.0103 25.5513L25.0637 25.4444L25.2142 25.1432C25.593 24.5603 26.1514 23.6763 26.9186 22.4376C27.6713 21.2281 28.4968 19.8486 29.3708 18.3477C30.2449 16.8419 31.1335 15.2243 32.0124 13.5437C32.8913 11.8533 33.6731 10.2163 34.3384 8.6765C35.0085 7.12697 35.5281 5.69403 35.8777 4.42624C36.2467 3.0953 36.3147 2.09466 36.0865 1.36605V1.35147L36.0719 1.3369C35.8583 0.870586 35.5038 0.569425 35.0133 0.438274C34.9162 0.413986 34.8094 0.399414 34.7026 0.399414C34.2752 0.399414 33.8042 0.598569 33.2652 1.01631C32.7894 1.38548 32.2552 1.97323 31.6822 2.76013C31.1141 3.53732 30.5265 4.47967 29.9244 5.55316C29.3271 6.62666 28.7299 7.82159 28.1472 9.10396C27.5645 10.3912 27.006 11.7318 26.4816 13.0968C25.8115 14.9669 25.2142 16.9099 24.7092 18.8723C24.1994 20.8395 23.772 22.7874 23.4419 24.6624C23.3933 24.9392 23.3496 25.2161 23.301 25.493C23.1214 25.8281 22.9223 26.207 22.7038 26.6393C22.2861 27.4554 21.8103 28.3589 21.2859 29.3206C20.7711 30.2678 20.1981 31.2539 19.5814 32.2594C18.9745 33.2455 18.3335 34.1587 17.678 34.9698C17.0273 35.7762 16.362 36.4319 15.7016 36.9225C15.0704 37.3937 14.4294 37.6317 13.7933 37.6317C13.2494 37.6317 12.8318 37.4374 12.521 37.0294C12.1763 36.5874 11.8995 36.0336 11.7004 35.3827C11.4965 34.7173 11.3605 33.9935 11.2925 33.2309C11.2245 32.4585 11.1905 31.7494 11.1905 31.1228C11.1225 29.1361 11.2342 27.0911 11.5304 25.0267C11.8267 22.9525 12.1714 21.0193 12.555 19.2803C12.9581 17.3276 13.4339 15.3992 13.9632 13.5534C14.5702 13.5534 15.3326 13.5339 16.2309 13.4999C17.2409 13.4659 18.2704 13.4368 19.2804 13.4222C20.3001 13.4028 21.2373 13.3882 22.0968 13.3688C22.9028 13.3542 23.4564 13.3445 23.7769 13.3445L24.0683 13.5097C24.3159 13.6845 24.5587 13.772 24.7821 13.772C24.8355 13.772 24.884 13.772 24.9326 13.7574C25.19 13.7088 25.3988 13.5971 25.5493 13.4222C25.6998 13.2474 25.7775 13.0239 25.7775 12.7616C25.7775 12.5673 25.7144 12.2904 25.4182 12.0476C25.2919 11.931 25.0443 11.8144 24.1897 11.7658C23.5827 11.7318 22.8591 11.7124 22.0385 11.7124C21.2179 11.7124 20.3341 11.7318 19.3921 11.7658C18.45 11.7998 17.5808 11.8484 16.8039 11.897C15.993 11.9504 15.352 11.9844 14.8373 12.0038C14.6625 12.0087 14.5216 12.0136 14.4051 12.0136H14.3954C14.4197 11.9261 14.4585 11.8047 14.5119 11.6444L14.6819 11.1392L15.0946 9.90543C15.3229 9.22053 15.5754 8.46763 15.857 7.64186C16.1387 6.82096 16.4203 6.04376 16.6971 5.33458C16.9787 4.61568 17.2264 3.98421 17.4352 3.43532C17.7168 2.71156 17.8236 2.58041 17.8431 2.56098L17.8528 2.55126L17.8625 2.54155C18.0907 2.26467 18.183 1.96837 18.1344 1.65749C18.0858 1.34662 17.945 1.11346 17.7217 0.962878C17.5566 0.851156 17.372 0.797725 17.1778 0.797725C17.1147 0.797725 17.0515 0.802582 16.9884 0.817154C16.7019 0.870586 16.464 1.07946 16.2795 1.44376C16.2018 1.59435 16.095 1.8615 15.9493 2.26467C15.8376 2.57555 15.7065 2.93014 15.5608 3.32845L15.4491 3.63447C15.2549 4.16879 15.0558 4.7614 14.8664 5.38801C14.677 6.01462 14.4877 6.6558 14.3128 7.29213C13.8758 8.7105 13.4097 10.3232 12.9338 12.0767C12.7687 12.0961 12.4094 12.135 11.6178 12.1933C10.6418 12.2613 9.49585 12.3682 8.20904 12.509C6.91739 12.6499 5.65485 12.8005 4.46517 12.9559C3.22207 13.1162 2.38202 13.2862 1.89644 13.4708H1.88187L1.8673 13.4805C1.35744 13.7331 1.0758 14.0245 1.00296 14.3597C0.910699 14.7823 1.06122 15.0592 1.20204 15.2146C1.39627 15.4332 1.64392 15.5498 1.91585 15.5498C2.07609 15.5498 2.44999 15.4866 2.5374 14.9183C2.60052 14.8649 2.92587 14.6657 4.35834 14.4374C4.7808 14.3694 5.45578 14.2771 6.37353 14.1751C7.29614 14.0731 8.24303 13.976 9.18506 13.8837C10.1854 13.7914 11.0012 13.7234 11.681 13.6748C12.0209 13.6505 12.288 13.636 12.4676 13.6311C12.4239 13.84 12.3317 14.2334 12.1423 14.9475C11.8606 16.0161 11.5499 17.4248 11.2148 19.1297C10.8798 20.8298 10.569 22.7679 10.2922 24.8907C10.0106 27.0182 9.88431 29.1895 9.92316 31.3365C9.92316 32.1137 9.96686 32.9637 10.0543 33.8624C10.1417 34.7756 10.3262 35.6305 10.5933 36.4077C10.8652 37.1946 11.2488 37.8746 11.7295 38.4235C12.2394 39.0112 12.9338 39.3124 13.7884 39.3124C15.0218 39.3124 16.2115 38.7149 17.3186 37.5346C18.3772 36.4028 19.3921 35.0476 20.3292 33.5078C21.2227 32.0408 22.0531 30.535 22.8009 29.0389C22.762 29.3741 22.728 29.7092 22.694 30.0395C22.5338 31.7251 22.4658 33.2357 22.4804 34.523C22.4998 35.8248 22.6164 36.8691 22.8349 37.6269C23.0825 38.5012 23.4807 38.9432 24.0051 38.9432C24.2528 38.9432 24.6849 38.8364 24.8161 38.1272C24.884 37.7434 24.9569 37.4131 25.0248 37.146V37.1314L25.0297 37.1168C25.2385 35.6353 25.6658 34.0906 26.3019 32.5217C26.9429 30.9382 27.647 29.4809 28.39 28.184C29.1329 26.8871 29.8661 25.8039 30.5751 24.9587C31.4249 23.9434 31.8473 23.7443 32.027 23.72C32.2358 23.7346 32.3086 24.0989 32.3329 24.4049C32.3863 25.0267 32.4106 25.8136 32.4106 26.7511C32.4106 27.5914 32.4203 28.5143 32.4349 29.4955C32.4543 30.5253 32.5612 31.5113 32.7554 32.4245C32.9545 33.3523 33.2992 34.1635 33.78 34.8241C34.2898 35.5333 35.0425 35.8928 36.0136 35.8928C36.9848 35.8928 37.956 35.4264 38.9709 34.4987C39.9469 33.6146 40.8987 32.5508 41.797 31.3511C42.1515 30.8799 42.4865 30.399 42.8167 29.9181C42.8167 30.1318 42.8167 30.3358 42.8361 30.5399C42.9138 31.4288 43.2392 32.1817 43.8121 32.7694C44.39 33.3717 45.3272 33.6729 46.5994 33.6729C47.658 33.6729 49.2944 33.3232 51.6106 32.6043C53.8638 31.9048 56.5782 31.0159 59.6762 29.9667C62.716 28.9369 66.1636 27.7857 69.9172 26.5422C73.6174 25.3181 77.4681 24.1669 81.3576 23.1225C85.2423 22.0782 89.1852 21.1941 93.0796 20.4947C96.9595 19.8 100.674 19.4455 104.117 19.4455C106.953 19.4455 109.478 19.7758 111.619 20.4315C113.654 21.0581 115.13 22.1365 116.014 23.6423L116.033 23.6471ZM47.1481 24.0163C47.3909 23.8172 47.624 23.7151 47.8328 23.7151C47.9396 23.7151 47.9833 23.7394 47.9882 23.7443C47.9979 23.754 48.0125 23.8026 47.9979 23.9094C47.9493 24.2203 47.7891 24.5992 47.5123 25.0364C47.2258 25.493 46.8811 25.9399 46.4926 26.3625C46.1138 26.7753 45.7739 27.0668 45.4826 27.2271C45.3029 27.3291 45.1378 27.3777 44.997 27.3777C44.963 27.3777 44.9242 27.3777 44.8902 27.3679C44.8902 27.3048 44.9096 27.1396 45.0844 26.7656C45.2252 26.5228 45.4049 26.2167 45.6282 25.8621C45.8467 25.5075 46.0896 25.1627 46.3469 24.8324C46.5946 24.5166 46.8665 24.2398 47.1481 24.0066V24.0163ZM45.4146 27.5817C45.4146 27.5817 45.3757 27.5962 45.3612 27.6011C45.3806 27.5962 45.4 27.5865 45.4146 27.5817ZM45.2058 27.6448C45.2058 27.6448 45.1767 27.6545 45.1621 27.6545C45.1767 27.6545 45.1912 27.6497 45.2058 27.6448ZM44.1909 28.3492C44.1909 28.3492 44.1812 28.3492 44.1812 28.3443C44.1812 28.3443 44.1909 28.3443 44.1909 28.3492ZM44.1472 28.3492C44.1472 28.3492 44.1472 28.3492 44.1423 28.3492C44.1423 28.3492 44.1423 28.3492 44.1472 28.3492ZM44.0889 28.4269C44.0889 28.4269 44.0938 28.4123 44.0987 28.4074C44.0987 28.4123 44.0938 28.422 44.0889 28.4269ZM34.6977 2.61441C34.6977 3.56161 34.4355 4.7614 33.9256 6.17977C33.4061 7.61758 32.7554 9.16224 31.9882 10.7652C31.2258 12.3633 30.3663 13.976 29.4437 15.5644C28.5211 17.1479 27.6664 18.5808 26.8944 19.8243C26.1271 21.063 25.4716 22.0733 24.952 22.8165C24.9083 22.8797 24.8695 22.938 24.8306 22.9914C24.8598 22.8554 24.8986 22.6999 24.9423 22.5251C25.1511 21.675 25.4425 20.587 25.8066 19.2949C26.1708 18.0077 26.6418 16.5796 27.1954 15.0446C27.749 13.5194 28.3948 11.965 29.1086 10.43C29.8176 8.9048 30.6188 7.43785 31.488 6.06319C32.3475 4.70311 33.275 3.54218 34.2364 2.61441C34.4452 2.42497 34.586 2.30839 34.6831 2.24039C34.6929 2.32782 34.6977 2.44926 34.6977 2.61927V2.61441ZM24.8549 23.448C24.8355 23.4771 24.8161 23.5014 24.7966 23.5257C24.8161 23.5014 24.8306 23.4771 24.8549 23.448ZM24.4082 24.0115C24.4082 24.0115 24.413 24.0115 24.4179 24.0066L24.4082 24.0115ZM24.4422 23.9872C24.4422 23.9872 24.4567 23.9726 24.4616 23.9629C24.4519 23.9726 24.447 23.9775 24.4422 23.9872ZM24.4956 23.924C24.4956 23.924 24.515 23.8997 24.5247 23.8852C24.515 23.8997 24.5053 23.9094 24.4956 23.924ZM24.5733 23.8269C24.5733 23.8269 24.5975 23.7929 24.6121 23.7783C24.5975 23.7977 24.5878 23.8123 24.5733 23.8269ZM24.6752 23.6909C24.6752 23.6909 24.7044 23.652 24.7238 23.6277C24.7092 23.652 24.6947 23.6714 24.6752 23.6909ZM24.952 23.3071C24.9714 23.2828 24.986 23.2585 25.0054 23.2294C24.986 23.2585 24.9666 23.2828 24.952 23.3071ZM34.7074 1.87608C34.7074 1.87608 34.7268 1.86636 34.7366 1.8615C34.7268 1.8615 34.7171 1.86636 34.7074 1.87608ZM34.7706 1.85179C34.7706 1.85179 34.7851 1.85179 34.7948 1.85179C34.7851 1.85179 34.7803 1.85179 34.7706 1.85179ZM34.319 2.15295C34.319 2.15295 34.3481 2.12866 34.3675 2.11409C34.3529 2.12866 34.3384 2.13838 34.319 2.15295ZM34.4355 2.0558C34.4355 2.0558 34.4646 2.03152 34.4792 2.0218C34.4646 2.03152 34.4501 2.04123 34.4355 2.0558ZM34.5423 1.97808C34.5423 1.97808 34.5715 1.95865 34.5812 1.94894C34.5666 1.95865 34.5569 1.96837 34.5423 1.97808ZM34.6346 1.91979C34.6346 1.91979 34.6589 1.90522 34.6686 1.90036C34.6589 1.90522 34.6443 1.91494 34.6346 1.91979ZM34.1878 2.26953C34.1878 2.26953 34.217 2.24524 34.2316 2.23067C34.217 2.24524 34.2024 2.25496 34.1878 2.26953ZM33.7217 1.06003C33.7654 1.03088 33.8139 1.00174 33.8576 0.97745C33.8139 1.00174 33.7703 1.03088 33.7217 1.06003ZM33.9256 0.93859C33.9693 0.914303 34.0082 0.894873 34.0519 0.875444C34.013 0.894873 33.9693 0.919161 33.9256 0.93859ZM34.7511 0.695718C34.7269 0.695718 34.6977 0.695718 34.6734 0.695718C34.6929 0.695718 34.7074 0.695718 34.7269 0.695718C34.7366 0.695718 34.7463 0.695718 34.7511 0.695718ZM34.1102 0.846299C34.1587 0.822012 34.2073 0.807439 34.251 0.78801C34.2024 0.807439 34.1587 0.822012 34.1102 0.846299ZM34.285 0.773437C34.3432 0.754008 34.3967 0.739435 34.4549 0.724863C34.4015 0.739435 34.3432 0.754008 34.285 0.773437ZM34.4986 0.715148C34.5375 0.705433 34.5763 0.700576 34.6152 0.695718C34.5763 0.695718 34.5375 0.705433 34.4986 0.715148ZM33.6586 1.10374C33.5906 1.14746 33.5274 1.19604 33.4595 1.24947C33.5274 1.19604 33.5954 1.14746 33.6586 1.10374ZM12.6473 13.3494C12.6473 13.3494 12.6279 13.3494 12.6182 13.3494C12.6279 13.3494 12.6376 13.3494 12.6473 13.3494ZM12.7881 13.3591C12.7881 13.3591 12.7784 13.3591 12.7735 13.3591C12.7784 13.3591 12.7833 13.3591 12.7881 13.3591ZM12.7347 13.3542C12.7347 13.3542 12.7201 13.3542 12.7104 13.3542C12.7201 13.3542 12.7298 13.3542 12.7347 13.3542ZM14.0846 12.2613C14.0846 12.2613 14.0943 12.271 14.104 12.2759C14.0943 12.2759 14.0846 12.2662 14.0846 12.2613ZM14.1186 12.2807C14.1186 12.2807 14.1429 12.2856 14.1623 12.2904C14.1429 12.2904 14.1283 12.2904 14.1186 12.2807ZM24.4713 13.3931C24.5101 13.4125 24.5441 13.4271 24.5781 13.4368C24.5441 13.4222 24.5053 13.4077 24.4713 13.3931ZM24.6364 13.4562C24.6704 13.4659 24.6995 13.4708 24.7335 13.4757C24.7044 13.4757 24.6704 13.4659 24.6364 13.4562ZM24.8161 13.4854C24.8161 13.4854 24.7966 13.4854 24.7869 13.4854C24.8306 13.4854 24.8743 13.4854 24.918 13.4805C24.884 13.4854 24.85 13.4902 24.8161 13.4902V13.4854ZM14.881 12.2904C14.8033 12.2904 14.7304 12.2904 14.6625 12.2953C14.7304 12.2953 14.8033 12.2953 14.881 12.2904ZM17.4303 1.12317C17.4303 1.12317 17.4012 1.11346 17.3866 1.1086C17.4012 1.1086 17.4157 1.11832 17.4303 1.12317ZM17.2118 1.08431C17.1681 1.08431 17.1195 1.08431 17.071 1.09889C17.1195 1.08917 17.1681 1.08431 17.2118 1.08431ZM11.7004 13.3979C11.8024 13.3882 11.8898 13.3834 11.9772 13.3785C11.8898 13.3834 11.7975 13.3882 11.7004 13.3979ZM12.0597 13.3736C12.1131 13.3736 12.1666 13.3688 12.2151 13.3639C12.1666 13.3639 12.1131 13.3688 12.0597 13.3736ZM12.2977 13.3591C12.3414 13.3591 12.3802 13.3591 12.4191 13.3542C12.3802 13.3542 12.3414 13.3542 12.2977 13.3591Z" stroke="#836923" stroke-width="0.36" stroke-miterlimit="10"/>
</svg>
